<svg width="36" height="31" viewBox="0 0 36 31" fill="none" xmlns="http://www.w3.org/2000/svg">
<path fill-rule="evenodd" clip-rule="evenodd" d="M28.9663 0.0945854C27.7498 0.296137 26.5016 0.710126 25.2223 1.33621C23.8333 2.01597 22.8159 2.65976 20.1195 4.56482C16.9834 6.78078 15.0537 7.76001 13.214 8.06912L12.7204 8.15202V13.4298V18.7075L13.2094 18.7896C15.187 19.1219 17.0569 20.1169 21.1855 23.0339C24.9731 25.7101 27.3599 26.7366 30.0495 26.8466C31.1544 26.8917 31.3786 26.8311 31.6405 26.416C31.7776 26.1986 31.7794 26.0249 31.779 13.4216C31.7785 1.02413 31.7746 0.64184 31.646 0.450625C31.3805 0.0562046 31.1926 -0.00670697 30.3025 0.000528199C29.8577 0.00418024 29.2564 0.0464888 28.9663 0.0945854ZM3.93687 8.39698C3.65091 8.46575 3.14455 8.65621 2.81161 8.82013C2.32177 9.06131 2.07809 9.24349 1.53417 9.77525C0.956698 10.3399 0.816322 10.5245 0.536977 11.0869C0.0689406 12.0292 -0.0333171 12.525 0.00852842 13.6488C0.0466465 14.6756 0.188429 15.1894 0.668069 16.0393C1.06585 16.7442 2.05228 17.6643 2.80409 18.0318C3.92048 18.5775 4.09068 18.5977 7.56252 18.5977H10.6106V13.4298V8.26179L7.53368 8.26688C4.81063 8.27136 4.39703 8.28632 3.93687 8.39698ZM33.8893 13.4279V16.3856L34.0827 16.318C34.782 16.0735 35.5929 15.211 35.8584 14.4292C36.0764 13.7875 36.038 12.7499 35.7756 12.1894C35.4411 11.475 34.7261 10.7819 34.0722 10.5383L33.8893 10.4702V13.4279ZM6.39134 25.5056C6.39176 30.1316 6.39767 30.355 6.52433 30.5433C6.59719 30.6516 6.74734 30.7987 6.8579 30.8701C7.04539 30.9912 7.22789 31 9.55563 31C11.8834 31 12.0659 30.9912 12.2534 30.8701C12.3639 30.7987 12.5141 30.6516 12.5869 30.5433C12.7136 30.355 12.7195 30.1324 12.7199 25.5474C12.7203 21.2348 12.7092 20.7443 12.6092 20.7068C12.548 20.6837 11.1238 20.6649 9.44437 20.6649H6.39084L6.39134 25.5056Z" fill="url(#paint0_linear_79_11829)"/>
<defs>
<linearGradient id="paint0_linear_79_11829" x1="0" y1="0" x2="39.4194" y2="5.23066" gradientUnits="userSpaceOnUse">
<stop stop-color="#1C4EFF"/>
<stop offset="1" stop-color="#1C92FF"/>
</linearGradient>
</defs>
</svg>
