<svg width="36" height="29" viewBox="0 0 36 29" fill="none" xmlns="http://www.w3.org/2000/svg">
<path fill-rule="evenodd" clip-rule="evenodd" d="M23.4321 0.155502C20.531 0.75658 18.3047 2.97665 17.6761 5.89535C17.5441 6.50841 17.516 8.00902 17.6252 8.61894L17.6887 8.97342L17.3305 8.94652C11.8265 8.53324 6.75557 6.09583 3.18396 2.14667L2.44056 1.3247L2.26759 1.65889C1.6906 2.77367 1.46562 3.69946 1.458 4.98949C1.4508 6.22488 1.58333 6.88052 2.06385 7.98581C2.49893 8.98652 3.45269 10.1898 4.37541 10.9019L4.62241 11.0925L4.19898 11.0488C3.47888 10.9745 2.85355 10.8212 2.20782 10.5608C1.23168 10.1672 1.31693 10.1484 1.37183 10.7454C1.39787 11.0289 1.45179 11.4333 1.49159 11.6441C1.98792 14.2711 3.94846 16.4571 6.55747 17.2924L7.15168 17.4826L6.7339 17.5704C6.26122 17.6697 4.7083 17.6993 4.24662 17.6177C3.95206 17.5656 3.94309 17.5693 3.98974 17.7222C4.01635 17.8094 4.15756 18.1352 4.30371 18.4464C5.31662 20.6039 7.48471 22.2428 9.77757 22.5843C10.9315 22.7561 10.9052 22.6884 10.0396 23.2598C8.14991 24.5074 6.15176 25.2748 3.87464 25.6276C3.28629 25.7187 2.65708 25.7526 1.53492 25.7535C0.69068 25.7542 0 25.7587 0 25.7636C0 25.7685 0.293717 25.945 0.652783 26.1558C4.77993 28.58 9.72238 29.4884 14.7696 28.7504C17.8994 28.2928 20.9566 27.0799 23.5384 25.2714C25.1003 24.1773 26.7325 22.6055 27.9606 21.0127C29.4002 19.1457 30.6865 16.6522 31.4275 14.292C32.0385 12.3458 32.3037 10.7438 32.3697 8.60138L32.4129 7.19618L32.9112 6.82449C33.6282 6.28961 34.8871 5.0253 35.4677 4.25706C36.1384 3.3698 36.1294 3.39676 35.696 3.57013C34.9659 3.86217 33.8281 4.19553 32.9831 4.36493C32.5125 4.45934 32.0886 4.53655 32.0411 4.53655C31.9936 4.53655 32.156 4.38757 32.4019 4.20556C33.3418 3.50986 34.0928 2.63409 34.5962 1.64677C34.9043 1.04262 35.0931 0.564675 35.0238 0.564675C34.9998 0.564675 34.755 0.68634 34.48 0.835042C33.5263 1.35069 32.1849 1.85456 30.9547 2.15921L30.3994 2.29676L29.8608 1.84292C28.0214 0.292985 25.7042 -0.31527 23.4321 0.155502Z" fill="url(#paint0_linear_79_8692)"/>
<defs>
<linearGradient id="paint0_linear_79_8692" x1="0" y1="0" x2="39.3223" y2="5.57763" gradientUnits="userSpaceOnUse">
<stop stop-color="#1C4EFF"/>
<stop offset="1" stop-color="#1C92FF"/>
</linearGradient>
</defs>
</svg>
