<svg width="36" height="33" viewBox="0 0 36 33" fill="none" xmlns="http://www.w3.org/2000/svg">
<path fill-rule="evenodd" clip-rule="evenodd" d="M4.11756 0.0524053C2.18352 0.384681 0.635055 1.8197 0.151047 3.72861C0.00382979 4.3091 0 4.63489 0 16.506C0 28.377 0.00382979 28.7028 0.151047 29.2833C0.567957 30.9275 1.77641 32.2331 3.39204 32.7851L4.02128 33H18H31.9787L32.608 32.7851C34.2162 32.2356 35.4336 30.9215 35.8479 29.2874C35.9965 28.7015 36 28.4053 36 16.506C36 4.60661 35.9965 4.31042 35.8479 3.72451C35.4336 2.0904 34.2162 0.776289 32.608 0.226848L31.9787 0.0119236L18.2298 0.000953464C10.6679 -0.00507246 4.3174 0.0181039 4.11756 0.0524053ZM9.80426 6.61726V8.23963H8.19574H6.58723V6.61726V4.9949H8.19574H9.80426V6.61726ZM16.3149 6.61726V8.23963H14.7064H13.0979V6.61726V4.9949H14.7064H16.3149V6.61726ZM32.6894 20.8151L32.6681 28.3689L32.4724 28.7523C32.354 28.9845 32.1473 29.2275 31.9488 29.3683L31.6209 29.6008H18H4.37913L4.05123 29.3683C3.85269 29.2275 3.64603 28.9845 3.52762 28.7523L3.33191 28.3689L3.31062 20.8151L3.28925 13.2612H18H32.7108L32.6894 20.8151ZM7.42979 16.6558C7.04834 16.8626 6.76486 17.1891 6.62852 17.579C6.45289 18.081 6.45289 24.8197 6.62852 25.3216C6.76838 25.7215 7.05378 26.0438 7.44993 26.2493C7.72529 26.3922 7.90813 26.3979 11.5545 26.3774L15.3707 26.356L15.687 26.1348C15.8847 25.9967 16.0763 25.7663 16.1975 25.521L16.3915 25.1282V21.4503V17.7724L16.1975 17.3796C16.0763 17.1344 15.8847 16.9039 15.687 16.7658L15.3707 16.5446L11.5342 16.5275C7.9069 16.5114 7.68324 16.5184 7.42979 16.6558ZM19.6085 18.167V19.8279H24.5489H29.4894V18.167V16.506H24.5489H19.6085V18.167ZM19.6085 24.7337V26.3947H24.5489H29.4894V24.7337V23.0727H24.5489H19.6085V24.7337Z" fill="url(#paint0_linear_79_11905)"/>
<defs>
<linearGradient id="paint0_linear_79_11905" x1="0" y1="0" x2="39.4997" y2="4.92367" gradientUnits="userSpaceOnUse">
<stop stop-color="#1C4EFF"/>
<stop offset="1" stop-color="#1C92FF"/>
</linearGradient>
</defs>
</svg>
