<svg width="30" height="36" viewBox="0 0 30 36" fill="none" xmlns="http://www.w3.org/2000/svg">
<path fill-rule="evenodd" clip-rule="evenodd" d="M6.62207 0.11116C5.17806 0.495052 4.16013 1.66395 3.94948 3.18005L3.90332 3.51254L13.4908 3.5316L23.0783 3.55065L23.559 3.74112C24.6737 4.18274 25.3779 4.91417 25.8429 6.11359L25.9942 6.50366L26.0134 19.5286L26.0326 32.5535H26.2383C26.6922 32.5535 27.5865 32.3308 28.0566 32.1008C28.8557 31.7098 29.4617 31.0507 29.8064 30.1981L29.9768 29.7762L29.9958 16.4525C30.009 7.11388 29.9916 3.01904 29.9378 2.76184C29.6933 1.59393 28.749 0.59215 27.503 0.178587L26.9647 0L16.985 0.00464045C8.50475 0.00857781 6.94766 0.0245382 6.62207 0.11116ZM0.817874 5.89795C0.473442 6.05551 0.256812 6.27818 0.110093 6.62544C0.0119481 6.85753 0 8.41265 0 20.9279V34.97L0.15248 35.2814C0.254039 35.4886 0.41356 35.6608 0.629763 35.7964L0.954494 36L11.9209 35.9817L22.8873 35.9635L23.1605 35.7481C23.3109 35.6295 23.4979 35.4081 23.5761 35.2559C23.7169 34.9819 23.7183 34.84 23.7183 20.8766V6.77387L23.505 6.4342C23.3722 6.22285 23.1842 6.03899 23.0071 5.94758L22.7227 5.80057L11.9125 5.78418C1.52238 5.76843 1.09133 5.77286 0.817874 5.89795ZM18.2266 13.5593C18.8967 13.9711 18.9462 14.8965 18.3254 15.4054C18.0037 15.6693 17.6186 15.6846 11.836 15.664C6.67207 15.6456 6.20496 15.6342 5.99807 15.5223C5.70954 15.3662 5.49746 15.0976 5.39448 14.7579C5.24172 14.2537 5.59077 13.6642 6.16286 13.4604C6.3888 13.3799 7.43703 13.3657 12.197 13.3785L17.9577 13.394L18.2266 13.5593ZM17.8297 18.0733C18.2196 18.1578 18.4171 18.2979 18.6275 18.6389C18.9344 19.1367 18.7014 19.8841 18.1557 20.1522C17.8988 20.2784 17.6198 20.2844 12.0547 20.2844C6.2999 20.2844 6.21968 20.2825 5.97425 20.14C5.67647 19.967 5.42528 19.6186 5.36347 19.2928C5.33019 19.1177 5.36255 18.9679 5.48615 18.7242C5.67491 18.3521 5.9133 18.1524 6.26726 18.0698C6.64206 17.9823 17.425 17.9856 17.8297 18.0733ZM18.3505 22.9562C18.4739 23.0722 18.62 23.2525 18.6752 23.3569C18.9117 23.8046 18.6992 24.469 18.2266 24.7596L17.9577 24.9249H12.0903C6.29962 24.9249 6.21968 24.923 5.97425 24.7804C5.67647 24.6075 5.42528 24.2591 5.36347 23.9332C5.30324 23.6159 5.57121 23.081 5.89737 22.8672L6.14081 22.7078L12.1335 22.7265L18.1261 22.7453L18.3505 22.9562Z" fill="url(#paint0_linear_79_12018)"/>
<defs>
<linearGradient id="paint0_linear_79_12018" x1="0" y1="0" x2="33.1275" y2="3.15438" gradientUnits="userSpaceOnUse">
<stop stop-color="#1C4EFF"/>
<stop offset="1" stop-color="#1C92FF"/>
</linearGradient>
</defs>
</svg>
