<svg width="36" height="24" viewBox="0 0 36 24" fill="none" xmlns="http://www.w3.org/2000/svg">
<path fill-rule="evenodd" clip-rule="evenodd" d="M0 12V22C0 23.1046 0.895431 24 2 24H18H34C35.1046 24 36 23.1046 36 22V12V2C36 0.895431 35.1046 0 34 0H18H2C0.89543 0 0 0.895431 0 2V12ZM13.7189 3.28593L14.2416 3.37264L13.8768 3.73993L13.5119 4.10714L13.5864 4.52193C13.6275 4.75007 13.645 4.9525 13.6254 4.97179C13.6059 4.99107 13.4064 4.91821 13.182 4.80993L12.7742 4.61307L12.3664 4.80993C12.142 4.91821 11.9425 4.99107 11.923 4.97179C11.9034 4.9525 11.9209 4.75007 11.9619 4.52193L12.0365 4.10714L11.6715 3.73979L11.3065 3.37236L11.623 3.32521C12.3468 3.21743 12.3299 3.22729 12.5636 2.77186L12.7842 2.34171L12.9902 2.77043L13.1962 3.19914L13.7189 3.28593ZM7.00585 7.43621C7.38363 8.18714 7.63512 8.60521 7.72984 8.63993C7.80968 8.66914 8.43975 8.76871 9.12999 8.86107L10.3851 9.02907L9.40217 9.949C8.61293 10.6877 8.41979 10.9064 8.42168 11.0594C8.42291 11.1643 8.51792 11.7804 8.63281 12.4286C8.74771 13.0768 8.83648 13.6119 8.83016 13.6176C8.82377 13.6233 8.27274 13.3422 7.60558 12.993L6.39269 12.358L5.17413 12.9925C4.50399 13.3414 3.95042 13.6225 3.94403 13.6171C3.93772 13.6116 4.02648 13.0768 4.14138 12.4286C4.25627 11.7804 4.35128 11.1643 4.35252 11.0595C4.3544 10.9067 4.16083 10.6869 3.37442 9.94871L2.394 9.02843L3.6466 8.86071C4.33553 8.7685 4.96452 8.66914 5.04435 8.63993C5.13907 8.60521 5.39056 8.18714 5.76835 7.43621C6.08669 6.80343 6.36518 6.28571 6.3871 6.28571C6.40902 6.28571 6.68751 6.80343 7.00585 7.43621ZM16.2581 7.31921C16.9793 7.42564 16.9654 7.40536 16.5807 7.78971C16.2112 8.15886 16.2158 8.134 16.3732 8.90679L16.4198 9.135L15.9569 8.89314L15.4941 8.65129L15.0346 8.89286C14.5991 9.12186 14.5771 9.12629 14.613 8.97793C14.6339 8.89186 14.6737 8.66593 14.7016 8.47593C14.7515 8.13521 14.7474 8.12564 14.4084 7.78693L14.0646 7.44336L14.2723 7.40407C14.3864 7.3825 14.6151 7.34479 14.7803 7.32029C15.0672 7.27779 15.0902 7.25514 15.2884 6.81929L15.496 6.36271L15.7137 6.81686C15.9247 7.25686 15.9416 7.2725 16.2581 7.31921ZM16.3112 11.9657C16.969 12.0537 16.9657 12.0479 16.5795 12.4337L16.2316 12.7814L16.3156 13.2258C16.3618 13.4702 16.3873 13.6823 16.3724 13.697C16.3574 13.7118 16.1542 13.6288 15.9208 13.5126L15.4965 13.3014L15.0715 13.5126C14.8378 13.6286 14.6373 13.7135 14.626 13.7011C14.6147 13.6887 14.6392 13.4756 14.6805 13.2275L14.7554 12.7764L14.4099 12.4313C14.024 12.0456 14.0216 12.0494 14.7072 11.9639L15.0798 11.9175L15.282 11.4491L15.4843 10.9809L15.7247 11.4501C15.9611 11.9119 15.9706 11.9201 16.3112 11.9657ZM13.0144 15.995C13.1986 16.4129 13.2058 16.4191 13.5502 16.4649C13.7421 16.4904 13.9769 16.5342 14.0718 16.5622C14.2384 16.6114 14.2314 16.6246 13.8724 16.9423L13.5004 17.2714L13.5977 17.7774L13.6949 18.2834L13.2333 18.0421L12.7716 17.8009L12.3694 18.0152C12.1482 18.1331 11.949 18.2117 11.9268 18.1899C11.9046 18.168 11.922 17.9517 11.9654 17.7091L12.0442 17.2682L11.6742 16.9407C11.3168 16.6245 11.31 16.6115 11.4766 16.5622C11.5715 16.5342 11.8082 16.4901 12.0026 16.4642C12.3516 16.4179 12.3584 16.4119 12.5459 15.9944C12.6504 15.7617 12.7566 15.5714 12.7818 15.5714C12.8071 15.5714 12.9118 15.762 13.0144 15.995Z" fill="url(#paint0_linear_79_12036)"/>
<defs>
<linearGradient id="paint0_linear_79_12036" x1="0" y1="0" x2="38.9687" y2="6.67903" gradientUnits="userSpaceOnUse">
<stop stop-color="#1C4EFF"/>
<stop offset="1" stop-color="#1C92FF"/>
</linearGradient>
</defs>
</svg>
