<svg width="36" height="36" viewBox="0 0 36 36" fill="none" xmlns="http://www.w3.org/2000/svg">
<path fill-rule="evenodd" clip-rule="evenodd" d="M17.0512 0.023436C13.4476 0.200382 10.1479 1.4041 7.17144 3.62783C6.24034 4.32342 4.67679 5.83791 3.97387 6.72511C2.79723 8.21014 1.59248 10.3652 1.0355 11.9814C0.233062 14.3099 -0.12559 16.8772 0.0392432 19.1127C0.324086 22.9753 1.45968 26.094 3.64181 29.0067C4.45282 30.0893 6.14757 31.7929 7.17144 32.5548C9.34034 34.1687 11.7229 35.2211 14.5737 35.8244L15.3804 35.995V29.507V23.019H13.3454H11.3103L11.3295 20.4969L11.3486 17.9748L13.3562 17.9555L15.3638 17.9362L15.4022 15.4515C15.4296 13.6805 15.4719 12.8055 15.5496 12.4052C16.1089 9.52258 17.8389 7.79332 20.7351 7.22177C21.8027 7.01115 23.9436 7.06427 26.0048 7.35255L26.5678 7.4313V9.6366V11.8419L24.7335 11.843C22.8054 11.8441 22.2843 11.9055 21.7165 12.1983C21.3234 12.401 20.938 12.8324 20.7055 13.3298L20.5019 13.7652L20.4797 15.8519L20.4574 17.9385H23.1131C25.5949 17.9385 25.7685 17.9468 25.7659 18.0655C25.7643 18.1353 25.5923 19.2703 25.3835 20.5876L25.004 22.9827L23.2433 23.0021L21.4826 23.0216V29.5108V36L22.4179 35.7535C28.4855 34.1544 33.5368 29.2522 35.2522 23.298C36.7707 18.0272 35.9522 12.4463 33.0195 8.07551C32.2568 6.93878 31.8122 6.40475 30.7125 5.30432C29.6116 4.20287 28.9907 3.68487 27.8754 2.93782C24.7412 0.838347 20.9955 -0.170131 17.0512 0.023436Z" fill="url(#paint0_linear_79_8435)"/>
<defs>
<linearGradient id="paint0_linear_79_8435" x1="0" y1="0" x2="39.5965" y2="4.52442" gradientUnits="userSpaceOnUse">
<stop stop-color="#1C4EFF"/>
<stop offset="1" stop-color="#1C92FF"/>
</linearGradient>
</defs>
</svg>
