<svg width="36" height="32" viewBox="0 0 36 32" fill="none" xmlns="http://www.w3.org/2000/svg">
<path fill-rule="evenodd" clip-rule="evenodd" d="M5.77558 0.0900192C3.65435 0.471873 1.76599 1.86174 0.786563 3.76204C0.157298 4.98291 -0.0463829 5.95588 0.00856517 7.47878C0.0319234 8.12504 0.0924999 8.72413 0.159127 8.96764C1.02627 12.1353 3.76537 14.2676 6.96713 14.2676C10.1792 14.2676 12.9998 12.024 13.7362 8.88329C13.7964 8.62664 13.8677 8.31973 13.8945 8.20128C13.9417 7.99373 13.9443 7.99244 13.9681 8.16538C14.3186 10.7269 16.0853 12.9451 18.4874 13.8396C20.7126 14.6683 23.3118 14.2634 25.1701 12.7985C28.8383 9.90716 28.792 4.21934 25.0774 1.40178C22.627 -0.456881 19.198 -0.468296 16.7488 1.37407C15.8502 2.04997 14.9827 3.12698 14.5469 4.10763C14.3 4.66329 13.9903 5.7245 13.9837 6.03765C13.9773 6.34161 13.9127 6.16953 13.7181 5.32965C13.4319 4.09464 12.5906 2.66098 11.6606 1.82369C10.7823 1.03292 9.72952 0.469576 8.60622 0.189162C7.84919 0.000209263 6.53092 -0.0460239 5.77558 0.0900192ZM8.1489 4.54965C9.90246 5.41257 10.3091 7.72229 8.95378 9.12099C7.58415 10.5343 5.3023 10.1468 4.43023 8.35268C3.91558 7.29384 4.13143 5.95854 4.95284 5.12038C5.54502 4.51612 6.14558 4.28446 7.05838 4.30815C7.60463 4.32236 7.75435 4.35553 8.1489 4.54965ZM22.0794 4.54857C22.6618 4.8338 23.1634 5.34559 23.4429 5.93987C23.6436 6.36638 23.6624 6.46818 23.6624 7.12442C23.6624 7.77886 23.6431 7.88396 23.4437 8.31341C22.5971 10.1364 20.3292 10.5526 18.944 9.13922C17.8521 8.0251 17.8166 6.33063 18.861 5.17451C19.4392 4.53443 20.0546 4.28388 20.9889 4.30815C21.5339 4.32236 21.6858 4.35581 22.0794 4.54857ZM10.9744 14.4452C9.77793 15.203 7.9213 15.6211 6.34948 15.4867C5.27465 15.3948 4.65615 15.2393 3.74067 14.8311L3.23721 14.6065L2.99441 14.7596C2.58163 15.0199 2.1018 15.6092 1.83029 16.1894L1.57061 16.7444L1.55112 22.8394C1.5298 29.5007 1.51594 29.2415 1.93808 30.0943C2.17047 30.5637 2.94917 31.3368 3.438 31.5833C4.30401 32.0202 3.78978 31.9999 13.9533 31.9999C24.1168 31.9999 23.6035 32.0202 24.4678 31.5833C24.9289 31.3504 25.6393 30.66 25.9139 30.178C26.0238 29.9854 26.1715 29.6146 26.2424 29.3539C26.3623 28.9126 26.3711 28.4787 26.3711 23.0227C26.3711 16.5737 26.3885 16.8515 25.93 15.9679C25.7063 15.5368 25.1181 14.8785 24.8025 14.7061C24.6394 14.6171 24.5635 14.6325 23.9861 14.871C22.7067 15.3996 21.4023 15.6059 20.1216 15.4822C18.9833 15.3724 18.1009 15.0965 17.0234 14.514L16.435 14.1958L13.8926 14.2015L11.3501 14.2072L10.9744 14.4452ZM34.0751 15.7815C33.959 15.8173 32.4552 16.6814 30.7332 17.7017L27.6024 19.5567V23.1267V26.6967L30.8216 28.602C34.0311 30.5014 34.0423 30.5073 34.459 30.5113C35.0384 30.5169 35.4791 30.2805 35.763 29.812L35.9747 29.4626L35.9953 23.2471C36.0067 19.8286 35.9966 16.9228 35.973 16.79C35.9094 16.4317 35.3554 15.8947 34.939 15.7877C34.5626 15.691 34.3727 15.6896 34.0751 15.7815Z" fill="url(#paint0_linear_79_12170)"/>
<defs>
<linearGradient id="paint0_linear_79_12170" x1="0" y1="0" x2="39.4614" y2="5.0726" gradientUnits="userSpaceOnUse">
<stop stop-color="#1C4EFF"/>
<stop offset="1" stop-color="#1C92FF"/>
</linearGradient>
</defs>
</svg>
