<svg width="33" height="36" viewBox="0 0 33 36" fill="none" xmlns="http://www.w3.org/2000/svg">
<path fill-rule="evenodd" clip-rule="evenodd" d="M0 0.0800297C0 0.12399 0.321 0.557327 0.713471 1.04289C2.7839 3.60472 5.72576 6.71198 8.3383 9.09596C9.20502 9.88686 9.95013 10.6485 9.99405 10.7884C10.1531 11.294 9.23765 11.8952 8.30567 11.8973C7.92437 11.8981 7.50026 11.4698 6.94238 10.5203C5.50713 8.07812 3.47429 5.09009 3.47429 5.42286C3.47429 5.4434 3.98241 6.35917 4.60344 7.45804C6.77537 11.3006 6.76246 11.2298 5.6116 12.9703C5.15225 13.6652 5.02333 14.0782 4.76772 15.6733C4.4636 17.5708 3.99134 18.4965 2.06832 20.9633C0.872544 22.4972 0.528217 23.2097 0.425229 24.3634C0.295935 25.8111 0.698209 27.1227 1.80899 28.8753C2.04859 29.2534 2.34986 29.8105 2.47841 30.1132L2.71218 30.6635L3.55855 30.4709C5.32398 30.0689 6.69099 29.4164 7.6638 28.5114C8.37962 27.8453 8.56165 27.4607 8.56165 26.614C8.56165 25.5845 8.21447 25.0663 6.88655 24.1142C5.8625 23.3799 5.33316 22.7613 5.13215 22.0634C4.8856 21.2079 4.96104 20.8215 5.69685 19.1702C6.37645 17.6449 6.52088 17.1259 6.69434 15.5858C6.85515 14.1569 7.03545 13.8955 8.01458 13.6716C9.52167 13.3269 10.0233 13.145 10.496 12.7721C11.1373 12.2657 11.5396 11.5059 11.5396 10.8008C11.5396 10.2869 11.4835 10.1883 10.8146 9.52767C9.47527 8.20486 0.212925 0 0.058939 0C0.0265536 0 0 0.0359445 0 0.0800297ZM9.80247 2.60053C9.80247 2.67354 10.0397 2.77324 10.3298 2.82196C11.8987 3.08584 13.2774 3.79196 14.5444 4.98075C14.8918 5.30663 15.913 6.5032 16.8137 7.63977C17.7144 8.77634 18.6881 9.92218 18.9775 10.1859C20.5622 11.631 22.1214 12.1427 25.7108 12.3958C26.7145 12.4666 27.8135 12.5847 28.1528 12.6582C28.9342 12.8273 29.7727 13.3844 30.2146 14.0281C30.4034 14.303 30.6072 14.5281 30.6675 14.5281C30.9304 14.5281 30.2635 12.5049 29.6808 11.5345C29.1724 10.6882 28.3994 9.65579 28.2685 9.6484C28.2221 9.64577 28.0915 9.96777 27.9784 10.3638C27.5796 11.7582 27.0366 12.3326 26.4708 11.9585C26.131 11.7338 26.1315 11.6125 26.476 10.7082C26.703 10.1117 26.7263 9.38364 26.545 8.53087L26.4123 7.90666L25.3276 7.34119C23.618 6.44997 22.3469 6.12384 20.2874 6.04794C19.3284 6.01262 18.2448 6.04118 17.8682 6.11157L17.1862 6.23919L16.069 5.15021C14.8195 3.9321 13.8449 3.2826 12.6696 2.8842C11.7754 2.58112 9.80247 2.38586 9.80247 2.60053ZM26.9918 3.8512C26.8787 4.17833 26.7535 4.85752 26.7136 5.36036C26.6522 6.13248 26.61 6.26223 26.4421 6.19473C25.8898 5.97255 24.0271 5.38541 23.8746 5.38541C23.485 5.38541 23.7631 5.59832 24.7632 6.0656C26.053 6.66827 26.7497 7.24651 26.9324 7.86633C27.0827 8.37594 27.0425 10.8283 26.8781 11.1779C26.8111 11.3206 26.8255 11.397 26.9194 11.397C27.2132 11.397 27.5788 10.2441 27.6425 9.11713C27.6849 8.3648 27.7529 8.0155 27.8569 8.0155C28.0301 8.0155 28.4154 8.2993 29.4429 9.18363C30.7955 10.3478 30.3157 9.61709 28.347 7.51453C27.9016 7.03873 27.5172 6.49293 27.4221 6.20111C27.2339 5.62362 27.1891 4.25585 27.3388 3.66333C27.5005 3.0241 27.2262 3.17251 26.9918 3.8512ZM9.75333 3.70579C9.62503 4.04344 9.67479 5.03473 9.86588 5.94537C10.2698 7.86984 11.5585 9.75724 12.9447 10.4545C13.629 10.7988 14.3633 10.8705 14.4651 10.6031C14.5001 10.5108 14.3049 10.0162 14.0312 9.504C13.7147 8.91173 13.4366 8.14086 13.2673 7.38615C12.942 5.9361 12.4001 4.7344 11.9138 4.38485C11.503 4.08953 10.6471 3.70015 10.1566 3.58543C9.92209 3.53045 9.80694 3.56489 9.75333 3.70579ZM19.6358 12.8393C19.716 14.1346 20.0701 14.9517 20.9371 15.8414C21.9398 16.8704 23.1031 17.5303 26.1385 18.7923C30.3471 20.5421 31.5379 21.5047 31.8381 23.3991C31.8866 23.7052 31.9811 23.9112 32.0608 23.8846C32.137 23.8591 32.3577 23.4542 32.5515 22.9849C32.9746 21.9596 33.1233 20.2668 32.8895 19.1346C32.5646 17.5606 31.5177 16.0696 30.1174 15.1862C28.7055 14.2956 27.6467 13.973 24.4441 13.4574C22.0639 13.0742 21.1346 12.7909 20.3182 12.1997C19.9938 11.9649 19.6928 11.7728 19.6492 11.7728C19.6056 11.7728 19.5996 12.2527 19.6358 12.8393ZM11.8177 13.9013C11.2278 14.2642 10.9202 14.8476 10.9197 15.6045C10.9193 16.0796 10.9814 16.2994 11.1623 16.4647C11.7424 16.9946 13.587 16.739 14.2878 16.0317C14.7289 15.5865 14.7448 15.1151 14.339 14.5124C13.7825 13.6858 12.624 13.405 11.8177 13.9013ZM22.1542 18.1288C22.2059 18.2494 22.3279 18.7262 22.4253 19.1886C22.7409 20.6862 22.2181 22.0955 21.0448 22.9103C20.2751 23.4448 19.7954 23.5992 17.7206 23.9799C15.7356 24.3441 14.747 24.6413 13.8436 25.1454C13.1764 25.5176 12.8958 25.8922 13.441 25.683C14.1168 25.4237 15.6616 25.1788 17.4112 25.0538C18.4224 24.9815 19.5113 24.8578 19.8308 24.7789C21.234 24.4322 22.4611 23.5074 23.0459 22.3557C23.3097 21.8363 23.3635 21.5587 23.3621 20.7276C23.3602 19.657 23.1752 19.0506 22.6265 18.3167C22.3004 17.8806 21.9955 17.7593 22.1542 18.1288ZM24.0991 19.1307C24.0499 19.2513 24.0126 19.8853 24.0159 20.5397C24.0237 22.0901 24.2215 22.5853 25.819 25.0553C27.4114 27.518 27.8481 28.3144 28.1099 29.235C28.3751 30.1669 28.3037 31.2554 27.9183 32.1598C27.7633 32.5235 27.6677 32.8525 27.7056 32.891C27.8435 33.0301 28.9902 32.2433 29.7275 31.5037C31.6916 29.5335 32.2258 26.3105 30.9931 23.8678C30.6927 23.2725 29.6849 22.1769 28.9159 21.6097C28.397 21.2269 24.3939 18.9116 24.2509 18.9116C24.2164 18.9116 24.1481 19.0101 24.0991 19.1307ZM12.6564 27.0532C12.1445 27.1921 11.2232 27.5583 10.609 27.8669C9.45616 28.4461 7.57247 29.7697 7.57024 30.0019C7.56962 30.0743 7.97388 30.1944 8.46859 30.2688C10.0489 30.5064 10.6435 30.8168 12.0374 32.132C13.4692 33.4831 13.7988 33.6871 14.6867 33.7722C15.9778 33.8959 16.9992 32.9932 16.9992 31.7285C16.9992 31.1413 16.947 30.9988 16.5854 30.6005C16.2272 30.2061 16.0804 30.1371 15.494 30.088C14.8952 30.0379 14.7701 30.0706 14.4188 30.369C14.1214 30.6216 14.0213 30.8093 14.0213 31.1144C14.0213 31.5579 14.3342 31.9367 14.7006 31.9367C14.8906 31.9367 14.8743 31.8884 14.5977 31.6297C14.2176 31.274 14.2053 31.2082 14.4527 30.8518C14.7068 30.4854 15.1783 30.3951 15.6961 30.6136C16.2525 30.8481 16.4513 31.3178 16.2634 31.9543C16.0989 32.5119 15.6723 32.8136 15.0493 32.8129C14.1347 32.8121 13.367 32.0694 13.367 31.1853C13.367 30.2149 14.1281 29.5584 15.2539 29.5576C16.7147 29.5566 17.6452 30.4102 18.7463 32.7616C19.8798 35.1825 20.7812 35.9958 22.3347 36C22.9509 36.0016 23.3023 35.9248 23.8237 35.6745C25.0504 35.0856 25.3968 34.6149 24.3084 35.0161C23.5813 35.2841 22.2579 35.2971 21.7761 35.041C20.9649 34.6098 20.6779 33.9984 20.334 31.9696C19.8403 29.0565 19.0893 27.9694 17.0123 27.1621C15.9877 26.7637 13.9138 26.7119 12.6564 27.0532Z" fill="url(#paint0_linear_79_12151)"/>
<defs>
<linearGradient id="paint0_linear_79_12151" x1="0" y1="0" x2="36.3717" y2="3.80961" gradientUnits="userSpaceOnUse">
<stop stop-color="#1C4EFF"/>
<stop offset="1" stop-color="#1C92FF"/>
</linearGradient>
</defs>
</svg>
