<?xml version="1.0" encoding="utf-8"?>
<!-- Generator: Adobe Illustrator 23.0.5, SVG Export Plug-In . SVG Version: 6.00 Build 0)  -->
<svg version="1.1" id="Слой_1" xmlns="http://www.w3.org/2000/svg" xmlns:xlink="http://www.w3.org/1999/xlink" x="0px" y="0px"
	 viewBox="0 0 36 36" enable-background="new 0 0 36 36" xml:space="preserve">
<g>
	<linearGradient id="SVGID_1_" gradientUnits="userSpaceOnUse" x1="7.823" y1="26.2824" x2="35.6316" y2="26.2824">
		<stop  offset="0" style="stop-color:#1C4EFF"/>
		<stop  offset="1" style="stop-color:#1C92FF"/>
	</linearGradient>
	<path fill="url(#SVGID_1_)" d="M35.6,16.9C24.9,31,8.3,32.3,7.8,32.4c2.9,2,6.4,3.2,10.2,3.2c9.7,0,17.6-7.9,17.6-17.6
		C35.6,17.6,35.6,17.3,35.6,16.9z"/>
	<linearGradient id="SVGID_2_" gradientUnits="userSpaceOnUse" x1="0.3684" y1="14.325" x2="34.7607" y2="14.325">
		<stop  offset="0" style="stop-color:#1C4EFF"/>
		<stop  offset="1" style="stop-color:#1C92FF"/>
	</linearGradient>
	<path fill="url(#SVGID_2_)" d="M7.8,16.8c0-0.6,0.5-1.1,1.1-1.1h3.3c0.6,0,1.1,0.5,1.1,1.1v9.5c0,0.2,0.2,0.3,0.4,0.3
		c0.2-0.1,0.5-0.1,0.7-0.2c0.5-0.1,0.8-0.6,0.8-1.1V13.1c0-0.6,0.5-1.1,1.1-1.1h3.1c0.6,0,1.1,0.5,1.1,1.1v11c0,0,0,0,0,0
		c0.8-0.3,1.5-0.6,2.1-0.9l0-13.9c0-0.6,0.5-1.1,1.1-1.1H27c0.6,0,1.1,0.5,1.1,1.1v10.8c0,0,0,0,0,0c7.5-5.1,6.6-7.7,6.6-7.7
		c0,0,0,0,0,0C32.2,5,24.9-0.3,16.5,0.4C8.1,1.1,1.3,7.9,0.5,16.2c-0.4,4.2,0.6,8.1,2.7,11.3c0.1,0.2,0.3,0.4,0.6,0.5
		c0.9,0.3,2.5,0.3,3.5,0c0.3-0.1,0.6-0.5,0.6-0.8C7.9,24.7,7.8,16.8,7.8,16.8z"/>
</g>
</svg>
