<svg width="36" height="25" viewBox="0 0 36 25" fill="none" xmlns="http://www.w3.org/2000/svg">
<path fill-rule="evenodd" clip-rule="evenodd" d="M14.187 0.0220292C9.19226 0.131429 5.45274 0.377505 4.08138 0.686903C3.28272 0.867056 2.59581 1.26408 1.91669 1.93809C1.20263 2.64674 0.864156 3.27245 0.625435 4.32513C-0.208478 8.00208 -0.208478 16.9988 0.625435 20.6757C0.842031 21.6309 1.19798 22.3258 1.78829 22.9459C2.7827 23.9905 3.64144 24.318 6.04958 24.571C9.31068 24.9136 16.6318 25.0885 22.1368 24.9552C28.439 24.8027 31.3143 24.5738 32.513 24.1294C33.8232 23.6436 34.935 22.3931 35.2902 21.0057C36.2353 17.3149 36.2369 7.62787 35.2931 4.06776C34.9317 2.70456 34.1156 1.67953 32.9302 1.10042C32.0211 0.656209 30.8825 0.459556 28.1743 0.279105C25.217 0.082006 17.729 -0.0556361 14.187 0.0220292ZM19.3101 9.96935C21.736 11.3525 23.6934 12.5078 23.6601 12.5366C23.6266 12.5655 21.6418 13.7042 19.2494 15.0671C16.8569 16.4301 14.7897 17.609 14.6557 17.687L14.412 17.8291V12.5004V7.17176L14.6557 7.3132C14.7897 7.39094 16.8842 8.58624 19.3101 9.96935Z" fill="url(#paint0_linear_79_8568)"/>
<defs>
<linearGradient id="paint0_linear_79_8568" x1="0" y1="0" x2="39.0561" y2="6.42624" gradientUnits="userSpaceOnUse">
<stop stop-color="#1C4EFF"/>
<stop offset="1" stop-color="#1C92FF"/>
</linearGradient>
</defs>
</svg>
