<svg width="36" height="36" viewBox="0 0 36 36" fill="none" xmlns="http://www.w3.org/2000/svg">
<path d="M14.2842 15.5901C15.0036 14.4904 16.163 13.7638 17.4606 13.5993C17.7205 13.5664 18.4227 13.5769 18.6779 13.6176C18.9224 13.6566 19.2895 13.7513 19.5101 13.8322C19.7781 13.9305 20.1969 14.1422 20.4354 14.2999C21.4997 15.0038 22.1935 16.1 22.3925 17.3926C22.4073 17.4886 22.4159 17.7146 22.4158 18.0083C22.4158 18.5241 22.398 18.6791 22.2908 19.097C22.0971 19.8528 21.7002 20.5546 21.1532 21.1087C20.4828 21.7879 19.6145 22.2319 18.66 22.3836C18.3465 22.4335 17.6096 22.4296 17.304 22.3764C16.8191 22.2921 16.4768 22.1816 16.0448 21.9699C14.8594 21.3888 13.9806 20.2828 13.6843 18.9988C13.5997 18.6326 13.5841 18.4742 13.5845 17.9905C13.5849 17.5954 13.5907 17.4932 13.6238 17.3028C13.6736 17.0163 13.7533 16.7078 13.8345 16.487C13.9264 16.2374 14.1415 15.8082 14.2842 15.5901Z" fill="url(#paint0_linear_79_8416)"/>
<path fill-rule="evenodd" clip-rule="evenodd" d="M10.6098 7.47881C11.4257 7.23729 12.2956 7.1534 14.4046 7.11285C15.4072 7.09355 21.4725 7.10685 22.175 7.12989C24.2234 7.19697 24.9065 7.2879 25.7614 7.60721C26.4486 7.86384 26.9021 8.16092 27.4212 8.69456C27.7795 9.06284 27.9833 9.35183 28.1967 9.79437C28.5976 10.6259 28.7641 11.4323 28.8295 12.8595C28.8829 14.0265 28.8905 14.6669 28.8904 17.9905C28.8902 21.7483 28.8711 22.8038 28.7843 23.8436C28.6349 25.6345 28.0767 26.8279 26.9747 27.7124C26.2349 28.3062 25.2023 28.6627 23.8879 28.7782C23.5297 28.8097 22.5678 28.8498 21.7379 28.8679C20.7055 28.8904 15.5563 28.8905 14.445 28.8681C13.6547 28.8521 12.543 28.8106 12.2724 28.787C11.2209 28.6952 10.5204 28.5287 9.83545 28.208C9.21499 27.9175 8.65082 27.4507 8.20204 26.8566C7.64068 26.1134 7.30388 25.05 7.20566 23.7104C7.13168 22.7018 7.11443 21.6153 7.11436 17.9637C7.11429 14.3216 7.13245 13.1862 7.20584 12.2438C7.32608 10.6995 7.7239 9.61757 8.47234 8.79932C9.07214 8.14356 9.72338 7.74125 10.6098 7.47881ZM26.3317 9.90645C26.1318 9.65479 25.8035 9.44297 25.4884 9.36239C25.3262 9.32092 25.0291 9.30302 24.8838 9.32602C24.3 9.41843 23.8342 9.77857 23.6211 10.3024C23.3057 11.0776 23.6429 11.9607 24.3964 12.3331C25.0426 12.6524 25.8434 12.4839 26.3104 11.9302C26.4426 11.7734 26.5832 11.5022 26.638 11.2979C26.6925 11.0952 26.6926 10.7164 26.6384 10.5126C26.5866 10.3181 26.4601 10.068 26.3317 9.90645ZM22.334 12.7296C21.3113 11.8968 20.1691 11.4054 18.8385 11.2258C18.5348 11.1848 17.6517 11.1745 17.3308 11.2082C16.4783 11.2977 15.7334 11.5127 14.9755 11.8878C14.2834 12.2304 13.7433 12.6186 13.1899 13.171C12.62 13.74 12.2382 14.2696 11.8896 14.9744C11.4087 15.9469 11.1847 16.908 11.1847 17.9994C11.1847 19.0732 11.4052 20.0341 11.8706 20.9888C12.2171 21.6996 12.6141 22.2529 13.1899 22.8277C14.278 23.914 15.6084 24.5656 17.1613 24.7727C17.4618 24.8128 18.21 24.8279 18.5388 24.8005C19.9235 24.6853 21.1862 24.1851 22.2643 23.3248C22.5664 23.0836 23.0761 22.5753 23.3093 22.2827C24.1228 21.2616 24.5966 20.1419 24.7744 18.8204C24.8209 18.475 24.8209 17.5238 24.7744 17.1784C24.5966 15.8568 24.122 14.7355 23.3091 13.7161C23.096 13.4488 22.596 12.943 22.334 12.7296Z" fill="url(#paint1_linear_79_8416)"/>
<path fill-rule="evenodd" clip-rule="evenodd" d="M7.59761 0.061487C7.93373 0.0262769 8.10512 0.0221377 9.71196 0.0101233C12.4081 -0.0100351 26.9927 0.00243626 27.5992 0.0254169C28.4114 0.056192 28.9044 0.105217 29.5173 0.216196C30.8305 0.453958 32.0509 0.994687 33.0113 1.76428C33.9911 2.54949 34.6796 3.42617 35.1892 4.53757C35.6016 5.43693 35.8115 6.25243 35.9418 7.46081C35.9871 7.88177 36.0001 10.233 36 18.0351C35.9999 25.8387 35.9874 28.1001 35.9419 28.5202C35.7879 29.9423 35.4859 30.9616 34.9159 31.9825C34.9056 32.0009 34.8952 32.0193 34.8847 32.0377C34.4108 32.8849 33.8028 33.5911 32.9984 34.2357C32.038 35.0053 30.8176 35.546 29.5044 35.7838C28.8915 35.8948 28.3985 35.9438 27.5863 35.9746C27.3673 35.9829 25.3261 35.9898 22.6802 35.9943C21.4702 35.9978 20.1479 35.9994 19.0429 35.9987C15.0987 36.0018 11.0048 35.9996 9.69906 35.9899C8.09222 35.9779 7.92082 35.9737 7.5847 35.9385C6.12573 35.7857 5.27629 35.5553 4.2447 35.0326C3.50025 34.6553 2.94264 34.2537 2.36526 33.6791C0.914855 32.2357 0.168373 30.4302 0.0371934 28.0484C0.0204156 27.7438 0.00817899 27.1313 0 26.0917H0.0206809C0.0142519 24.5633 0.00783303 22.089 0.00386949 19.4004C-0.00729896 11.8153 0.00499473 8.77043 0.0501018 7.9516C0.181278 5.56981 0.92776 3.76432 2.37817 2.3209C2.95554 1.74627 3.51316 1.34472 4.25761 0.967433C5.2892 0.444658 6.13863 0.214261 7.59761 0.061487ZM30.7938 26.0917H30.7835C30.5527 26.8639 30.2227 27.5615 29.802 28.162C29.3996 28.7365 28.7407 29.3997 28.1752 29.7995C27.0996 30.5598 25.7617 31.0119 24.1427 31.1619C23.7613 31.1972 22.8978 31.2376 22.0551 31.2597C20.4499 31.3016 14.3687 31.2914 13.3033 31.245C12.1265 31.1937 11.7572 31.1662 11.2272 31.0901C10.2778 30.954 9.38109 30.6796 8.62157 30.2956C8.29907 30.1297 7.99503 29.9409 7.70762 29.7286C7.16726 29.3295 6.53872 28.6799 6.14982 28.1186C5.54271 27.2424 5.11099 26.093 4.92301 24.8526C4.84467 24.3357 4.80991 23.8861 4.7602 22.7467C4.72628 21.9694 4.70371 18.9664 4.715 16.7323C4.73335 13.1019 4.77968 11.9986 4.95786 10.9499C5.15686 9.77865 5.58496 8.69214 6.18342 7.83954C6.69236 7.11446 7.45449 6.39827 8.19803 5.94637C9.03924 5.43513 10.1017 5.07311 11.2401 4.90985C11.7701 4.83384 12.1394 4.80629 13.3162 4.75504C14.3816 4.70859 20.4628 4.69841 22.068 4.74033C22.9107 4.76235 23.7742 4.80283 24.1556 4.83814C25.7746 4.98815 27.1125 5.44015 28.1881 6.2005C28.7536 6.60031 29.4125 7.26352 29.8149 7.83798C30.4667 8.76842 30.9007 9.93164 31.0857 11.2444C31.1646 11.8037 31.1901 12.1435 31.2396 13.2967C31.2739 14.0948 31.2938 17.9644 31.2751 20.1845C31.2582 22.185 31.25 22.5615 31.2034 23.4873C31.1504 24.5387 31.0298 25.3141 30.7938 26.0917Z" fill="url(#paint2_linear_79_8416)"/>
<defs>
<linearGradient id="paint0_linear_79_8416" x1="0" y1="0" x2="39.5965" y2="4.52442" gradientUnits="userSpaceOnUse">
<stop stop-color="#1C4EFF"/>
<stop offset="1" stop-color="#1C92FF"/>
</linearGradient>
<linearGradient id="paint1_linear_79_8416" x1="0" y1="0" x2="39.5965" y2="4.52442" gradientUnits="userSpaceOnUse">
<stop stop-color="#1C4EFF"/>
<stop offset="1" stop-color="#1C92FF"/>
</linearGradient>
<linearGradient id="paint2_linear_79_8416" x1="0" y1="0" x2="39.5965" y2="4.52442" gradientUnits="userSpaceOnUse">
<stop stop-color="#1C4EFF"/>
<stop offset="1" stop-color="#1C92FF"/>
</linearGradient>
</defs>
</svg>
