<svg width="36" height="36" viewBox="0 0 36 36" fill="none" xmlns="http://www.w3.org/2000/svg">
<path fill-rule="evenodd" clip-rule="evenodd" d="M3.25484 0.139935C1.73881 0.547403 0.526816 1.77165 0.12923 3.29722C-0.236382 4.70022 0.189579 6.29322 1.20709 7.32765C2.09529 8.23073 2.91445 8.60738 4.13207 8.6727C5.41882 8.7418 6.43308 8.33925 7.37478 7.38577C9.15786 5.5803 9.09066 2.84647 7.22123 1.13881C6.13529 0.146871 4.6348 -0.231009 3.25484 0.139935ZM26.1726 11.4301C23.7596 11.6111 21.2791 13.0244 20.2232 14.8197L19.9795 15.234L19.9556 13.5878L19.9317 11.9416H16.332H12.7323V23.9698V35.9981H16.4657H20.1991L20.2 29.8742C20.2009 23.5722 20.2559 22.1802 20.5484 21.0369C21.0163 19.208 22.1079 18.2169 23.9069 17.987C25.7357 17.7534 27.1789 18.3694 27.8408 19.6662C28.4441 20.848 28.5362 22.2483 28.541 30.3142L28.5444 36L32.2558 35.9771L35.9673 35.9542L35.9933 28.8426C36.0214 21.1751 35.9734 19.8203 35.6099 18.0128C35.1978 15.9643 34.5709 14.6985 33.3838 13.5176C32.5739 12.712 31.8734 12.2828 30.7392 11.8972C29.5524 11.4938 27.7627 11.3107 26.1726 11.4301ZM0.609654 23.9698V35.9981H4.34307H8.07648V23.9698V11.9416H4.34307H0.609654V23.9698Z" fill="url(#paint0_linear_79_8511)"/>
<defs>
<linearGradient id="paint0_linear_79_8511" x1="0" y1="0" x2="39.5965" y2="4.52442" gradientUnits="userSpaceOnUse">
<stop stop-color="#1C4EFF"/>
<stop offset="1" stop-color="#1C92FF"/>
</linearGradient>
</defs>
</svg>
