<svg width="36" height="36" viewBox="0 0 36 36" fill="none" xmlns="http://www.w3.org/2000/svg">
<path fill-rule="evenodd" clip-rule="evenodd" d="M16.8602 0.11539C15.695 0.397975 14.4864 1.39029 13.9648 2.49279C13.5785 3.30947 13.5493 3.53102 13.5176 5.89499L13.4881 8.09225H15.8044H18.1206L18.2342 7.63163C18.454 6.74106 18.952 5.97135 19.6525 5.43937C21.1008 4.33954 22.9821 4.29053 24.4086 5.31541C24.5966 5.45048 24.762 5.56101 24.7761 5.56101C24.7903 5.56101 25.008 5.42277 25.2598 5.25388C25.8521 4.85676 26.4709 4.6461 27.1905 4.59674C28.3866 4.51476 29.3686 4.89072 30.2405 5.7647C31.7904 7.31811 31.8204 9.41475 30.3297 11.9946C29.4493 13.5182 27.8527 15.443 26.2618 16.8985C25.3454 17.7371 25.1523 17.865 24.8029 17.8654L24.5392 17.8657V21.8735V25.8813H24.7456C24.859 25.8813 25.041 25.8481 25.1499 25.8076C25.2587 25.7671 26.0755 25.01 26.965 24.125L28.5821 22.516L30.4454 22.4867C31.9005 22.4637 32.3985 22.4317 32.7185 22.3406C33.9542 21.9888 34.9389 21.1871 35.5376 20.0453C36.0217 19.122 36.0001 19.5323 36.0001 11.2434C36.0001 4.79193 35.9855 3.70476 35.8936 3.34336C35.4988 1.7903 34.2161 0.507662 32.6631 0.112859C32.0649 -0.0392268 17.4883 -0.0368362 16.8602 0.11539ZM21.4433 6.72369C20.8142 6.91761 20.1824 7.69126 20.1805 8.26993C20.1799 8.46561 20.2181 8.4995 20.6529 8.68892C22.1862 9.35689 23.5555 10.8388 24.1225 12.4439C24.3792 13.1705 24.4651 13.6232 24.5242 14.5596C24.5985 15.737 24.6118 15.7372 25.7346 14.5795C28.1002 12.1401 29.3907 10.0187 29.3907 8.56925C29.3907 7.44981 28.5636 6.61569 27.4535 6.61569C26.7319 6.61569 26.1899 6.92296 25.7512 7.58066C25.4029 8.1028 25.1853 8.25629 24.7935 8.25629C24.405 8.25629 24.1749 8.1113 23.884 7.68317C23.2366 6.73037 22.4388 6.41678 21.4433 6.72369ZM3.49296 10.2446C1.84611 10.6017 0.526065 11.865 0.111082 13.4813C0.0134886 13.8615 0.000199566 14.8107 0.000199566 21.3942C0.000199566 29.688 -0.0243394 29.2269 0.4708 30.2406C0.826439 30.9688 1.655 31.7952 2.39082 32.1559C3.25031 32.5772 3.59991 32.629 5.58813 32.6302L7.34404 32.6312L8.99827 34.2787C10.0781 35.3541 10.721 35.9429 10.8497 35.9747C10.9582 36.0015 11.2067 36.0081 11.402 35.9893L11.7572 35.9551L13.4202 34.2932L15.0832 32.6312H16.8469C18.373 32.6312 18.6836 32.6125 19.1535 32.4924C19.9484 32.289 20.4834 31.9756 21.1366 31.3307C21.588 30.885 21.7678 30.6434 22.0011 30.1695C22.5186 29.1177 22.5079 29.3207 22.4847 21.0897L22.4642 13.8227L22.3002 13.3305C21.8138 11.8713 20.7678 10.8154 19.3132 10.3157C18.8824 10.1676 18.8212 10.1664 11.4259 10.1535C5.07527 10.1425 3.90183 10.156 3.49296 10.2446ZM12.4526 14.9419C13.4092 15.272 14.1389 15.9266 14.6183 16.8844C14.9688 17.5847 15.0742 18.0892 15.0288 18.85C14.9887 19.5233 14.8319 19.9973 14.4385 20.6346C14.1984 21.0236 14.188 21.0618 14.3034 21.1308C16.4882 22.4367 17.7279 24.3494 17.8379 26.5844C17.872 27.277 17.864 27.3379 17.7073 27.5688C17.354 28.0893 17.7319 28.0607 11.215 28.0607C4.69812 28.0607 5.07604 28.0893 4.72265 27.5688C4.56663 27.3388 4.55812 27.2765 4.59328 26.6195C4.71035 24.4346 5.92317 22.4742 7.88994 21.2909L8.29135 21.0493L8.11023 20.811C7.06862 19.4407 7.19125 17.3895 8.39851 15.9889C8.69621 15.6436 9.45917 15.1245 9.92464 14.9507C10.6792 14.6688 11.6518 14.6655 12.4526 14.9419ZM10.4416 16.9401C9.59452 17.3409 9.19318 18.3975 9.56225 19.2552C10.0013 20.2759 11.1762 20.6669 12.1436 20.1145C13.2721 19.47 13.3057 17.7409 12.2032 17.0589C11.9061 16.8752 11.7814 16.8435 11.2909 16.8266C10.8496 16.8113 10.6601 16.8367 10.4416 16.9401ZM10.4064 22.4843C9.23909 22.6776 7.98964 23.5021 7.35107 24.5003C7.0964 24.8985 6.75018 25.7153 6.75018 25.918C6.75018 26.0085 7.3285 26.0219 11.2549 26.0219H15.7596L15.7108 25.8637C15.1834 24.1559 13.9213 22.9267 12.3038 22.5455C11.8854 22.4469 10.8363 22.413 10.4064 22.4843Z" fill="url(#paint0_linear_79_11961)"/>
<defs>
<linearGradient id="paint0_linear_79_11961" x1="0" y1="0" x2="39.5968" y2="4.52447" gradientUnits="userSpaceOnUse">
<stop stop-color="#1C4EFF"/>
<stop offset="1" stop-color="#1C92FF"/>
</linearGradient>
</defs>
</svg>
