<svg width="36" height="36" viewBox="0 0 36 36" fill="none" xmlns="http://www.w3.org/2000/svg">
<path fill-rule="evenodd" clip-rule="evenodd" d="M14.2967 0.294798C10.8051 1.04788 7.84054 2.67002 5.2554 5.24196C2.9427 7.54269 1.23184 10.5311 0.432805 13.666C0.20192 14.5711 0.0830276 15.6768 0.0279939 17.4306C-0.0387526 19.5545 7.58956e-05 20.1567 0.296424 21.5944C1.0024 25.018 2.6133 28.0216 5.11372 30.5769C7.50055 33.016 10.3339 34.6667 13.6175 35.5313C15.5178 36.0317 19.2256 36.1557 21.2027 35.7849C24.9599 35.0803 28.1007 33.4303 30.8042 30.7406C33.1397 28.4171 34.7501 25.5959 35.6231 22.2983C35.9519 21.0565 36 20.5067 36 17.9913C36 15.4693 35.9523 14.9269 35.6196 13.666C33.8989 7.14605 28.9342 2.16668 22.4421 0.449707C20.4445 -0.0786182 16.386 -0.155832 14.2967 0.294798ZM22.1403 1.94353C27.3528 3.29302 31.6032 7.06451 33.528 12.0477C34.2006 13.7887 34.4671 15.0908 34.5834 17.2028C34.998 24.7278 30.2221 31.5586 22.9552 33.834C20.8803 34.4838 20.9379 34.5134 21.0371 32.8494C21.2421 29.4094 22.9674 26.5437 27.8122 21.5957C30.8945 18.4477 31.4272 17.6512 31.4272 16.1897C31.4272 15.7181 31.3249 15.1376 31.1997 14.8995C30.6192 13.7954 28.8251 12.6247 26.8461 12.0588C26.3211 11.9087 25.2023 11.5333 24.3598 11.2246C23.004 10.7279 22.7881 10.5943 22.4824 10.064C21.9054 9.06327 21.2986 8.87472 18.4309 8.80615C14.5348 8.71292 14.1835 8.74095 12.5924 9.27072C10.761 9.88058 9.24975 10.765 8.29172 11.7879C6.88956 13.2844 6.49117 14.4969 6.15054 18.305C6.01624 19.8065 5.79402 21.7198 5.65652 22.5569C5.37637 24.2636 4.47722 27.1321 4.23126 27.1043C3.97919 27.0757 2.75481 24.6843 2.3131 23.3578C-0.606097 14.5911 4.02813 5.20528 12.7129 2.29452C15.6642 1.30531 19.1709 1.17475 22.1403 1.94353ZM17.1966 11.1434C17.4597 11.2974 17.8958 11.6962 18.166 12.0299C19.065 13.1406 18.9026 15.2441 17.8462 16.1697C16.7692 17.1137 15.1207 17.2584 13.9653 16.5104C13.205 16.0182 12.4937 14.8012 12.4953 13.9951C12.4977 12.6073 13.4691 11.2275 14.6796 10.8919C15.4711 10.6724 16.5811 10.7833 17.1966 11.1434ZM14.9575 11.6767C14.305 11.8677 13.5015 12.7856 13.3688 13.4919C13.1478 14.6677 14.0772 15.9892 15.2837 16.2152C16.0807 16.3643 17.1947 15.8615 17.6239 15.1587C18.0455 14.4679 18.0507 13.353 17.6351 12.6726C17.1236 11.835 15.9319 11.3917 14.9575 11.6767ZM27.7369 16.7898C28.0836 17.4365 27.3177 18.0693 26.8063 17.5588C26.4033 17.1564 26.7033 16.4694 27.282 16.4694C27.4377 16.4694 27.6424 16.6136 27.7369 16.7898ZM29.3414 19.4331C29.3414 19.4771 29.3053 19.5131 29.2612 19.5131C29.2171 19.5131 29.181 19.4771 29.181 19.4331C29.181 19.389 29.2171 19.353 29.2612 19.353C29.3053 19.353 29.3414 19.389 29.3414 19.4331ZM29.0205 19.5838C29.0205 19.6227 28.9371 19.7059 28.8352 19.7687C28.7205 19.8396 28.6935 19.8127 28.7646 19.6982C28.8788 19.5135 29.0205 19.4502 29.0205 19.5838ZM27.9776 20.1861C26.0076 21.225 22.7168 22.0241 21.1706 21.8389C20.3627 21.7423 18.5914 21.0919 18.5914 20.8918C18.5914 20.8474 18.8622 20.9336 19.1931 21.0832C19.6738 21.3008 20.2461 21.3524 22.041 21.3399C23.9879 21.3266 24.4763 21.2673 25.7052 20.896C26.4851 20.6605 27.3876 20.3281 27.7108 20.1576C28.0341 19.9872 28.3707 19.8476 28.4589 19.8476C28.5472 19.8476 28.3306 20 27.9776 20.1861Z" fill="url(#paint0_linear_79_12208)"/>
<defs>
<linearGradient id="paint0_linear_79_12208" x1="0" y1="0" x2="39.5965" y2="4.52442" gradientUnits="userSpaceOnUse">
<stop stop-color="#1C4EFF"/>
<stop offset="1" stop-color="#1C92FF"/>
</linearGradient>
</defs>
</svg>
