<svg width="36" height="36" viewBox="0 0 36 36" fill="none" xmlns="http://www.w3.org/2000/svg">
<path fill-rule="evenodd" clip-rule="evenodd" d="M10.7111 0.116062C10.0256 0.354369 9.40092 0.972504 9.1331 1.67751C9.00162 2.02378 8.99648 2.2144 9.0154 6.09498L9.03516 10.1506L9.27352 10.5903C9.56313 11.1245 10.0013 11.5421 10.5346 11.7923C10.9326 11.9789 10.9389 11.9794 13.0549 12.0145L15.1762 12.0497L16.1838 13.382C16.738 14.1148 17.28 14.7789 17.3884 14.8579C17.6453 15.0454 18.3113 15.0575 18.5825 14.8796C18.6849 14.8125 19.3087 14.1423 19.9688 13.3902L21.169 12.0226L23.1177 12.001C25.0598 11.9794 25.0677 11.9787 25.4654 11.7923C25.9987 11.5421 26.4369 11.1245 26.7265 10.5903L26.9648 10.1506V6.00059V1.85061L26.7737 1.46143C26.5298 0.964556 26.0224 0.456993 25.5258 0.212988L25.1367 0.021808L18.1055 0.00584119C11.5005 -0.00921127 11.0522 -0.0025291 10.7111 0.116062ZM1.84823 1.56581C1.15249 1.7833 0.597164 2.26062 0.230977 2.95591L0.0351562 3.32772V7.4777C0.0351562 11.6017 0.0361406 11.6298 0.189422 11.9619C0.403383 12.4253 0.998156 13.0316 1.46102 13.2581C1.76386 13.4064 1.98893 13.4559 2.50045 13.4871L3.15337 13.5268L4.16067 14.8591C4.71466 15.5919 5.25136 16.2522 5.35331 16.3264C5.4552 16.4006 5.6809 16.4774 5.85471 16.497C6.45778 16.565 6.56198 16.4867 7.91037 14.9527C9.05632 13.649 9.14527 13.5287 9.0251 13.4456C7.96352 12.7108 7.19191 11.6042 6.91355 10.4169C6.79732 9.92112 6.78516 9.49937 6.78544 5.96542C6.78565 3.26667 6.81047 1.96934 6.86588 1.76269L6.94596 1.46375L4.54528 1.46846C2.76771 1.47191 2.06761 1.49723 1.84823 1.56581ZM29.1334 1.75938C29.1897 1.96991 29.2144 3.24613 29.2146 5.96542C29.2149 10.3866 29.2073 10.4647 28.67 11.5424C28.446 11.9916 28.2479 12.2541 27.7789 12.7229C27.4472 13.0545 27.1005 13.3723 27.0086 13.4292L26.8414 13.5326L28.0882 14.951C29.4381 16.4868 29.5421 16.565 30.1453 16.497C30.3191 16.4774 30.5448 16.4006 30.6467 16.3264C30.7486 16.2522 31.2853 15.5919 31.8393 14.8591L32.8466 13.5268L33.4995 13.4871C34.0111 13.4559 34.2361 13.4064 34.539 13.2581C35.0018 13.0316 35.5966 12.4253 35.8106 11.9619C35.9639 11.6298 35.9648 11.6017 35.9648 7.4777V3.32772L35.7265 2.88796C35.4369 2.35374 34.9987 1.93614 34.4654 1.68602L34.0664 1.49892L31.5595 1.47803L29.0526 1.45721L29.1334 1.75938ZM16.9611 17.322C15.3637 17.6857 14.0169 19.0131 13.6065 20.6282C13.4689 21.17 13.4686 22.3414 13.6061 22.8847C13.9119 24.0933 14.8449 25.2427 15.9618 25.787C17.3133 26.4455 18.6867 26.4455 20.0382 25.787C21.1692 25.2359 22.0924 24.0886 22.4023 22.849C22.5738 22.1627 22.5097 20.8598 22.2732 20.2271C22.021 19.5524 21.6866 19.0294 21.1887 18.5313C20.335 17.6773 19.4181 17.2863 18.1758 17.2464C17.6723 17.2302 17.2483 17.2567 16.9611 17.322ZM5.24658 19.5486C4.78891 19.6561 4.17129 20.0305 3.79498 20.4286C2.37748 21.9279 2.85954 24.3654 4.74834 25.2496C5.10504 25.4166 5.33974 25.4733 5.78967 25.5014C7.07801 25.5818 8.14177 24.9772 8.70005 23.8471C8.96006 23.3209 8.96484 23.2964 8.96484 22.4986C8.96484 21.7337 8.95191 21.6588 8.7442 21.2202C8.3577 20.4041 7.74752 19.8702 6.90377 19.6094C6.42649 19.4619 5.72527 19.4362 5.24658 19.5486ZM29.0289 19.6288C28.1875 19.9239 27.6349 20.4199 27.2558 21.2202C27.0481 21.6588 27.0352 21.7337 27.0352 22.4989C27.0352 23.2968 27.0399 23.3213 27.3 23.8473C27.8584 24.9772 28.9221 25.5818 30.2103 25.5014C32.8084 25.3392 33.987 22.1083 32.0994 20.3224C31.5198 19.7741 30.9362 19.5271 30.1389 19.4927C29.5994 19.4694 29.421 19.4913 29.0289 19.6288ZM3.04411 27.1046C1.63828 27.4834 0.541687 28.5729 0.113344 30.0164C0.0341719 30.2834 0 30.6775 0 31.3249C0 32.1698 0.0139219 32.2717 0.158203 32.4838C0.24518 32.6116 0.405703 32.7825 0.514828 32.8635C0.70882 33.0073 0.78975 33.011 4.10766 33.0307L7.50199 33.0508L7.54734 32.3582C7.65991 30.6396 8.39447 29.0883 9.6191 27.9826L10.0825 27.5643L9.67563 27.378C8.87773 27.0126 8.73492 26.9981 5.97656 27.0021C4.00535 27.005 3.32529 27.0288 3.04411 27.1046ZM27.0632 27.0985C26.8853 27.1476 26.5548 27.2725 26.3287 27.376L25.9175 27.5643L26.3809 27.9826C27.6055 29.0883 28.3401 30.6396 28.4527 32.3582L28.498 33.0508L31.8923 33.0307C35.2103 33.011 35.2912 33.0073 35.4852 32.8635C35.9337 32.5309 36 32.3375 36 31.362C36 29.8886 35.6962 29.0818 34.8059 28.1912C34.2352 27.6203 33.6822 27.2981 32.9418 27.1052C32.3914 26.9618 27.5786 26.9563 27.0632 27.0985ZM12.8824 28.5757C11.7674 28.8458 10.6744 29.7168 10.174 30.7341C9.76465 31.5663 9.69209 32.0522 9.71691 33.793C9.74067 35.452 9.75136 35.4921 10.2649 35.8417L10.4974 36H18H25.5026L25.7351 35.8417C25.8629 35.7547 26.0337 35.5939 26.1146 35.4846C26.2547 35.2951 26.2616 35.2029 26.2592 33.5502C26.2568 31.9232 26.2465 31.7863 26.0951 31.3577C25.6979 30.2331 24.9567 29.3807 23.9639 28.9066C23.6422 28.7529 23.2112 28.5926 23.0063 28.5504C22.4404 28.434 13.3741 28.4566 12.8824 28.5757Z" fill="url(#paint0_linear_79_12074)"/>
<defs>
<linearGradient id="paint0_linear_79_12074" x1="0" y1="0" x2="39.5965" y2="4.52442" gradientUnits="userSpaceOnUse">
<stop stop-color="#1C4EFF"/>
<stop offset="1" stop-color="#1C92FF"/>
</linearGradient>
</defs>
</svg>
