<svg width="32" height="36" viewBox="0 0 32 36" fill="none" xmlns="http://www.w3.org/2000/svg">
<path fill-rule="evenodd" clip-rule="evenodd" d="M15.0494 0.126456C12.6976 0.948973 10.9191 4.68433 10.2219 10.2656C10.0622 11.544 9.91185 14.0598 9.97483 14.3995C9.99895 14.5294 10.669 15.8119 11.4639 17.2495C13.2866 20.5457 13.1162 20.2134 12.9177 20.086C12.8289 20.0291 10.4726 18.6317 7.68156 16.9809C4.89047 15.3301 2.57676 13.9502 2.53999 13.9146C2.42737 13.8056 3.21332 13.1216 3.76619 12.8476C4.59037 12.4391 5.04508 12.3425 6.11744 12.3482C6.84409 12.3521 7.1606 12.3849 7.51979 12.4937L7.98367 12.6344L8.02886 12.03C8.23936 9.21225 8.7658 6.40692 9.46715 4.36567C9.80584 3.3801 10.5006 1.88863 10.944 1.19528C11.1228 0.915785 11.2534 0.671308 11.2343 0.651972C11.1837 0.600855 10.2959 0.884145 9.49114 1.20829C6.86147 2.26726 4.49646 4.04259 2.8168 6.21827C1.05449 8.50104 0 11.472 0 14.1548C0 14.7179 0.128327 15.0097 0.486614 15.2616C0.582199 15.3287 2.96668 16.7476 5.7855 18.4145L10.9106 21.4453H15.9607H21.0108L26.3593 18.2348C32.6201 14.4768 32.0231 14.9745 31.9542 13.571C31.8381 11.2077 31.1092 9.01797 29.7625 6.98636C28.2187 4.65747 25.8635 2.68232 23.2349 1.51225C22.4075 1.14395 20.9343 0.619207 20.8085 0.648035C20.7537 0.660551 20.8395 0.850113 21.0403 1.16012C22.1404 2.85873 23.1204 5.74612 23.5936 8.68357C23.7468 9.63412 23.9541 11.4805 24.0002 12.3047C24.0136 12.5438 24.0433 12.6153 24.1222 12.5976C24.1795 12.5846 24.4141 12.522 24.6435 12.4583C24.9298 12.3788 25.3441 12.3421 25.9644 12.3412C26.7198 12.34 26.9536 12.3668 27.3894 12.5045C28.1246 12.7367 28.7698 13.0967 29.1448 13.4842L29.4664 13.8164L24.2396 16.9537C21.3648 18.6791 19.0042 20.0838 18.9939 20.0752C18.9835 20.0666 19.6544 18.8446 20.4846 17.3599L21.9941 14.6601L22.0225 13.9989C22.079 12.6793 21.8052 9.87304 21.4449 8.07951C20.5555 3.65228 18.9747 0.827543 17.0032 0.142628C16.4753 -0.0408173 15.5495 -0.0484813 15.0494 0.126456ZM17.4834 12.5154C17.751 12.6005 18.1821 12.7822 18.4414 12.9191C18.9121 13.1678 19.6302 13.815 19.707 14.0597C19.7346 14.1476 19.1503 15.2625 17.8856 17.535C16.8615 19.3752 16.0079 20.8805 15.9888 20.88C15.9696 20.8795 15.1207 19.369 14.1022 17.5235C12.6073 14.8148 12.2634 14.1431 12.3179 14.0387C12.5661 13.5635 13.3894 12.9234 14.1017 12.6519C15.1053 12.2693 16.5285 12.2119 17.4834 12.5154ZM7.47301 23.5836C7.21733 23.6985 6.98542 23.9462 6.88678 24.2096C6.83658 24.3436 6.8126 26.1513 6.8126 29.8006C6.8126 34.9144 6.81927 35.2063 6.94135 35.4386C7.01211 35.5733 7.17318 35.7548 7.29915 35.8418L7.52834 36H15.9888H24.4492L24.6784 35.8418C24.8043 35.7548 24.9658 35.5729 25.0371 35.4375C25.161 35.2025 25.166 34.944 25.1485 29.6946C25.1304 24.2671 25.1283 24.1953 24.9868 24.0036C24.908 23.8968 24.7571 23.7442 24.6516 23.6645C24.4666 23.5247 24.3623 23.5188 21.7536 23.4996L19.0475 23.4797V26.6144C19.0475 30.0601 19.0545 29.9992 18.6205 30.3118C18.4711 30.4194 18.295 30.4722 18.0749 30.4755C17.7803 30.48 17.6679 30.4254 16.8694 29.8905L15.9888 29.3006L15.1257 29.8789C14.1555 30.5289 13.889 30.6119 13.4862 30.3896C13.3524 30.3157 13.1725 30.1509 13.0865 30.0235L12.93 29.7917V26.638V23.4844L10.3058 23.4871C8.27432 23.4892 7.63442 23.511 7.47301 23.5836ZM14.946 25.5315V27.5787L15.1372 27.4535C15.2423 27.3847 15.4814 27.2249 15.6684 27.0984L16.0084 26.8684L16.5199 27.2176L17.0315 27.5668V25.5255V23.4844H15.9888H14.946V25.5315Z" fill="url(#paint0_linear_79_11942)"/>
<defs>
<linearGradient id="paint0_linear_79_11942" x1="0" y1="0" x2="35.2923" y2="3.58454" gradientUnits="userSpaceOnUse">
<stop stop-color="#1C4EFF"/>
<stop offset="1" stop-color="#1C92FF"/>
</linearGradient>
</defs>
</svg>
