<svg width="36" height="32" viewBox="0 0 36 32" fill="none" xmlns="http://www.w3.org/2000/svg">
<path fill-rule="evenodd" clip-rule="evenodd" d="M9.31509 0.120537C8.98232 0.332025 0.219354 8.81767 0.102266 9.04175C-0.020448 9.27669 -0.0362004 9.86627 0.0739256 10.1055C0.18799 10.3532 9.03457 18.8624 9.36762 19.0446C10.0265 19.4053 10.8308 19.0604 11.031 18.3313C11.077 18.1641 11.1077 17.3238 11.1079 16.2262L11.1083 14.3994H16.2667H21.425L21.6575 14.2428C21.7853 14.1567 21.9562 13.9979 22.0371 13.8898C22.1818 13.6966 22.1845 13.6282 22.2034 9.67615L22.2227 5.65891L22.0591 5.35277C21.9467 5.14254 21.7996 4.99647 21.5893 4.88644L21.283 4.72617H16.1997H11.1163L11.0948 2.76021C11.0708 0.584643 11.0573 0.51359 10.6026 0.19319C10.2865 -0.0295024 9.61108 -0.0676386 9.31509 0.120537ZM25.63 12.8974C25.3279 13.0309 25.0575 13.3464 24.9689 13.6687C24.9229 13.8359 24.8923 14.6762 24.8921 15.7738L24.8917 17.6006H19.7333H14.575L14.3425 17.7572C14.2146 17.8433 14.0438 18.0021 13.9629 18.1102C13.8182 18.3034 13.8155 18.3718 13.7966 22.3238L13.7773 26.3411L13.9409 26.6472C14.0532 26.8575 14.2004 27.0035 14.4107 27.1136L14.717 27.2738H19.8003H24.8836L24.9052 29.2398C24.9291 31.4154 24.9427 31.4864 25.3974 31.8068C25.7134 32.0294 26.3888 32.0676 26.6849 31.8796C27.0188 31.6676 35.7792 23.185 35.8969 22.9598C36.0202 22.7238 36.0365 22.1344 35.9263 21.8952C35.8126 21.648 26.9646 13.1374 26.6322 12.9554C26.3114 12.7797 25.9446 12.7585 25.63 12.8974Z" fill="url(#paint0_linear_79_11980)"/>
<defs>
<linearGradient id="paint0_linear_79_11980" x1="0" y1="0" x2="39.4614" y2="5.0726" gradientUnits="userSpaceOnUse">
<stop stop-color="#1C4EFF"/>
<stop offset="1" stop-color="#1C92FF"/>
</linearGradient>
</defs>
</svg>
