<svg width="36" height="36" viewBox="0 0 36 36" fill="none" xmlns="http://www.w3.org/2000/svg">
<path fill-rule="evenodd" clip-rule="evenodd" d="M14.3134 0.301739C8.5093 1.52351 3.43352 5.70521 1.24603 11.0672C0.142334 13.7726 0 14.5649 0 17.999C0 20.7039 0.0456636 21.2689 0.353002 22.3569C1.24895 25.5296 2.69253 28.1215 4.80861 30.3574C7.50486 33.2063 10.8854 35.0593 14.6778 35.7674C16.3547 36.0804 19.5779 36.0769 21.2745 35.7603C23.8505 35.2793 26.4951 34.1247 28.6486 32.541C30.4873 31.1889 30.7491 30.8728 30.7491 30.0058C30.7491 29.397 30.6691 29.2182 30.2202 28.8234C29.3939 28.0967 28.6504 28.1705 27.5643 29.0867C23.2672 32.7116 17.4262 33.6151 12.1956 31.464C10.8328 30.9036 8.75689 29.5341 7.80864 28.5697L7.05228 27.8006L10.8043 21.8748L14.5563 15.9491L14.6373 19.4842C14.7132 22.8019 14.7421 23.0668 15.1048 23.792C15.8224 25.2268 17.2877 25.5996 18.7132 24.7098C19.5199 24.2062 19.9587 23.5943 22.9866 18.753L24.7578 15.9212L24.8575 18.2748C24.9709 20.9442 25.184 21.7873 26.0629 23.0434C27.126 24.5627 28.7493 25.2893 30.7306 25.1328C33.1553 24.9412 35.2828 22.9022 35.8701 20.2066C36.1452 18.9439 35.9585 15.1866 35.5439 13.6432C33.6887 6.73701 28.1338 1.51841 21.2745 0.23767C19.4456 -0.103713 16.0932 -0.0729533 14.3134 0.301739ZM21.6036 3.79637C27.9102 5.46487 32.2845 10.8604 32.569 17.3219C32.6689 19.5921 32.4605 20.3858 31.5602 21.1638C30.4876 22.0908 29.2087 21.9177 28.6347 20.7678C28.3715 20.2407 28.3142 19.6614 28.2423 16.8036C28.162 13.6045 28.1404 13.4257 27.7534 12.7538C27.2458 11.8719 26.6943 11.4654 25.8556 11.3548C24.1376 11.128 23.1898 12.0265 20.2913 16.6307L18.1187 20.0818L18.0373 15.9725C17.9712 12.647 17.9056 11.7565 17.6937 11.3052C16.901 9.61692 15.1781 9.41516 13.8921 10.8599C13.634 11.15 11.5283 14.3802 9.21272 18.0383C6.89715 21.6965 4.95483 24.6902 4.89653 24.6911C4.70643 24.694 3.76628 21.9365 3.51124 20.6287C3.14901 18.7708 3.30203 15.8187 3.85647 13.9687C5.4683 8.58911 9.85865 4.58241 15.2419 3.57786C16.9391 3.26118 19.9751 3.36558 21.6036 3.79637Z" fill="url(#paint0_linear_79_12093)"/>
<defs>
<linearGradient id="paint0_linear_79_12093" x1="0" y1="0" x2="39.5965" y2="4.52442" gradientUnits="userSpaceOnUse">
<stop stop-color="#1C4EFF"/>
<stop offset="1" stop-color="#1C92FF"/>
</linearGradient>
</defs>
</svg>
