<svg width="30" height="36" viewBox="0 0 30 36" fill="none" xmlns="http://www.w3.org/2000/svg">
<path d="M0.00160582 15.3451V0.275986C0.00160582 0.0108265 0.00160204 0.0108266 0.27043 0.0108266C3.36687 0.0108266 6.46825 -0.0177622 9.5661 0.0179736C12.7238 0.0544242 15.6886 0.832037 18.3896 2.5495C19.5043 3.2585 20.4747 4.1376 21.3938 5.08746C22.7774 6.5169 24.1926 7.91417 25.574 9.34575C27.3481 11.1854 28.6704 13.3096 29.3693 15.8025C29.9048 17.7029 30.073 19.6427 29.9724 21.6124C29.8976 23.2964 29.5591 24.9575 28.9695 26.5333C27.73 29.8133 25.5928 32.2967 22.5578 33.9835C20.9737 34.8683 19.2777 35.4251 17.4965 35.7281C16.3755 35.9142 15.2411 36.0051 14.1052 35.9997C11.2288 35.9997 8.35262 35.9997 5.47668 35.9997C5.41088 36.0022 5.34533 35.9901 5.28457 35.9643C5.22382 35.9385 5.16931 35.8996 5.12481 35.8503C3.45743 34.1455 1.78698 32.4435 0.113498 30.7444C0.0732509 30.7026 0.0424091 30.6525 0.0230908 30.5975C0.00377246 30.5424 -0.00355975 30.4838 0.00160582 30.4256C0.00207498 25.4007 0.00207498 20.3738 0.00160582 15.3451ZM10.0221 26.0344C10.1159 26.0394 10.2098 26.0394 10.3036 26.0344C10.6555 25.9951 11.0017 25.9586 11.3494 25.9065C12.7407 25.6985 14.0637 25.2789 15.2847 24.5614C17.9251 23.009 19.4198 20.6533 19.9547 17.6357C20.1396 16.5745 20.1869 15.4932 20.0954 14.4195C20.016 13.3272 19.7803 12.2524 19.3959 11.229C19.3661 11.1468 19.3111 11.0764 19.239 11.0282C18.8874 10.8155 18.525 10.622 18.1531 10.4486C17.0743 9.98041 15.9272 9.85319 14.7695 9.8389C13.2642 9.8196 11.7589 9.83247 10.2537 9.83175C10.0158 9.83175 10.0158 9.83175 10.0158 10.074V26.0344H10.0221ZM4.98477 14.8383L4.94254 14.8655C4.94254 14.9177 4.93551 14.9699 4.93551 15.022C4.93551 18.6399 4.93551 22.2578 4.93551 25.8757C4.93551 26.0465 4.98969 26.0823 5.14663 26.0816C6.48795 26.0758 7.82928 26.0816 9.1706 26.078C9.42887 26.078 9.42886 26.078 9.42886 25.8193C9.42886 20.9992 9.42323 16.1792 9.43801 11.3591C9.43801 10.9467 9.33386 10.6608 9.03689 10.3706C7.69979 9.06843 6.39506 7.73835 5.07696 6.41898C5.04388 6.3861 5.00658 6.35894 4.93621 6.30534C4.93621 6.61124 4.94254 6.87211 4.93621 7.13298C4.93234 7.19448 4.94223 7.25608 4.96514 7.31314C4.98806 7.3702 5.0234 7.42126 5.06851 7.46247C6.39435 8.7966 7.71762 10.136 9.0383 11.4806C9.09108 11.5335 9.13963 11.59 9.1903 11.645C9.09318 11.7987 9.01859 11.8051 8.89755 11.6822C7.64208 10.4 6.38333 9.12085 5.12129 7.84484C5.07485 7.79767 5.02559 7.75336 4.93903 7.67116C4.93903 7.98778 4.94677 8.24722 4.93903 8.50667C4.93414 8.57668 4.9451 8.64691 4.97109 8.71195C4.99707 8.777 5.03738 8.83513 5.08892 8.88189C6.18488 9.99828 7.27731 11.118 8.36622 12.2411C8.49782 12.3754 8.4936 12.4033 8.33245 12.5091L4.94536 9.15563C4.94536 9.4601 4.94536 9.78458 4.94536 10.1091C4.94536 10.1527 4.99532 10.2005 5.03121 10.2377C5.5942 10.8231 6.16142 11.4113 6.73356 11.9909C7.08543 12.3483 7.44855 12.6906 7.8145 13.0473L7.64701 13.2302L4.93551 10.5408C4.93551 10.8345 4.92495 11.1175 4.94114 11.3984C4.9476 11.5065 4.98918 11.6093 5.05936 11.6907C5.60406 12.2625 6.1586 12.8278 6.70962 13.396C6.83489 13.5254 6.95594 13.6591 7.08543 13.7977L6.92005 13.9743L4.93551 12.0166C4.93551 12.2718 4.92636 12.5627 4.94044 12.8529C4.94695 12.9554 4.98652 13.0528 5.05303 13.1302C5.45627 13.5533 5.86866 13.9671 6.28035 14.3816C6.35072 14.4531 6.4021 14.5039 6.30428 14.5961C6.20646 14.6883 6.16353 14.6218 6.10441 14.5603C5.77225 14.2163 5.43938 13.873 5.10581 13.5304C5.06429 13.4875 5.01784 13.4489 4.93551 13.3739C4.93551 13.717 4.92847 14.0064 4.93973 14.2952C4.9455 14.3809 4.9786 14.4625 5.03403 14.5274C5.21419 14.7297 5.40631 14.922 5.59702 15.1149C5.66317 15.1807 5.68147 15.23 5.60758 15.3072C5.53369 15.3844 5.48442 15.3651 5.42109 15.2965C5.27893 15.1414 5.13045 14.9906 4.98477 14.8383ZM29.3819 20.6897C29.3861 20.6476 29.3918 20.6183 29.3918 20.5918C29.4035 19.2347 29.2491 17.8814 28.9322 16.563C28.3777 14.2759 27.2911 12.2747 25.771 10.51C25.0772 9.70525 24.3277 8.95051 23.6042 8.17289L23.3558 7.90559C23.3467 7.95205 23.3396 7.96491 23.3432 7.97706C23.3629 8.02066 23.3847 8.06211 23.4051 8.105C24.6321 10.615 25.2191 13.3976 25.1124 16.1977C25.1144 16.2888 25.1492 16.376 25.2102 16.4429C26.1368 17.4025 27.0666 18.3588 27.9998 19.3118C28.4502 19.7649 28.9083 20.2152 29.3819 20.6897ZM28.688 25.5341C28.7584 25.2661 28.8288 25.0288 28.8879 24.7886C29.1853 23.6202 29.3524 22.4214 29.3861 21.215C29.3883 21.1233 29.3576 21.0339 29.2996 20.9635C27.9414 19.5693 26.5808 18.178 25.2179 16.7895C25.1848 16.7559 25.1475 16.7288 25.099 16.6909C25.0892 16.7155 25.0813 16.7409 25.0751 16.7667C25.0638 16.8553 25.0518 16.9439 25.0441 17.0325C24.9401 18.3062 24.6832 19.5622 24.2791 20.7726C24.2499 20.8353 24.2423 20.906 24.2575 20.9736C24.2727 21.0411 24.3098 21.1015 24.3629 21.145C25.7628 22.5644 27.16 23.987 28.5543 25.4126C28.5853 25.4476 28.6254 25.4783 28.688 25.5341ZM27.1532 28.8218C27.1803 28.795 27.2052 28.7661 27.2278 28.7353C27.7777 27.8431 28.2206 26.8875 28.5473 25.8886C28.5535 25.8514 28.5514 25.8133 28.5411 25.7771C28.5309 25.7408 28.5128 25.7074 28.4882 25.6792C27.0751 24.2292 25.6589 22.7827 24.2397 21.3394C24.2005 21.3033 24.1591 21.2696 24.1159 21.2386C24.0926 21.2944 24.0786 21.3258 24.0659 21.3587C23.708 22.3089 23.2473 23.2157 22.6922 24.0625C22.6218 24.1697 22.6289 24.2262 22.7154 24.3148C24.1562 25.7785 25.5949 27.2442 27.0314 28.7117C27.0694 28.7482 27.1074 28.781 27.1525 28.8225L27.1532 28.8218ZM20.7492 26.509L25.365 31.1618C25.393 31.1108 25.426 31.0629 25.4635 31.0188C25.9988 30.4528 26.487 29.8428 26.9231 29.1949C27.011 29.0662 26.997 28.9919 26.8893 28.8832C25.4767 27.45 24.0671 26.0144 22.6605 24.5764C22.6085 24.5235 22.5522 24.4749 22.5198 24.4449L20.7492 26.509ZM18.733 28.1228C18.7555 28.1499 18.7822 28.1878 18.8139 28.2207C20.2763 29.7121 21.7379 31.2042 23.1989 32.697C23.2847 32.7849 23.3495 32.8078 23.4501 32.7263C23.9702 32.3017 24.4938 31.8822 25.0145 31.4591C25.0593 31.4171 25.1016 31.3725 25.1412 31.3254L20.5352 26.6998L18.733 28.1228ZM16.6872 29.2506C16.7189 29.2899 16.7386 29.3221 16.7625 29.3435C18.2375 30.8473 19.7123 32.3518 21.1869 33.857C21.2008 33.8755 21.2183 33.891 21.2381 33.9027C21.258 33.9143 21.2799 33.9219 21.3026 33.925C21.3254 33.928 21.3485 33.9265 21.3707 33.9205C21.3928 33.9144 21.4136 33.904 21.4318 33.8898C21.9491 33.604 22.4691 33.3181 22.9871 33.0279C23.0323 32.9967 23.0753 32.9623 23.1159 32.925C22.9871 32.8028 22.8688 32.697 22.7576 32.5833C21.3811 31.1815 20.0056 29.7783 18.6309 28.3737C18.5416 28.2822 18.4768 28.2407 18.3494 28.3272C18.1507 28.4637 17.9446 28.589 17.7323 28.7024C17.3966 28.8875 17.051 29.0612 16.6872 29.2506ZM14.7048 30.0089C14.7576 30.069 14.7906 30.109 14.8265 30.1462C16.272 31.6232 17.7173 33.1003 19.1623 34.5774C19.1969 34.6207 19.2447 34.6511 19.2981 34.664C19.3515 34.6769 19.4077 34.6716 19.4578 34.6489C19.8709 34.4988 20.2854 34.3523 20.6978 34.2015C20.8104 34.16 20.9195 34.1078 21.0638 34.0457C20.8371 33.8184 20.6331 33.6168 20.4304 33.4103C19.1496 32.1033 17.8697 30.7954 16.5908 29.4865C16.4838 29.3764 16.398 29.35 16.2572 29.4186C16.0363 29.5265 15.8068 29.6173 15.5767 29.7045C15.2994 29.8052 15.0172 29.8989 14.7048 30.0089ZM12.7836 30.4856C12.8002 30.5103 12.8181 30.5342 12.8371 30.5571C14.3074 32.0561 15.7787 33.5534 17.2509 35.0491C17.2801 35.0735 17.3139 35.0916 17.3502 35.1024C17.3864 35.1132 17.4245 35.1165 17.462 35.112C17.7562 35.0627 18.0482 34.9998 18.3389 34.934C18.557 34.8847 18.7717 34.8233 19.0187 34.7597C18.9518 34.6882 18.9152 34.6403 18.8779 34.5996C17.4986 33.193 16.1144 31.7914 14.7456 30.3749C14.5429 30.1647 14.3733 30.089 14.0848 30.1776C13.6682 30.3113 13.2333 30.3834 12.7836 30.4856ZM16.9947 35.2063L17.0053 35.1506C16.9617 35.1041 16.9187 35.057 16.8744 35.0077C15.5113 33.6168 14.1418 32.2317 12.7927 30.8287C12.5668 30.595 12.3613 30.4764 12.0524 30.5993C12.0064 30.6109 11.9591 30.6169 11.9117 30.6172L10.9581 30.7415C10.9841 30.7803 11.0122 30.8176 11.0425 30.853C12.4847 32.3206 13.9264 33.7841 15.3677 35.2435C15.415 35.2936 15.479 35.3239 15.5472 35.3286C16.0299 35.2943 16.5134 35.2485 16.994 35.2063H16.9947ZM7.72935 4.85303C7.77509 4.91164 7.78775 4.93165 7.80394 4.94738C9.16684 6.33822 10.5314 7.7281 11.8976 9.11704C11.9559 9.16996 12.0305 9.20077 12.1087 9.20423C12.5309 9.21209 12.9532 9.20852 13.3754 9.20423C13.4127 9.20423 13.4507 9.19637 13.5232 9.18851C13.4585 9.11704 13.4177 9.07129 13.374 9.02698C12.1347 7.76193 10.887 6.50546 9.66181 5.22612C9.39509 4.94809 9.1333 4.80372 8.74695 4.84374C8.42675 4.87948 8.0974 4.85303 7.72864 4.85303H7.72935ZM15.1327 35.3772C15.082 35.3057 15.0679 35.2835 15.0482 35.2635C13.606 33.7922 12.1629 32.3218 10.7188 30.8523C10.6608 30.7992 10.5858 30.7693 10.5077 30.768C10.1157 30.773 9.72373 30.7915 9.33175 30.8066C9.30555 30.8131 9.28026 30.823 9.25645 30.8359C9.30642 30.8916 9.34301 30.9366 9.38382 30.9788C10.7885 32.4125 12.1936 33.8458 13.5992 35.2785C13.6402 35.3275 13.6962 35.361 13.7583 35.3736C14.1981 35.3807 14.6414 35.3772 15.132 35.3772H15.1327ZM7.63997 30.803C7.71457 30.8852 7.74764 30.9252 7.78072 30.9624C9.03196 32.2398 10.2837 33.5165 11.5359 34.7925C11.7259 34.9862 11.8912 35.2478 12.1221 35.3443C12.3529 35.4408 12.652 35.3722 12.9215 35.375C13.0566 35.375 13.1925 35.375 13.3578 35.375C13.3381 35.343 13.3164 35.3122 13.2931 35.2828C11.8485 33.8148 10.4031 32.3477 8.95666 30.8816C8.92189 30.8431 8.8752 30.8179 8.82436 30.8101C8.44927 30.8037 8.06855 30.8058 7.63927 30.8058L7.63997 30.803ZM6.22616 4.85018C6.29653 4.9338 6.33594 4.97811 6.37605 5.01885C7.65545 6.32535 8.93977 7.62614 10.21 8.94122C10.4043 9.14205 10.5957 9.23282 10.868 9.20923C11.1136 9.18851 11.3606 9.20495 11.6569 9.20495C11.5865 9.12347 11.5478 9.07916 11.5084 9.03913C10.2705 7.7748 9.02351 6.51904 7.80042 5.24041C7.52666 4.95452 7.25854 4.78657 6.85952 4.84517C6.6667 4.87662 6.46684 4.85303 6.22546 4.85303L6.22616 4.85018ZM15.0616 9.20352C15.0123 9.14705 14.9799 9.10631 14.9441 9.06986C13.637 7.73858 12.329 6.40874 11.02 5.08031C10.9261 4.99539 10.8091 4.94132 10.6843 4.92522C10.3944 4.88734 10.1009 4.87948 9.80888 4.86161C9.75962 4.86161 9.71036 4.86661 9.63577 4.87019C9.65283 4.89497 9.67115 4.91882 9.69066 4.94166C11.0587 6.33679 12.427 7.73144 13.7956 9.12561C13.8304 9.16436 13.8774 9.18962 13.9286 9.19708C14.2952 9.20923 14.6626 9.20638 15.0609 9.20638L15.0616 9.20352ZM9.42112 10.4385C9.42112 10.0626 9.42113 9.73884 9.41691 9.41507C9.41691 9.36576 9.36483 9.31072 9.32471 9.27213C7.91442 7.83126 6.50273 6.39087 5.08963 4.95095C5.04184 4.90843 4.9918 4.86858 4.93973 4.83159C4.93973 5.21611 4.93973 5.55203 4.94395 5.88794C4.94395 5.93154 4.99532 5.97871 5.03121 6.01516C6.43259 7.43316 7.8342 8.85045 9.23604 10.267C9.28249 10.3156 9.33527 10.3599 9.42042 10.4414L9.42112 10.4385ZM6.27472 30.8037C6.33594 30.8752 6.3655 30.9173 6.39999 30.9531C7.81168 32.3935 9.22408 33.8331 10.6372 35.2721C10.6738 35.3086 10.7181 35.3643 10.7596 35.365C11.0883 35.3729 11.4176 35.3693 11.8012 35.3693C11.564 35.1299 11.3648 34.9312 11.1678 34.7304C9.93344 33.4705 8.6991 32.2105 7.46474 30.9502C7.40915 30.8937 7.33947 30.8137 7.27332 30.8073C6.95523 30.7987 6.63644 30.8066 6.27401 30.8066L6.27472 30.8037ZM5.07837 30.8037C5.13467 30.8752 5.16281 30.9152 5.19729 30.9502C6.60899 32.3911 8.02116 33.8312 9.43379 35.2707C9.4732 35.3107 9.52528 35.365 9.57454 35.3664C9.83352 35.3764 10.0932 35.3714 10.3824 35.3714C10.3612 35.337 10.3377 35.304 10.3121 35.2728C8.87597 33.8072 7.43893 32.3422 6.00096 30.878C5.9716 30.8416 5.9309 30.8164 5.88555 30.8066C5.62587 30.8044 5.37112 30.8073 5.07625 30.8073L5.07837 30.8037ZM16.4282 9.37076C16.3684 9.29929 16.3382 9.25855 16.303 9.22281C15.0273 7.9206 13.751 6.6191 12.4739 5.31831C12.4373 5.28043 12.4 5.22683 12.355 5.21683C12.0158 5.14035 11.6752 5.07388 11.2839 4.9924C11.3409 5.06388 11.3592 5.09461 11.3824 5.11819C12.7036 6.46615 14.0252 7.81363 15.3473 9.16063C15.376 9.19825 15.4149 9.22656 15.4592 9.24211C15.766 9.29143 16.0757 9.32573 16.4261 9.37433L16.4282 9.37076ZM4.02698 30.803C4.1072 30.8902 4.14943 30.9388 4.19447 30.9845L8.30923 35.1813C8.50064 35.3765 8.90177 35.4486 9.22408 35.3121C9.1401 35.2556 9.05971 35.1938 8.9834 35.127C7.61487 33.7338 6.24681 32.3399 4.87921 30.9452C4.82432 30.8895 4.75324 30.818 4.68428 30.8116C4.47949 30.7944 4.27611 30.8066 4.02487 30.8066L4.02698 30.803ZM3.16983 30.803L3.11564 30.8852C3.17526 30.9124 3.23148 30.9467 3.28313 30.9874C4.66035 32.3889 6.04107 33.7862 7.40492 35.2042C7.63996 35.4479 7.88135 35.3564 8.15369 35.3729C8.14101 35.3478 8.12617 35.3239 8.10936 35.3014C6.66857 33.8296 5.22756 32.3592 3.78631 30.8902C3.75193 30.8507 3.70567 30.8238 3.65471 30.8137C3.49426 30.8001 3.32887 30.8058 3.16772 30.8058L3.16983 30.803ZM10.1565 9.20352C10.0862 9.12633 10.0587 9.0863 10.0228 9.04985C8.71809 7.71833 7.40562 6.39396 6.11356 5.04744C5.8757 4.80015 5.6315 4.85804 5.33171 4.85732C5.38942 4.92879 5.41897 4.97096 5.45486 5.00741C6.799 6.37538 8.14407 7.7424 9.49009 9.10846C9.53289 9.15528 9.5894 9.18686 9.65125 9.19851C9.79974 9.21495 9.95175 9.20638 10.1544 9.20638L10.1565 9.20352ZM12.854 5.38193C12.8849 5.41981 12.9138 5.45983 12.9476 5.49414C14.1946 6.76562 15.4458 8.03281 16.6865 9.31072C16.9469 9.57874 17.2868 9.52514 17.5901 9.63092C17.5709 9.58466 17.5424 9.54302 17.5064 9.5087C16.3466 8.32441 15.1742 7.15013 14.0348 5.9487C13.6984 5.59491 13.2924 5.48842 12.854 5.38193ZM7.25151 35.3629C7.19591 35.3007 7.16073 35.2571 7.12132 35.2199C5.73003 33.8005 4.33522 32.3846 2.95097 30.9581C2.77081 30.773 2.58854 30.8073 2.34998 30.823C2.41472 30.8945 2.45272 30.9366 2.49072 30.9781C3.86934 32.3839 5.25359 33.7848 6.62307 35.2006C6.81096 35.3922 6.99746 35.3893 7.24939 35.3629H7.25151ZM14.3951 5.91653L14.3614 5.95441C14.5352 6.13667 14.7069 6.32106 14.8835 6.50046C15.88 7.51536 16.8878 8.51953 17.8688 9.54944C18.1503 9.84462 18.4909 9.98542 18.8442 10.1341C18.8085 10.0736 18.7649 10.0183 18.7147 9.96969C17.5887 8.81828 16.4508 7.67474 15.3367 6.51189C15.0588 6.22672 14.7203 6.08878 14.393 5.91582L14.3951 5.91653ZM1.71873 30.8173L1.66876 30.8795C1.76236 30.9588 1.8637 31.0303 1.95026 31.1175C3.29815 32.4883 4.64369 33.8613 5.98689 35.2364C6.12764 35.3793 6.26839 35.3943 6.46192 35.3622C6.41547 35.3064 6.3852 35.2657 6.35002 35.2299C4.95615 33.8057 3.56252 32.3804 2.16912 30.9538C2.11374 30.8904 2.04204 30.844 1.9621 30.8197C1.88215 30.7955 1.79714 30.7944 1.71661 30.8166L1.71873 30.8173ZM5.71525 35.4093L5.74973 35.3379C5.71173 35.2943 5.67514 35.2492 5.63502 35.2085C4.2313 33.7681 2.82758 32.3279 1.42386 30.888C1.3197 30.7808 1.21274 30.803 1.06777 30.8166C1.11492 30.8723 1.13814 30.9095 1.17333 30.9409C2.58925 32.3861 4.00634 33.8296 5.42461 35.2714C5.49357 35.3414 5.61532 35.3643 5.71314 35.4086L5.71525 35.4093ZM16.0538 6.8764L18.4064 9.23139C17.7672 8.30892 16.9696 7.51095 16.0517 6.87568L16.0538 6.8764Z" fill="url(#paint0_linear_79_11886)"/>
<defs>
<linearGradient id="paint0_linear_79_11886" x1="0" y1="0" x2="33.1275" y2="3.15438" gradientUnits="userSpaceOnUse">
<stop stop-color="#1C4EFF"/>
<stop offset="1" stop-color="#1C92FF"/>
</linearGradient>
</defs>
</svg>
