<svg width="36" height="34" viewBox="0 0 36 34" fill="none" xmlns="http://www.w3.org/2000/svg">
<path fill-rule="evenodd" clip-rule="evenodd" d="M19.9768 0.0864938C19.8839 0.133477 19.7499 0.249793 19.6793 0.344935C19.5929 0.461113 19.1799 2.19866 18.4212 5.63832C17.7999 8.45453 17.2758 10.8107 17.2565 10.8742C17.2294 10.9635 17.099 10.9996 16.6792 11.0341C13.1077 11.3273 9.91762 12.3076 7.50956 13.8519L6.91746 14.2317L6.58072 13.9317C5.12309 12.6333 2.56867 12.7423 1.14514 14.1637C0.650379 14.6578 0.212582 15.4527 0.0647504 16.1256C-0.0625449 16.7051 0.0065884 17.9267 0.195773 18.4393C0.497765 19.2579 1.32209 20.2097 2.00808 20.5322C2.22328 20.6333 2.22518 20.6388 2.15633 20.9555C2.02784 21.5462 2.05682 23.4884 2.20444 24.1824C2.61874 26.1307 3.64773 27.8901 5.28076 29.4423C7.80177 31.8387 11.2358 33.3392 15.4339 33.8789C16.6903 34.0404 19.3822 34.0404 20.6382 33.8788C24.9158 33.3287 28.4667 31.7637 30.9419 29.3377C32.4167 27.8923 33.3193 26.3905 33.8022 24.5789C34.0301 23.7237 34.106 21.9223 33.9477 21.1274L33.8492 20.6326L34.2902 20.3473C35.0914 19.829 35.7346 18.9051 35.938 17.9803C36.0636 17.4094 35.9894 16.1977 35.7958 15.6561C35.1202 13.7667 33.152 12.6883 31.1438 13.107C30.5779 13.2251 29.8954 13.5509 29.4501 13.9158L29.1191 14.1869L28.6226 13.8738C26.1476 12.3129 23.0479 11.3401 19.689 11.0701C19.2114 11.0318 18.8098 10.9895 18.7964 10.9763C18.7705 10.9508 20.8121 1.71194 20.8531 1.6689C20.8709 1.65022 26.1038 2.79691 27.3277 3.08774C27.4524 3.11735 27.4827 3.18876 27.5138 3.52525C27.5845 4.29269 28.1374 5.16551 28.8299 5.60268C30.3977 6.59251 32.4559 6.00034 33.23 4.3367C34.086 2.49709 32.9664 0.395517 30.949 0.0551486C30.0021 -0.104622 29.0204 0.230695 28.333 0.948796C28.1226 1.16849 27.9035 1.41842 27.8459 1.50415L27.7414 1.66005L23.9939 0.829505C21.9327 0.372682 20.2238 -0.000552941 20.1961 6.14953e-07C20.1685 0.000554171 20.0698 0.0394415 19.9768 0.0864938ZM12.1312 18.1661C12.9744 18.3821 13.6488 18.9466 14.0454 19.7681C14.7588 21.2462 14.1307 22.9601 12.6019 23.707C12.2328 23.8873 12.1333 23.9041 11.4251 23.9048C10.6993 23.9056 10.622 23.892 10.1751 23.6836C8.32551 22.8217 7.87231 20.4639 9.27551 19.0041C10.0454 18.2031 11.0851 17.8981 12.1312 18.1661ZM25.2774 18.1648C26.1753 18.3949 26.8966 18.9908 27.3051 19.8399C27.5121 20.2702 27.5299 20.3628 27.5283 20.9995C27.5262 21.8234 27.3678 22.2953 26.9048 22.857C25.738 24.2724 23.5862 24.3204 22.4004 22.9573C20.9625 21.3046 21.7758 18.7344 23.9159 18.1683C24.4142 18.0364 24.7728 18.0355 25.2774 18.1648ZM12.1155 26.9956C12.1999 27.0395 12.4051 27.1926 12.5713 27.3359C13.2324 27.9054 14.5464 28.3841 16.0675 28.6097C16.8977 28.7328 18.8123 28.7478 19.7239 28.6383C21.3508 28.4429 22.8616 27.8718 23.6135 27.1678C23.8041 26.9895 23.9034 26.9502 24.1646 26.9502C24.575 26.9502 24.8228 27.1982 24.8228 27.6089C24.8228 27.836 24.775 27.9249 24.5239 28.1648C24.132 28.5393 23.7754 28.7789 23.1497 29.0883C19.6609 30.8138 13.7617 30.3471 11.4779 28.1648C11.2312 27.9292 11.179 27.834 11.179 27.6204C11.179 27.0942 11.6723 26.765 12.1155 26.9956Z" fill="url(#paint0_linear_79_8454)"/>
<defs>
<linearGradient id="paint0_linear_79_8454" x1="0" y1="0" x2="39.5348" y2="4.78309" gradientUnits="userSpaceOnUse">
<stop stop-color="#1C4EFF"/>
<stop offset="1" stop-color="#1C92FF"/>
</linearGradient>
</defs>
</svg>
