<svg width="34" height="36" viewBox="0 0 34 36" fill="none" xmlns="http://www.w3.org/2000/svg">
<path fill-rule="evenodd" clip-rule="evenodd" d="M13.0485 0.0862021C11.6117 0.271935 9.69782 0.874554 8.32734 1.57268C6.34131 2.58445 3.9923 4.68883 2.74339 6.57515C1.1443 8.99046 0.240298 11.639 0.0412547 14.4914C-0.614068 23.8824 6.62422 31.7132 15.5993 31.3231C16.7971 31.2711 17.7978 31.1215 18.732 30.8552C19.2385 30.7108 19.2667 30.711 19.3547 30.861C19.4055 30.9473 19.6666 31.34 19.9351 31.7337C21.3901 33.8674 22.958 35.1812 24.7214 35.7444C25.4959 35.9917 27.0813 36.0771 28.0287 35.9224C31.3254 35.3843 33.4989 32.6863 33.9584 28.5617L34 28.1883H32.6421H31.2842L31.0962 28.8373C30.8584 29.6587 30.4793 30.1701 29.8645 30.499C29.4265 30.7333 29.3348 30.7498 28.6556 30.7161C27.6141 30.6645 27.0957 30.3982 26.1453 29.426C25.7395 29.0111 25.2555 28.4427 25.0695 28.1631L24.7315 27.6547L25.4255 26.9331C26.348 25.9738 26.7977 25.4118 27.4437 24.4104C28.3691 22.9759 29.1179 21.2163 29.5561 19.4464C29.968 17.7826 30.0835 15.0932 29.8203 13.2921C29.1092 8.42676 26.3251 4.27133 22.1581 1.85628C20.6831 1.00142 18.5701 0.294953 16.853 0.0825121C15.9507 -0.0290679 13.9255 -0.027135 13.0485 0.0862021ZM16.4207 2.85022C17.9284 3.22055 19.5592 4.38625 20.7101 5.91621C22.2 7.89715 23.1919 10.5794 23.5518 13.6015C23.6809 14.6839 23.6604 16.956 23.5116 18.1021C23.3024 19.7122 22.8367 21.4333 22.2377 22.8107L22.0353 23.2759L21.4329 22.5122C20.3837 21.1822 19.1135 20.222 17.9146 19.8524C16.633 19.4574 14.7929 19.3949 13.3944 19.699C12.1682 19.9656 10.5251 20.6691 9.82414 21.2276L9.62605 21.3854L10.0792 22.3777C10.51 23.321 10.5431 23.3672 10.7528 23.3138C11.6461 23.087 13.4455 23.203 14.1967 23.5359C15.0036 23.8935 16.0159 25.1383 17.1408 27.1563L17.6674 28.101L17.3466 28.2396C16.6708 28.5315 15.7453 28.7154 14.9586 28.7141C13.1204 28.7111 11.5696 27.9634 10.0151 26.3305C8.13227 24.3529 6.89858 21.4748 6.47127 18.0633C6.27629 16.507 6.3356 13.813 6.59569 12.4119C7.49571 7.56329 9.98177 4.0154 13.2354 2.93632C14.1946 2.61819 15.3488 2.587 16.4207 2.85022Z" fill="url(#paint0_linear_79_8530)"/>
<defs>
<linearGradient id="paint0_linear_79_8530" x1="0" y1="0" x2="37.4488" y2="4.04129" gradientUnits="userSpaceOnUse">
<stop stop-color="#1C4EFF"/>
<stop offset="1" stop-color="#1C92FF"/>
</linearGradient>
</defs>
</svg>
