<svg width="31" height="36" viewBox="0 0 31 36" fill="none" xmlns="http://www.w3.org/2000/svg">
<path fill-rule="evenodd" clip-rule="evenodd" d="M11.5282 2.03563C9.40468 3.1528 7.66736 4.09814 7.66773 4.13659C7.66868 4.23583 12.7642 6.84203 12.9451 6.83568C13.0273 6.83289 13.6241 6.55544 14.2712 6.21919L15.448 5.60794L16.7331 6.27508L18.0182 6.94235L20.1227 5.98729C23.2938 4.54816 23.6232 4.39046 23.5716 4.33748C23.5031 4.26718 22.3656 3.65007 19.2797 2.00931C17.7884 1.21631 16.3409 0.438803 16.063 0.281474C15.7851 0.124146 15.5199 -0.00241485 15.4735 3.49751e-05C15.4272 0.0024848 13.6517 0.918513 11.5282 2.03563ZM2.21453 6.90647L0.00398806 8.05964V13.1206C0.00398806 15.9042 0.0330146 18.1816 0.0686194 18.1816C0.104101 18.1816 1.19169 17.7055 2.48543 17.1235L4.83769 16.0655V10.7308L5.98715 11.3633C6.87292 11.8502 7.75921 12.3362 8.64604 12.8211L10.1554 13.6464L10.8271 13.3397C11.2483 13.147 11.6687 12.9525 12.0882 12.7561C12.4124 12.6036 13.2082 12.2416 13.8566 11.9515C14.505 11.6613 15.1052 11.3694 15.1903 11.3029C15.3034 11.2145 13.9248 10.4451 10.0912 8.45692C7.20146 6.95825 4.74444 5.73682 4.63113 5.74268C4.51782 5.74853 3.43035 6.27217 2.21453 6.90647ZM23.97 7.23031C22.4644 7.91672 21.2316 8.50575 21.2302 8.53934C21.2289 8.5729 22.0494 9.06564 23.0538 9.63417C24.058 10.2028 24.8797 10.6985 24.8797 10.7358C24.8797 10.773 23.991 11.2079 22.905 11.7024C21.8188 12.1967 19.0734 13.4488 16.804 14.485L9.19977 17.9563C7.28693 18.8296 5.56273 19.6168 5.36822 19.7057C1.46115 21.492 0.387253 21.9877 0.239777 22.0727C0.0914788 22.1584 0.0578886 22.656 0.0314934 25.1537L0 28.1327L1.97676 29.15L3.95349 30.1671L6.69452 28.9178C8.20213 28.2307 9.43556 27.6325 9.43556 27.5885C9.43556 27.5446 9.15697 27.3612 8.81662 27.181C8.47612 27.0007 7.77323 26.6015 7.2545 26.2939C6.7358 25.9861 6.21859 25.7038 6.10503 25.6664C5.99151 25.629 5.90028 25.5637 5.90213 25.5211C5.90402 25.4787 7.11105 24.8996 8.58425 24.2343C11.4457 22.9423 13.6354 21.9464 18.3366 19.7993C20.4388 18.8394 22.5412 17.8801 24.6439 16.9214C26.4919 16.079 28.6406 15.0951 29.4187 14.735L30.8334 14.0804L30.8649 11.0674L30.8965 8.05465L28.8916 7.01534C27.7888 6.44379 26.8462 5.97753 26.7968 5.97923C26.7474 5.98081 25.4753 6.54373 23.97 7.23031ZM30.2963 18.0997C30.0008 18.2455 29.4172 18.5184 28.9994 18.7061C28.5816 18.8938 27.7888 19.2551 27.2376 19.5091L26.2355 19.9707L26.2126 22.6158C26.2 24.0705 26.147 25.2543 26.0948 25.2466C25.9762 25.2288 24.098 24.256 22.21 23.2343C20.8474 22.497 20.7618 22.4677 20.4416 22.6278C20.2565 22.7205 19.1501 23.2216 17.9829 23.7417C16.8157 24.2617 15.8227 24.7211 15.776 24.7627C15.7295 24.8042 18.0785 26.09 20.9963 27.6202L26.3012 30.4024L28.5674 29.2184C29.8136 28.5673 30.8734 27.9735 30.9222 27.8988C31.032 27.7308 31.0226 17.8117 30.9126 17.8251C30.8691 17.8304 30.5917 17.954 30.2963 18.0997ZM17.7471 29.7423C17.354 29.9129 16.9611 30.0839 16.5682 30.255C15.3818 30.7734 15.6143 30.7906 14.2029 30.081C13.2628 29.6084 12.8576 29.4625 12.6817 29.5333C12.5497 29.5864 11.4143 30.1023 10.1583 30.6798C8.90231 31.2572 7.83112 31.7297 7.77784 31.7297C7.25088 31.7297 8.12694 32.2583 11.5075 33.9805L15.472 36L17.1401 35.1683C18.0575 34.7108 19.908 33.7948 21.2524 33.1327C22.5966 32.4704 23.6798 31.9114 23.6595 31.8903C23.6391 31.8693 22.5127 31.2852 21.1564 30.5922L18.6903 29.3325L17.7471 29.7423Z" fill="url(#paint0_linear_79_8473)"/>
<defs>
<linearGradient id="paint0_linear_79_8473" x1="0" y1="0" x2="34.211" y2="3.36612" gradientUnits="userSpaceOnUse">
<stop stop-color="#1C4EFF"/>
<stop offset="1" stop-color="#1C92FF"/>
</linearGradient>
</defs>
</svg>
