<svg width="36" height="36" viewBox="0 0 36 36" fill="none" xmlns="http://www.w3.org/2000/svg">
<path fill-rule="evenodd" clip-rule="evenodd" d="M16.3543 0.0388815C15.7653 0.0864111 14.2825 0.344127 13.5749 0.521923C10.433 1.31127 7.57029 2.94382 5.24135 5.27446C2.91234 7.60503 1.28092 10.4698 0.492133 13.6138C0.0863378 15.2312 0 16.0036 0 18.0147C0 20.0258 0.0863378 20.7982 0.492133 22.4156C1.28092 25.5597 2.91234 28.4244 5.24135 30.755C7.57029 33.0856 10.433 34.7182 13.5749 35.5075C15.1912 35.9136 15.963 36 17.9727 36C19.9824 36 20.7542 35.9136 22.3705 35.5075C25.5124 34.7182 28.3751 33.0856 30.704 30.755C33.0331 28.4243 34.665 25.5586 35.4532 22.4156C35.8762 20.7284 35.9332 20.1569 35.9678 17.2578L36 14.5644H26.9864H17.9727V18.0147V21.465H23.2501C26.1526 21.465 28.5274 21.4888 28.5274 21.5178C28.5273 21.6388 28.2116 22.3906 27.8931 23.0286C26.5774 25.6635 24.2203 27.6863 21.3908 28.6085C19.457 29.2388 17.099 29.3037 15.1581 28.7802C13.9211 28.4465 12.5597 27.8089 11.5186 27.0755C10.7269 26.5178 9.47556 25.2656 8.91827 24.4733C7.58943 22.5843 6.85503 20.2853 6.85503 18.0147C6.85503 15.7441 7.58943 13.4452 8.91827 11.5561C9.47556 10.7638 10.7269 9.51164 11.5186 8.95396C13.5634 7.51356 15.9113 6.81696 18.3949 6.91371C20.5506 6.99771 22.3258 7.5606 24.0871 8.71871C24.7263 9.13901 24.7524 9.14908 24.8749 9.02472C25.0463 8.85066 28.9501 3.76506 28.9464 3.72063C28.9448 3.70127 28.6678 3.49256 28.3308 3.25681C25.822 1.50131 23.1001 0.466226 20.0154 0.0944383C19.2174 -0.00174757 17.2303 -0.0318849 16.3543 0.0388815Z" fill="url(#paint0_linear_79_8492)"/>
<defs>
<linearGradient id="paint0_linear_79_8492" x1="0" y1="0" x2="39.5965" y2="4.52442" gradientUnits="userSpaceOnUse">
<stop stop-color="#1C4EFF"/>
<stop offset="1" stop-color="#1C92FF"/>
</linearGradient>
</defs>
</svg>
