<svg width="36" height="30" viewBox="0 0 36 30" fill="none" xmlns="http://www.w3.org/2000/svg">
<path fill-rule="evenodd" clip-rule="evenodd" d="M33.4745 0.148172C33.1651 0.224846 29.4519 1.73925 25.2231 3.51352C20.9942 5.28798 13.8266 8.27506 9.29503 10.1517C1.04587 13.5678 0 14.1064 0 14.9372C0 15.8084 0.336057 15.9991 3.89579 17.1466C5.82719 17.7692 7.74508 18.3277 8.15765 18.3874C9.72204 18.614 10.4422 18.2285 17.9384 13.1514C25.6765 7.91057 25.9957 7.71304 26.7267 7.71304C27.1487 7.71304 27.1995 7.77271 27.0892 8.13795C27.0187 8.37156 26.7659 8.82538 26.5275 9.14624C26.0833 9.74395 19.9637 15.7041 17.4405 17.9966C15.1927 20.0389 15.114 20.7835 16.9842 22.3174C18.9796 23.9542 27.0305 29.28 28.0601 29.6443C29.996 30.3296 31.2794 30.0218 31.809 28.7455C32.2311 27.7282 36.0099 3.57112 36 1.95303C35.9936 0.894139 35.7459 0.454113 34.9941 0.166302C34.4251 -0.0514451 34.2871 -0.0531449 33.4745 0.148172Z" fill="url(#paint0_linear_79_12227)"/>
<defs>
<linearGradient id="paint0_linear_79_12227" x1="0" y1="0" x2="39.3732" y2="5.39869" gradientUnits="userSpaceOnUse">
<stop stop-color="#1C4EFF"/>
<stop offset="1" stop-color="#1C92FF"/>
</linearGradient>
</defs>
</svg>
