<svg width="36" height="36" viewBox="0 0 36 36" fill="none" xmlns="http://www.w3.org/2000/svg">
<path fill-rule="evenodd" clip-rule="evenodd" d="M1.60922 0.112719C1.04134 0.465432 0.938817 1.37316 1.41585 1.82537C1.50522 1.91011 2.14568 2.26416 2.83901 2.61223C3.9084 3.14903 4.1505 3.24473 4.43437 3.24248C5.03496 3.23784 5.4165 2.90756 5.51846 2.30403C5.55369 2.09532 5.52619 1.9556 5.39962 1.70042C5.2386 1.3759 5.20463 1.35291 3.89883 0.686018C2.69254 0.0698959 2.52525 0.00351624 2.17605 0.00232084C1.94274 0.00147703 1.71787 0.0452849 1.60922 0.112719ZM11.8096 0.110258C9.40597 0.755562 7.95595 3.13335 8.46941 5.58743C8.52608 5.85816 8.70335 6.34862 8.8634 6.67736C9.15233 7.27076 9.18362 7.30438 13.2419 11.376C15.4901 13.6316 17.4149 15.5222 17.5193 15.5775C17.7629 15.7064 18.2321 15.7064 18.4757 15.5775C18.5801 15.5222 20.5049 13.6316 22.7531 11.376C26.8111 7.30466 26.8428 7.27076 27.1317 6.67736C27.5161 5.8879 27.6549 5.21552 27.6104 4.35674C27.512 2.45183 26.3652 0.90112 24.5541 0.223962C23.9201 -0.0130787 22.637 -0.0736221 21.9001 0.0987262C20.8999 0.332673 20.4728 0.613029 19.1753 1.88725L17.9975 3.04405L16.8197 1.88725C15.5329 0.623365 15.0947 0.333376 14.13 0.106672C13.5494 -0.029744 12.3241 -0.0278454 11.8096 0.110258ZM32.0962 0.686018C30.7904 1.35291 30.7564 1.3759 30.5954 1.70042C30.4688 1.9556 30.4413 2.09532 30.4766 2.30403C30.5785 2.90756 30.9601 3.23784 31.5606 3.24248C31.8453 3.24473 32.0836 3.14988 33.156 2.60766C33.8493 2.25712 34.4656 1.9298 34.5254 1.88029C34.773 1.67525 34.8737 1.43757 34.8737 1.05821C34.8737 0.386606 34.4789 -0.00534377 33.8081 0.00042227C33.4745 0.00330529 33.2821 0.0803029 32.0962 0.686018ZM2.79527 8.55835C1.24526 9.34112 1.12129 9.45441 1.12129 10.0878C1.12129 10.7122 1.57632 11.1773 2.18738 11.1775C2.54058 11.1777 5.03102 9.94375 5.28381 9.64328C5.74889 9.09058 5.51002 8.20599 4.82597 7.94757C4.40744 7.78943 4.18594 7.85602 2.79527 8.55835ZM31.1469 7.95158C30.4816 8.21604 30.254 9.09994 30.7112 9.64328C30.964 9.94375 33.4544 11.1777 33.8076 11.1775C34.4187 11.1773 34.8737 10.7122 34.8737 10.0878C34.8737 9.45441 34.7498 9.34112 33.1997 8.55835C31.8024 7.85264 31.5691 7.78366 31.1469 7.95158ZM6.06792 14.7002C4.56228 14.9518 3.29361 16.0967 2.91657 17.5444C2.77854 18.0742 2.77854 19.0478 2.91657 19.5777C3.26091 20.8997 4.41799 22.0325 5.76225 22.3637C6.30116 22.4963 7.25355 22.48 7.7663 22.3291C9.05262 21.9508 9.99551 21.0209 10.4463 19.6861C10.5408 19.4065 10.577 19.0948 10.577 18.561C10.577 18.0272 10.5408 17.7155 10.4463 17.4359C9.95128 15.9701 8.84075 14.9827 7.39784 14.7254C6.78713 14.6166 6.59094 14.6128 6.06792 14.7002ZM28.8604 14.7044C27.9316 14.7827 27.1945 15.1299 26.5163 15.8084C25.2292 17.0962 25.0236 19.1724 26.0291 20.7263C27.3842 22.8204 30.4227 23.0647 32.1531 21.2187C33.7692 19.4946 33.4508 16.6414 31.4966 15.3363C30.7066 14.8088 29.904 14.6164 28.8604 14.7044ZM16.9621 18.177C15.7383 18.5066 14.7199 19.4654 14.2836 20.6985C14.0581 21.336 14.0331 22.3748 14.2276 23.0262C14.8187 25.0067 16.7835 26.1961 18.771 25.7764C20.7841 25.3513 22.0922 23.5447 21.8636 21.5057C21.685 19.9134 20.5382 18.5734 19.0142 18.1765C18.5032 18.0433 17.4572 18.0436 16.9621 18.177ZM1.9118 23.2702C1.1485 23.6321 0.64714 24.1274 0.292598 24.8699L0.0313687 25.417L0.00992184 30.3392C-0.0139861 35.8129 -0.0345892 35.5576 0.455946 35.8608C0.673579 35.9953 0.820894 35.9998 5.04037 35.9998H9.39992L9.29937 35.5645C9.21794 35.212 9.20373 34.5334 9.22455 31.9959C9.24867 29.0596 9.25971 28.8288 9.39992 28.3256C9.82478 26.801 10.8015 25.6107 12.2186 24.8905C12.4577 24.769 12.6534 24.644 12.6534 24.6125C12.6534 24.4166 12.274 23.7505 12.0766 23.5999C11.8253 23.4083 10.9421 22.991 10.7877 22.991C10.7356 22.991 10.4612 23.1572 10.178 23.3602C9.09636 24.1354 8.02929 24.4827 6.71154 24.4885C5.78806 24.4926 5.10837 24.3562 4.32601 24.0101C3.85707 23.8026 3.03463 23.2869 2.88823 23.1086C2.74485 22.934 2.55443 22.9655 1.9118 23.2702ZM24.6549 23.1995C23.9783 23.4881 23.715 23.7111 23.5137 24.1665C23.4191 24.3804 23.3416 24.5812 23.3416 24.6125C23.3416 24.644 23.5373 24.769 23.7764 24.8905C25.1935 25.6107 26.1702 26.801 26.5951 28.3256C26.7353 28.8288 26.7463 29.0596 26.7705 31.9959C26.7913 34.5334 26.7771 35.212 26.6957 35.5645L26.5951 35.9998H30.9546C35.1741 35.9998 35.3214 35.9953 35.5391 35.8608C36.0296 35.5576 36.009 35.8129 35.9851 30.3392L35.9636 25.417L35.7024 24.8699C35.3446 24.1206 34.8456 23.6301 34.0723 23.2677C33.7475 23.1156 33.4328 22.991 33.3729 22.991C33.3129 22.991 33.0571 23.1475 32.8044 23.3387C31.7834 24.1116 30.6221 24.4903 29.2835 24.4869C27.9676 24.4837 26.9006 24.1369 25.817 23.3602C25.5338 23.1572 25.2643 22.9919 25.2183 22.9929C25.1724 22.994 24.9188 23.0869 24.6549 23.1995ZM13.231 26.6463C12.1936 27.1381 11.495 28.0367 11.3161 29.1087C11.2673 29.4011 11.2475 30.6042 11.261 32.4487L11.2822 35.3318L11.4459 35.5613C11.7762 36.0244 11.408 35.9998 17.9975 35.9998C24.587 35.9998 24.2188 36.0244 24.5491 35.5613L24.7128 35.3318L24.734 32.4487C24.7475 30.6042 24.7277 29.4011 24.6789 29.1087C24.4989 28.0298 23.7991 27.1341 22.7532 26.6439C22.4273 26.4912 22.1259 26.3663 22.0833 26.3663C22.0408 26.3663 21.8082 26.5133 21.5663 26.693C21.0226 27.0971 20.0223 27.5757 19.3687 27.7445C19.0218 27.8341 18.6169 27.8716 17.9975 27.8716C17.3781 27.8716 16.9732 27.8341 16.6263 27.7445C15.9727 27.5757 14.9724 27.0971 14.4287 26.693C14.1869 26.5133 13.9495 26.3671 13.9013 26.3682C13.8531 26.3693 13.5514 26.4945 13.231 26.6463Z" fill="url(#paint0_linear_79_12189)"/>
<defs>
<linearGradient id="paint0_linear_79_12189" x1="0" y1="0" x2="39.5912" y2="4.52318" gradientUnits="userSpaceOnUse">
<stop stop-color="#1C4EFF"/>
<stop offset="1" stop-color="#1C92FF"/>
</linearGradient>
</defs>
</svg>
