<svg width="36" height="36" viewBox="0 0 36 36" fill="none" xmlns="http://www.w3.org/2000/svg">
<path d="M10.3707 19.1778C9.92617 19.7804 9.7063 20.5172 9.74865 21.2627C9.71476 21.9064 9.87591 22.5455 10.2114 23.0978C10.9131 24.297 12.2678 24.3072 12.9568 23.0978C13.1533 22.7281 13.2923 22.3311 13.3693 21.9202C13.5814 20.9173 13.4208 19.9615 12.7897 19.1332C12.1406 18.2857 11.0057 18.315 10.3707 19.1778Z" fill="url(#paint0_linear_79_11999)"/>
<path d="M22.9808 19.1255C23.6235 18.338 24.7134 18.3125 25.3406 19.1128C25.8457 19.7487 26.0334 20.4764 25.9974 21.3085C26.0305 21.932 25.8738 22.551 25.5476 23.085C24.8843 24.2613 23.5772 24.3021 22.8279 23.1768C22.1132 22.1038 22.1171 20.1858 22.9808 19.1255Z" fill="url(#paint1_linear_79_11999)"/>
<path fill-rule="evenodd" clip-rule="evenodd" d="M35.9611 21.7355C35.925 21.0127 35.8034 20.2967 35.5986 19.6021C35.0035 17.6715 33.7632 16.169 32.2144 14.8997C31.0761 13.972 29.8146 13.204 28.4652 12.6173C28.284 12.5382 28.158 12.4452 28.2081 12.2197C28.2738 11.8866 28.3342 11.5529 28.3945 11.2194L28.3946 11.2191C28.418 11.0895 28.4414 10.96 28.4652 10.8306C28.4987 10.6503 28.5322 10.47 28.5657 10.2897C28.6816 9.66673 28.7976 9.04334 28.9112 8.42072C28.9548 8.18303 28.9952 7.94392 29.0357 7.70452C29.1037 7.30217 29.1718 6.89891 29.2556 6.50023C29.4549 5.55464 29.568 4.61542 29.3148 3.65836C28.7042 1.36447 26.4318 -0.380155 23.7983 0.0900918C22.4384 0.33095 21.4063 1.04078 20.6274 2.14057C20.0881 2.91828 19.8048 3.84245 19.8164 4.78619C19.8061 5.97607 19.8095 7.16594 19.813 8.35355V8.35389C19.8147 8.9469 19.8164 9.53935 19.8164 10.1309V10.4903H15.9695C15.9695 10.4637 15.9658 10.4355 15.9621 10.4066C15.9581 10.376 15.9541 10.3446 15.9541 10.3132C15.9541 9.75118 15.9553 9.18917 15.9566 8.62717C15.9592 7.50317 15.9618 6.37916 15.9541 5.25516C15.962 4.78093 15.9258 4.30698 15.8461 3.83932C15.6814 2.99365 15.2806 2.21079 14.6893 1.57984C13.5647 0.355163 12.1496 -0.159686 10.5185 0.0429403C9.88595 0.111049 9.2752 0.311699 8.72677 0.631591C8.17834 0.951483 7.70475 1.38331 7.3374 1.89844C6.61635 2.88736 6.25646 3.98715 6.39528 5.20036C6.45704 5.73977 6.56726 6.27365 6.67753 6.80783C6.73478 7.08512 6.79205 7.36253 6.84256 7.6408L6.88353 7.86914C7.12696 9.22569 7.37075 10.5843 7.62145 11.9406L7.62592 11.965C7.71797 12.4681 7.71814 12.469 7.25257 12.6835C5.1691 13.6406 3.32855 14.9175 1.90058 16.722C0.667975 18.2806 -0.0119534 20.0354 0.0086114 22.0439C0.0119216 22.3721 0.00844714 22.7003 0.00497271 23.0285C-0.000996418 23.5923 -0.00696555 24.1562 0.0214691 24.7201C0.0473471 25.3593 0.139081 25.9943 0.295239 26.6151C0.818356 28.584 1.98669 30.1553 3.52134 31.4577C5.12411 32.8213 6.95824 33.7987 8.93888 34.5162C10.4567 35.0801 12.0353 35.4676 13.6431 35.6708C13.9111 35.7021 14.1789 35.7396 14.4468 35.777C15.0513 35.8615 15.656 35.946 16.2625 35.9601C16.39 35.9633 16.5175 35.9667 16.645 35.9701L16.6464 35.9701C18.0846 36.0084 19.5261 36.0468 20.9577 35.8327C21.2151 35.7953 21.4737 35.7624 21.7323 35.7296L21.7326 35.7295L21.7327 35.7295C22.3561 35.6503 22.9798 35.571 23.5875 35.4287C24.8124 35.1419 26.0488 34.8501 27.2184 34.4015C29.9021 33.3718 32.3596 31.9738 34.1591 29.6506C35.267 28.2157 35.9186 26.6074 35.9752 24.7914C35.9996 23.7745 36.0215 22.746 35.9611 21.7355ZM33.1604 25.5764C31.3995 27.9978 29.0037 29.5512 26.1953 30.5223C24.8637 30.9962 23.4808 31.3139 22.0747 31.4692L21.9226 31.4844C20.9565 31.5815 19.9891 31.6787 19.0195 31.7126C17.9227 31.7649 16.8238 31.7572 15.7278 31.6896C13.1829 31.4985 10.6856 31.0525 8.33736 29.9998C5.73206 28.8248 3.6126 27.1159 2.36072 24.5072C2.01401 23.7979 1.76169 23.047 1.6101 22.2732C1.461 21.4831 1.66409 20.6854 1.95071 19.9246C2.51238 18.4374 3.49306 17.2662 4.69996 16.2518C6.05724 15.1049 7.60474 14.3033 9.24222 13.647C9.40417 13.5832 9.49928 13.5386 9.45172 13.3118C9.19673 12.0376 8.9683 10.7583 8.74008 9.48026L8.73452 9.44915C8.5443 8.38801 8.36093 7.32603 8.18441 6.26319C8.16329 6.13782 8.14034 6.01238 8.11737 5.88685C8.04393 5.48539 7.97032 5.08299 7.95563 4.67914C7.90293 3.18556 9.26406 1.63209 10.9825 1.55945C11.7208 1.532 12.4471 1.75124 13.0447 2.182C13.6423 2.61276 14.0766 3.23008 14.278 3.9349C14.343 4.17854 14.375 4.42967 14.3731 4.68169C14.38 7.00531 14.38 9.32808 14.3731 11.65V12.1457C16.7227 11.7303 19.0272 11.8909 21.3652 12.0922V11.678C21.3652 10.9977 21.3671 10.3174 21.3691 9.63721C21.3736 8.0369 21.3782 6.43703 21.3575 4.83716C21.3369 3.25311 22.3793 1.91246 23.7725 1.54161C24.1969 1.43041 24.6395 1.40489 25.074 1.46656C25.5085 1.52823 25.926 1.67584 26.3019 1.90062C26.6777 2.1254 27.0042 2.42277 27.2619 2.77507C27.5196 3.12737 27.7032 3.52743 27.802 3.95147C27.9775 4.68335 27.8501 5.39102 27.7219 6.10311C27.7121 6.15729 27.7023 6.2115 27.6927 6.26574C27.6603 6.44803 27.6279 6.63025 27.5955 6.81244L27.5945 6.81769C27.4823 7.44891 27.3702 8.07972 27.2557 8.71128C27.1143 9.48356 26.9704 10.255 26.8238 11.0256C26.7854 11.2302 26.746 11.4348 26.7067 11.6394L26.7066 11.6396C26.6015 12.1865 26.4963 12.7335 26.4074 13.2825C26.3958 13.3577 26.5539 13.4966 26.6645 13.5476C26.9547 13.6848 27.249 13.8143 27.5434 13.9438C28.047 14.1653 28.5507 14.3868 29.0333 14.6474C30.8623 15.6324 32.4368 16.9068 33.4714 18.7432C33.9916 19.6858 34.3134 20.7233 34.4174 21.7928C34.5858 23.2711 33.9791 24.4422 33.1604 25.5726V25.5764Z" fill="url(#paint2_linear_79_11999)"/>
<defs>
<linearGradient id="paint0_linear_79_11999" x1="0" y1="0" x2="39.5965" y2="4.52442" gradientUnits="userSpaceOnUse">
<stop stop-color="#1C4EFF"/>
<stop offset="1" stop-color="#1C92FF"/>
</linearGradient>
<linearGradient id="paint1_linear_79_11999" x1="0" y1="0" x2="39.5965" y2="4.52442" gradientUnits="userSpaceOnUse">
<stop stop-color="#1C4EFF"/>
<stop offset="1" stop-color="#1C92FF"/>
</linearGradient>
<linearGradient id="paint2_linear_79_11999" x1="0" y1="0" x2="39.5965" y2="4.52442" gradientUnits="userSpaceOnUse">
<stop stop-color="#1C4EFF"/>
<stop offset="1" stop-color="#1C92FF"/>
</linearGradient>
</defs>
</svg>
