<svg width="36" height="36" viewBox="0 0 36 36" fill="none" xmlns="http://www.w3.org/2000/svg">
<path fill-rule="evenodd" clip-rule="evenodd" d="M16.533 0.0338685C13.1364 0.3273 10.0064 1.50029 7.30162 3.49346C5.96528 4.47825 4.57876 5.85734 3.55325 7.2218C1.80964 9.54165 0.635038 12.3586 0.1885 15.2912C-0.0628334 16.942 -0.0628334 19.0537 0.1885 20.7044C0.687641 23.9824 2.02531 26.9565 4.16858 29.5536C4.62537 30.1071 5.87363 31.3566 6.43117 31.8185C9.36948 34.2528 12.7714 35.6412 16.5881 35.964C17.156 36.012 18.8478 36.012 19.4166 35.964C23.2371 35.6417 26.6305 34.2567 29.5735 31.8185C30.1172 31.3681 31.3693 30.1157 31.8196 29.5719C34.2565 26.6289 35.6409 23.2352 35.964 19.4124C36.012 18.8439 36.012 17.1517 35.964 16.5832C35.766 14.2411 35.1978 12.15 34.2068 10.1164C33.5488 8.76615 32.813 7.62572 31.8361 6.44207C31.3681 5.87494 30.1222 4.62872 29.5552 4.16054C26.6136 1.73163 23.2313 0.354233 19.4166 0.0316639C18.9048 -0.0116196 17.0431 -0.0101866 16.533 0.0338685ZM16.2759 5.21117V7.48925H17.2493H18.2228V5.21117V2.93309H19.6187H21.0145V5.24215V7.5512L21.4462 7.59662C21.6835 7.62156 22.1009 7.68289 22.3737 7.73282C25.4378 8.29389 27.361 9.63803 27.8483 11.5592C28.0947 12.5305 27.9987 13.7148 27.5983 14.6437C27.2484 15.4554 26.5404 16.2799 25.7747 16.7672L25.5574 16.9055L25.9033 17.0288C27.5081 17.6009 28.6862 18.7142 29.1456 20.0927C29.3156 20.6027 29.3601 20.8883 29.3795 21.5925C29.4636 24.6472 28.1804 26.7955 25.7001 27.7528C24.6154 28.1714 23.5726 28.3485 21.9788 28.3846L21.0145 28.4065V30.7345V33.0625H19.6187H18.2228V30.7293V28.3961H17.2493H16.2759V30.7293V33.0625H14.88H13.4841V30.7293V28.3961H10.7243H7.96456L7.98693 28.0012C7.99923 27.7839 8.0183 27.2259 8.02932 26.7611C8.04034 26.2963 8.05852 25.8127 8.06969 25.6863L8.09004 25.4567H9.25594C10.6323 25.4567 10.7087 25.4438 10.9884 25.164C11.1306 25.0218 11.1819 24.9341 11.2502 24.7167L11.3352 24.4462V17.8141C11.3352 10.5375 11.3507 11.0255 11.11 10.759C10.8312 10.4504 10.4838 10.392 8.92644 10.392H7.79033V8.94061V7.48925H10.6372H13.4841V5.21117V2.93309H14.88H16.2759V5.21117ZM16.2759 13.388V16.2003L18.287 16.189C20.2855 16.1778 20.2997 16.1772 20.537 16.0922C21.6167 15.7056 22.2728 14.9808 22.4889 13.9359C22.5945 13.4255 22.5723 12.7281 22.4391 12.3695C22.1835 11.6811 21.6197 11.2002 20.7255 10.908C19.9822 10.665 19.0734 10.5766 17.3136 10.576L16.2759 10.5757V13.388ZM16.2759 22.1131V25.1627H18.1691C20.1668 25.1627 20.5133 25.1434 21.1852 24.9944C22.0201 24.8092 22.5836 24.5201 23.0777 24.0233C23.3524 23.7471 23.4211 23.6511 23.5797 23.3215C23.7903 22.8839 23.8624 22.6189 23.9204 22.0697C24.0597 20.7482 23.4283 19.8769 21.9845 19.3982C21.1205 19.1119 20.5721 19.0637 18.1768 19.0635L16.2759 19.0634V22.1131Z" fill="url(#paint0_linear_79_11848)"/>
<defs>
<linearGradient id="paint0_linear_79_11848" x1="0" y1="0" x2="39.5965" y2="4.52442" gradientUnits="userSpaceOnUse">
<stop stop-color="#1C4EFF"/>
<stop offset="1" stop-color="#1C92FF"/>
</linearGradient>
</defs>
</svg>
