<svg width="36" height="28" viewBox="0 0 36 28" fill="none" xmlns="http://www.w3.org/2000/svg">
<path fill-rule="evenodd" clip-rule="evenodd" d="M12.5042 0.0550941C9.98914 0.575087 7.96819 1.20025 6.06786 2.04598L5.42335 2.33282L4.91771 3.13716C2.32271 7.265 0.792965 11.451 0.155787 16.1674C0.0191784 17.1787 0.0011424 17.6304 1.5152e-05 20.0639C-0.000689379 21.5778 0.0232647 22.9333 0.0532072 23.0762C0.101045 23.3042 0.19982 23.4013 0.863418 23.8726C2.48011 25.0207 4.83711 26.324 6.62134 27.0562C7.21054 27.298 9.15434 28 9.23458 28C9.28827 28 9.8445 27.1886 10.273 26.4851C10.7776 25.6567 11.1665 24.9066 11.1639 24.7669C11.163 24.7165 10.838 24.5374 10.4417 24.3686C9.44348 23.9434 8.31221 23.3326 8.31221 23.2188C8.31221 23.1666 8.441 23.0293 8.59839 22.9135L8.88457 22.7032L9.47906 22.9619C10.675 23.4824 12.2548 23.9891 13.5735 24.2755C17.8907 25.2127 22.5075 24.7394 26.5434 22.9458L27.0908 22.7025L27.408 22.9336C27.5824 23.0607 27.7144 23.1972 27.7014 23.2368C27.666 23.3445 26.3786 24.0226 25.558 24.3657C25.1622 24.5313 24.8238 24.7051 24.8061 24.752C24.7458 24.9115 26.3705 27.6506 26.68 27.9113C26.763 27.9812 26.9211 27.9507 27.4817 27.7567C30.3876 26.7514 32.8472 25.4955 35.24 23.7952C35.8616 23.3535 35.891 23.3205 35.9445 23.0039C35.9752 22.8222 36.0001 21.4831 36 20.0282C35.9998 17.8856 35.9754 17.1925 35.8716 16.3818C35.2555 11.5722 33.7582 7.40356 31.1571 3.25641L30.5786 2.3339L29.8725 2.0201C28.8846 1.58111 27.3756 1.0411 26.1721 0.695987C25.0216 0.366032 23.1467 -0.0376365 23.0492 0.0235644C23.0139 0.0457282 22.7788 0.494868 22.5268 1.02165C22.1766 1.75356 22.0415 1.97191 21.9539 1.94767C21.8908 1.93016 21.6965 1.89741 21.5222 1.87482C19.3444 1.59262 16.7176 1.61035 14.0396 1.92544C13.9511 1.93588 13.7934 1.68578 13.4408 0.976038C13.1775 0.446036 12.9304 0.00726306 12.8917 0.000971387C12.8529 -0.00524879 12.6785 0.0190599 12.5042 0.0550941ZM13.0526 11.9278C13.9493 12.2665 14.7113 13.1347 15.0479 14.2012C15.217 14.7372 15.2492 15.7354 15.1157 16.3081C14.8851 17.2983 14.0932 18.3341 13.2648 18.7294C12.1335 19.269 10.807 19.0118 9.90819 18.0785C9.18639 17.329 8.84061 16.443 8.84061 15.3431C8.84061 12.8867 10.9858 11.1472 13.0526 11.9278ZM25.0267 11.9274C26.6731 12.546 27.5859 14.6273 27.0394 16.5166C26.7729 17.4379 26.0057 18.3858 25.2379 18.7426C23.7462 19.4355 21.9636 18.7161 21.217 17.1198C20.4883 15.5618 20.7569 13.8296 21.9081 12.663C22.7799 11.7796 23.9184 11.511 25.0267 11.9274Z" fill="url(#paint0_linear_79_12055)"/>
<defs>
<linearGradient id="paint0_linear_79_12055" x1="0" y1="0" x2="39.266" y2="5.76856" gradientUnits="userSpaceOnUse">
<stop stop-color="#1C4EFF"/>
<stop offset="1" stop-color="#1C92FF"/>
</linearGradient>
</defs>
</svg>
