<svg width="36" height="36" viewBox="0 0 36 36" fill="none" xmlns="http://www.w3.org/2000/svg">
<path fill-rule="evenodd" clip-rule="evenodd" d="M29.6217 0.139562C28.6595 0.481654 27.9205 1.24846 27.5992 2.23817C27.5052 2.5276 27.4829 2.78995 27.5026 3.37618L27.5282 4.13806L25.7555 5.46769L23.9829 6.79724L23.5408 6.58509C23.1627 6.4036 22.9956 6.36831 22.3872 6.34123C21.8347 6.31662 21.591 6.33709 21.297 6.43251C20.2904 6.75934 19.53 7.49999 19.1918 8.48295C19.0122 9.00484 19.0092 9.94343 19.1855 10.4536L19.3114 10.818L17.1968 12.9193L15.0821 15.0207L14.7305 14.896C14.2629 14.7303 13.2952 14.7236 12.8274 14.8831C12.4354 15.0167 12.0795 15.2097 11.7912 15.4452L11.5941 15.606L10.0508 14.8337L8.50743 14.0614V13.5805C8.50743 12.3021 7.63009 11.1229 6.35166 10.683C5.57972 10.4174 4.4017 10.5338 3.75042 10.94C2.70727 11.5907 2.17891 12.5222 2.17891 13.7104C2.17891 15.5276 3.52534 16.8747 5.34163 16.8747C6.14682 16.8747 6.75464 16.6672 7.33321 16.1947L7.53024 16.0339L9.07355 16.8062L10.6169 17.5785V18.0594C10.6169 19.3378 11.4943 20.5171 12.7727 20.9569C13.3111 21.1422 14.248 21.1433 14.7828 20.9593C15.7471 20.6275 16.4784 19.8978 16.8086 18.938C16.9874 18.4183 16.9903 17.4756 16.8147 16.9802L16.69 16.6286L18.7914 14.5139L20.8927 12.3992L21.2571 12.5252C21.7672 12.7015 22.7058 12.6984 23.2277 12.5189C24.2097 12.1811 24.9515 11.4201 25.2773 10.4162C25.3713 10.1267 25.3936 9.86439 25.3739 9.27816L25.3483 8.51628L27.121 7.18665L28.8936 5.8571L29.3357 6.06925C29.7138 6.25074 29.8809 6.28604 30.4893 6.31311C31.0418 6.33772 31.2855 6.31726 31.5795 6.22184C32.9704 5.77026 33.8215 4.60905 33.8215 3.16291C33.8215 1.74694 33.0012 0.594935 31.6658 0.135484C31.1359 -0.0468479 30.1404 -0.0448087 29.6217 0.139562ZM27.96 10.6796C27.8494 10.7525 27.6993 10.9026 27.6265 11.0132C27.498 11.208 27.4939 11.5638 27.4935 22.5528L27.493 33.8914H26.4382H25.3835L25.383 25.7171C25.3826 17.8278 25.3779 17.5357 25.25 17.3417C25.1772 17.2311 25.0271 17.081 24.9165 17.0082C24.7291 16.8846 24.5466 16.8756 22.2192 16.8756C19.8919 16.8756 19.7094 16.8846 19.5219 17.0082C19.4114 17.081 19.2613 17.2311 19.1884 17.3417C19.0605 17.5357 19.0559 17.8278 19.0555 25.7171L19.055 33.8914H18.0002H16.9455L16.945 29.9361C16.9446 26.1798 16.9379 25.9706 16.812 25.7797C16.7392 25.6692 16.589 25.5191 16.4785 25.4462C16.291 25.3227 16.1086 25.3137 13.7812 25.3137C11.4539 25.3137 11.2714 25.3227 11.0839 25.4462C10.9734 25.5191 10.8233 25.6692 10.7504 25.7797C10.6245 25.9706 10.6179 26.1798 10.6174 29.9361L10.6169 33.8914H9.56219H8.50743L8.50694 27.8266C8.50652 22.0038 8.50125 21.7537 8.37397 21.5607C8.30112 21.4502 8.151 21.3 8.04046 21.2272C7.85299 21.1036 7.67052 21.0946 5.34317 21.0946C3.01582 21.0946 2.83335 21.1036 2.64589 21.2272C2.53535 21.3 2.38522 21.4502 2.31237 21.5607C2.1851 21.7537 2.17982 22.0038 2.1794 27.8266L2.17891 33.8914L1.423 33.8919C0.80098 33.8923 0.631516 33.9158 0.466061 34.0249C0.137751 34.2414 0 34.5136 0 34.9462C0 35.3787 0.137751 35.6509 0.466061 35.8675C0.661612 35.9964 1.1385 36 18.0002 36C34.8619 36 35.3388 35.9964 35.5344 35.8675C35.8627 35.6509 36.0004 35.3787 36.0004 34.9462C36.0004 34.5136 35.8627 34.2414 35.5344 34.0249C35.3689 33.9158 35.1995 33.8923 34.5774 33.8919L33.8215 33.8914L33.821 22.5528C33.8206 11.5638 33.8165 11.208 33.6881 11.0132C33.6152 10.9026 33.4651 10.7525 33.3546 10.6796C33.1671 10.5561 32.9846 10.5471 30.6573 10.5471C28.3299 10.5471 28.1474 10.5561 27.96 10.6796Z" fill="url(#paint0_linear_79_8549)"/>
<defs>
<linearGradient id="paint0_linear_79_8549" x1="0" y1="0" x2="39.597" y2="4.52453" gradientUnits="userSpaceOnUse">
<stop stop-color="#1C4EFF"/>
<stop offset="1" stop-color="#1C92FF"/>
</linearGradient>
</defs>
</svg>
