<svg width="36" height="27" viewBox="0 0 36 27" fill="none" xmlns="http://www.w3.org/2000/svg">
<path fill-rule="evenodd" clip-rule="evenodd" d="M0 13.5V25C0 26.1046 0.895431 27 2 27H18H34C35.1046 27 36 26.1046 36 25V13.5V2C36 0.89543 35.1046 0 34 0H18H2C0.89543 0 0 0.895431 0 2V13.5ZM10.4769 6.19581L8.40396 8.2377L7.69823 7.54518L6.99244 6.8526L9.06848 4.81161L11.1445 2.77062L11.8472 3.46223L12.5499 4.15385L10.4769 6.19581ZM28.2694 7.40312C27.9667 7.72927 27.6601 8.04815 27.588 8.11163C27.463 8.22192 27.3622 8.13468 25.3751 6.19768L23.2932 4.16818L24.0036 3.46867L24.714 2.76923L26.7668 4.78966L28.8198 6.81009L28.2694 7.40312ZM19.274 6.19394C22.8703 6.81404 25.5234 9.91585 25.5234 13.5C25.5234 17.5709 22.1314 20.907 17.9916 20.9076C13.3635 20.9082 9.78321 16.7241 10.5798 12.2456C11.2925 8.23881 15.2317 5.49685 19.274 6.19394ZM16.8189 8.20938C15.2485 8.54799 13.8068 9.65035 13.0812 11.0674C12.6227 11.9629 12.834 13.0773 13.5891 13.7458C14.0061 14.115 14.503 14.2882 15.1338 14.2844C15.9973 14.2791 16.7216 13.8002 17.1577 12.9462C17.8559 11.5787 19.3855 10.6595 20.9576 10.6626C21.5196 10.6637 22.2356 10.8027 22.5785 10.9773C22.9463 11.1646 22.9455 11.0541 22.5749 10.5085C21.7772 9.33411 20.5178 8.48845 19.1381 8.20052C18.5533 8.07847 17.4056 8.0829 16.8189 8.20938ZM20.2417 12.7607C19.6007 12.9966 19.212 13.3575 18.8366 14.0655C18.5081 14.6851 17.6173 15.5428 16.9949 15.8388C15.8277 16.3939 14.5439 16.4449 13.4373 15.9801C13.2675 15.9087 13.1128 15.8659 13.0936 15.8848C13.0048 15.9722 13.593 16.776 14.1349 17.3077C15.2348 18.3869 16.4684 18.9 17.9632 18.9C19.5282 18.9 20.7564 18.399 21.8663 17.3077C22.8172 16.3728 23.2588 15.4849 23.1829 14.6607C23.1129 13.9011 22.6445 13.2344 21.9231 12.868C21.5467 12.6768 20.629 12.6182 20.2417 12.7607ZM26.8046 22.1277L24.7148 24.1504L24.0121 23.4637L23.3094 22.7769L25.3825 20.735L27.4554 18.6931L28.1749 19.399L28.8943 20.105L26.8046 22.1277ZM10.5117 20.7692L12.5499 22.7769L11.8472 23.4677L11.1445 24.1586L9.07031 22.1584L6.99609 20.1583L7.69788 19.4599C8.0839 19.0758 8.41634 18.7615 8.43666 18.7615C8.45698 18.7615 9.39073 19.665 10.5117 20.7692Z" fill="url(#paint0_linear_79_12132)"/>
<defs>
<linearGradient id="paint0_linear_79_12132" x1="0" y1="0" x2="39.2035" y2="5.97269" gradientUnits="userSpaceOnUse">
<stop stop-color="#1C4EFF"/>
<stop offset="1" stop-color="#1C92FF"/>
</linearGradient>
</defs>
</svg>
