<svg width="176" height="48" viewBox="0 0 176 48" fill="none" xmlns="http://www.w3.org/2000/svg">
<path d="M24.0788 0.559165C22.753 -0.186388 21.1188 -0.186388 19.793 0.559165L18.9664 1.0232L2.14288 10.4725C0.817092 11.2181 0 12.5947 0 14.0843V33.9157C0 35.4068 0.817092 36.7834 2.14447 37.5275L2.92977 37.9683L19.7946 47.4408C21.1204 48.1864 22.7546 48.1864 24.0804 47.4408L40.9739 37.9528H40.9787L41.7337 37.529C43.0595 36.7834 43.875 35.4068 43.875 33.9172V14.0843C43.875 12.5947 43.0579 11.2165 41.7321 10.4725L24.9054 1.0232L24.0788 0.559165ZM38.0727 34.5623L23.2665 42.8778C22.4431 43.3403 21.4288 43.3403 20.6054 42.8778L5.79913 34.5623C4.97568 34.0998 4.46857 33.2444 4.46857 32.3194V15.6821C4.46857 14.7572 4.97568 13.9018 5.79913 13.4393L20.6054 5.12374C21.4288 4.66125 22.4431 4.66125 23.2665 5.12374L38.0727 13.4393C38.8962 13.9018 39.4032 14.7572 39.4032 15.6821V32.321C39.4048 33.2459 38.8978 34.0998 38.0727 34.5623Z" fill="black"/>
<path d="M7.19824 18.1322V29.8708C7.19824 31.3604 8.01533 32.7386 9.34112 33.4826L11.6668 34.7881V29.7347C11.6668 28.8236 12.166 27.9822 12.9782 27.5259L20.6263 23.2304C21.4369 22.7757 21.9377 21.9327 21.9377 21.0216V17.4748L11.6684 23.2413V19.7285C11.6684 18.8035 12.1755 17.9481 12.999 17.4857L20.6071 13.2103C21.4306 12.7478 22.4448 12.7478 23.2682 13.2103L32.207 18.2328V14.686C32.207 13.7749 31.7078 12.9335 30.8971 12.4772L24.0806 8.6473C22.7548 7.90175 21.1206 7.90175 19.7932 8.6473L9.34112 14.5205C8.01533 15.2645 7.19824 16.6411 7.19824 18.1322Z" fill="black"/>
<path d="M21.9282 36.9955V38.5809C21.9282 39.4533 22.898 39.9978 23.6752 39.5616L34.9206 33.243C35.6964 32.8068 35.6964 31.7163 34.9206 31.2816L33.509 30.4881C32.6982 30.0318 31.6984 30.0334 30.8876 30.4881L23.2381 34.7867C22.4274 35.243 21.9282 36.0844 21.9282 36.9955Z" fill="black"/>
<path d="M33.5081 27.9778L34.9198 28.7713C35.6955 29.2075 36.6652 28.6615 36.6652 27.7906V25.7519C36.6652 24.8409 36.166 23.9994 35.3554 23.5431L33.9437 22.7496C33.168 22.3134 32.1982 22.8594 32.1982 23.7303V25.769C32.1967 26.6816 32.6974 27.523 33.5081 27.9778Z" fill="black"/>
<path d="M55.8408 4.36963H68.1386V6.83173H58.7877V14.3856H67.4278V16.8132H58.7877V27.0979H55.8408V4.36963Z" fill="black"/>
<path d="M72.3389 4.36963H75.2858V24.6333H85.0428V27.0954H72.3389V4.36963Z" fill="black"/>
<path d="M100.153 16.4411H91.2775V24.6333H101.17V27.0954H88.3306V4.36963H100.663V6.83174H91.2775V14.0135H100.153V16.4411Z" fill="black"/>
<path d="M117.5 27.0954L114.586 22.0726C113.4 20.1503 112.654 18.9032 111.943 17.5871H111.876C111.233 18.9032 110.589 20.1158 109.403 22.1047L106.659 27.0954H103.271L110.25 15.5982L103.541 4.36963H106.963L109.98 9.69803C110.826 11.1817 111.471 12.3277 112.08 13.5428H112.182C112.825 12.1946 113.4 11.1497 114.249 9.69803L117.365 4.36963H120.752L113.806 15.4282L120.921 27.0954H117.5Z" fill="black"/>
<path d="M136.167 16.4411H127.292V24.6333H137.185V27.0954H124.345V4.36963H136.677V6.83174H127.292V14.0135H136.167V16.4411Z" fill="black"/>
<path d="M140.063 25.3433C140.063 24.0962 140.91 23.2189 142.096 23.2189C143.282 23.2189 144.095 24.0962 144.095 25.3433C144.095 26.5559 143.315 27.4678 142.061 27.4678C140.875 27.4678 140.063 26.5583 140.063 25.3433Z" fill="black"/>
<path d="M150.835 4.36963V27.0954H147.888V4.36963H150.835Z" fill="black"/>
<path d="M175.5 15.4972C175.5 23.3198 170.724 27.4676 164.896 27.4676C158.866 27.4676 154.629 22.8145 154.629 15.9359C154.629 8.71965 159.137 4 165.233 4C171.468 4 175.5 8.75416 175.5 15.4972ZM157.781 15.8694C157.781 20.7246 160.424 25.0745 165.065 25.0745C169.74 25.0745 172.382 20.7936 172.382 15.6328C172.382 11.1152 170.01 6.3931 165.1 6.3931C160.22 6.3931 157.781 10.8786 157.781 15.8694Z" fill="black"/>
<path d="M61.9872 41.0892C61.6034 41.2815 60.8332 41.4712 59.8451 41.4712C57.5619 41.4737 55.8408 40.0369 55.8408 37.3899C55.8408 34.8637 57.5619 33.1533 60.0755 33.1533C61.0858 33.1533 61.7223 33.3677 61.9996 33.5131L61.747 34.3634C61.3508 34.1712 60.7837 34.0282 60.1102 34.0282C58.2108 34.0282 56.9478 35.2383 56.9478 37.3554C56.9478 39.3295 58.0894 40.5988 60.0631 40.5988C60.6995 40.5988 61.3508 40.4682 61.7717 40.2636L61.9872 41.0892Z" fill="black"/>
<path d="M63.2253 37.3678C63.2253 36.6852 63.2129 36.0986 63.1782 35.5613H64.1044L64.1416 36.6975H64.1885C64.4536 35.9187 65.09 35.4282 65.8008 35.4282C65.9221 35.4282 66.0063 35.4405 66.1004 35.4652V36.4584C65.9914 36.4338 65.8849 36.4214 65.7388 36.4214C64.9935 36.4214 64.4635 36.9834 64.3199 37.7745C64.295 37.9174 64.2728 38.085 64.2728 38.2649V41.3531H63.2253V37.3678Z" fill="black"/>
<path d="M67.8434 35.5588L69.1188 38.9821C69.25 39.3641 69.3961 39.8201 69.4927 40.1676H69.5174C69.6264 39.8201 69.7453 39.3765 69.8914 38.9575L71.0454 35.5588H72.1647L70.5773 39.6895C69.8196 41.6759 69.302 42.6938 68.5814 43.3173C68.0638 43.7733 67.5463 43.9507 67.2812 44L67.0163 43.1152C67.2812 43.0314 67.6304 42.8638 67.9424 42.6001C68.2322 42.3734 68.5913 41.9667 68.8315 41.427C68.8786 41.3185 68.9157 41.2347 68.9157 41.1756C68.9157 41.1164 68.8909 41.0326 68.8439 40.8996L66.6919 35.5613H67.8434V35.5588Z" fill="black"/>
<path d="M73.1241 37.4516C73.1241 36.7098 73.0994 36.1109 73.0771 35.5613H74.028L74.0751 36.5545H74.0998C74.5332 35.8472 75.2192 35.4282 76.1676 35.4282C77.5742 35.4282 78.6341 36.6137 78.6341 38.3734C78.6341 40.4559 77.3588 41.4861 75.9869 41.4861C75.2167 41.4861 74.5431 41.151 74.194 40.5767H74.1692V43.724H73.1217V37.4516H73.1241ZM74.1692 38.9945C74.1692 39.1497 74.194 39.2927 74.2162 39.4258C74.4094 40.1553 75.0458 40.658 75.8036 40.658C76.9229 40.658 77.5717 39.7486 77.5717 38.4202C77.5717 37.2594 76.9576 36.2662 75.8408 36.2662C75.1201 36.2662 74.4466 36.7813 74.241 37.5699C74.2038 37.7006 74.1692 37.8583 74.1692 38.0012V38.9945Z" fill="black"/>
<path d="M81.2383 33.8953V35.5588H82.7539V36.3598H81.2383V39.4849C81.2383 40.2021 81.4439 40.6112 82.0333 40.6112C82.3106 40.6112 82.5137 40.5742 82.6474 40.5397L82.6945 41.3309C82.4914 41.4147 82.1645 41.4738 81.7559 41.4738C81.2631 41.4738 80.8669 41.3185 80.6118 41.0302C80.3122 40.7197 80.2032 40.2046 80.2032 39.5219V36.3623H79.3018V35.5613H80.2032V34.1738L81.2383 33.8953Z" fill="black"/>
<path d="M89.1405 38.4079C89.1405 40.5496 87.6496 41.4837 86.2407 41.4837C84.6656 41.4837 83.4497 40.3352 83.4497 38.504C83.4497 36.5644 84.7251 35.4282 86.3372 35.4282C88.0112 35.4282 89.1405 36.6359 89.1405 38.4079ZM84.5221 38.4695C84.5221 39.7388 85.2551 40.695 86.2901 40.695C87.3005 40.695 88.0583 39.7486 88.0583 38.4449C88.0583 37.464 87.5655 36.2193 86.3149 36.2193C85.0643 36.2169 84.5221 37.3678 84.5221 38.4695Z" fill="black"/>
<path d="M99.893 37.8089C99.8332 36.6826 99.7614 35.332 99.7743 34.3264H99.7374C99.4596 35.2728 99.1229 36.2784 98.7143 37.3899L97.2829 41.3036H96.488L95.178 37.4614C94.7941 36.3252 94.4672 35.2827 94.2394 34.3264H94.2147C94.1899 35.332 94.1305 36.685 94.0586 37.8927L93.8407 41.3529H92.8428L93.4074 33.2839H94.7422L96.1264 37.1853C96.4633 38.1786 96.7406 39.0658 96.9436 39.9038H96.9783C97.1838 39.0905 97.4711 38.2032 97.8327 37.1853L99.2763 33.2839H100.611L101.117 41.3529H100.093L99.893 37.8089Z" fill="black"/>
<path d="M105.99 41.3531L105.906 40.6235H105.871C105.547 41.0795 104.92 41.4861 104.09 41.4861C102.912 41.4861 102.311 40.6605 102.311 39.8226C102.311 38.4227 103.561 37.6562 105.81 37.6685V37.5478C105.81 37.0696 105.678 36.207 104.487 36.207C103.945 36.207 103.381 36.3746 102.972 36.6383L102.731 35.9433C103.212 35.6328 103.91 35.4282 104.643 35.4282C106.424 35.4282 106.857 36.6383 106.857 37.7991V39.9655C106.857 40.4683 106.882 40.9587 106.953 41.3531H105.99ZM105.835 38.3956C104.681 38.3709 103.368 38.5755 103.368 39.6993C103.368 40.382 103.826 40.7049 104.366 40.7049C105.124 40.7049 105.604 40.2267 105.773 39.7363C105.807 39.6279 105.832 39.5096 105.832 39.4011V38.3956H105.835Z" fill="black"/>
<path d="M108.564 37.3678C108.564 36.6852 108.552 36.0986 108.515 35.5613H109.441L109.475 36.6975H109.525C109.79 35.9187 110.426 35.4282 111.137 35.4282C111.258 35.4282 111.343 35.4405 111.436 35.4652V36.4584C111.328 36.4338 111.219 36.4214 111.075 36.4214C110.329 36.4214 109.8 36.9834 109.656 37.7745C109.631 37.9174 109.609 38.085 109.609 38.2649V41.3531H108.564V37.3678Z" fill="black"/>
<path d="M113.591 38.2157H113.616C113.759 38.0111 113.965 37.7597 114.133 37.5576L115.842 35.5589H117.117L114.868 37.9421L117.432 41.3531H116.144L114.135 38.5755L113.593 39.1744V41.3531H112.546V32.8552H113.593V38.2157H113.591Z" fill="black"/>
<path d="M118.773 38.647C118.798 40.0715 119.712 40.658 120.769 40.658C121.526 40.658 121.985 40.5274 122.381 40.3598L122.562 41.114C122.188 41.2816 121.551 41.4738 120.625 41.4738C118.832 41.4738 117.762 40.3007 117.762 38.5533C117.762 36.8059 118.798 35.4282 120.494 35.4282C122.393 35.4282 122.899 37.0918 122.899 38.1565C122.899 38.3709 122.874 38.5385 122.864 38.647H118.773ZM121.875 37.8928C121.888 37.2224 121.598 36.1799 120.408 36.1799C119.338 36.1799 118.867 37.1608 118.783 37.8928H121.875Z" fill="black"/>
<path d="M125.484 33.8953V35.5588H127V36.3598H125.484V39.4849C125.484 40.2021 125.69 40.6112 126.279 40.6112C126.556 40.6112 126.76 40.5742 126.893 40.5397L126.94 41.3309C126.737 41.4147 126.411 41.4738 126.002 41.4738C125.509 41.4738 125.112 41.3185 124.858 41.0302C124.558 40.7197 124.449 40.2046 124.449 39.5219V36.3623H123.548V35.5613H124.449V34.1738L125.484 33.8953Z" fill="black"/>
<path d="M129.367 33.9322C129.379 34.292 129.114 34.5779 128.693 34.5779C128.319 34.5779 128.057 34.2896 128.057 33.9322C128.057 33.5625 128.334 33.2742 128.718 33.2742C129.114 33.2742 129.367 33.5601 129.367 33.9322ZM128.189 41.353V35.5588H129.246V41.353H128.189Z" fill="black"/>
<path d="M131.004 37.1288C131.004 36.5299 130.991 36.0394 130.955 35.5613H131.893L131.953 36.52H131.978C132.267 35.9704 132.938 35.4307 133.901 35.4307C134.706 35.4307 135.956 35.9088 135.956 37.8977V41.358H134.899V38.0185C134.899 37.0844 134.55 36.3056 133.552 36.3056C132.854 36.3056 132.314 36.796 132.133 37.3826C132.086 37.5132 132.061 37.6931 132.061 37.8731V41.3555H131.004V37.1288Z" fill="black"/>
<path d="M142.692 35.5588C142.667 35.9778 142.643 36.4436 142.643 37.1509V40.5151C142.643 41.8435 142.378 42.6568 141.814 43.1596C141.248 43.687 140.432 43.8546 139.696 43.8546C138.998 43.8546 138.228 43.687 137.759 43.3764L138.025 42.5755C138.409 42.8145 139.01 43.0314 139.734 43.0314C140.816 43.0314 141.61 42.4695 141.61 41.008V40.3623H141.586C141.261 40.902 140.635 41.3308 139.734 41.3308C138.29 41.3308 137.257 40.1109 137.257 38.5064C137.257 36.5446 138.545 35.4307 139.879 35.4307C140.889 35.4307 141.442 35.9581 141.694 36.4362H141.719L141.769 35.5613H142.692V35.5588ZM141.598 37.8459C141.598 37.666 141.586 37.5108 141.539 37.3678C141.345 36.7566 140.828 36.2538 140.06 36.2538C139.05 36.2538 138.329 37.1041 138.329 38.4448C138.329 39.581 138.906 40.5274 140.05 40.5274C140.699 40.5274 141.288 40.1207 141.519 39.4504C141.579 39.2705 141.603 39.0684 141.603 38.8885V37.8459H141.598Z" fill="black"/>
<path d="M152.06 41.353C151.833 41.1262 151.615 40.897 151.302 40.5618C150.604 41.2076 149.824 41.4836 148.932 41.4836C147.358 41.4836 146.444 40.4312 146.444 39.2211C146.444 38.1195 147.105 37.3653 148.031 36.8625V36.8256C147.61 36.2981 147.358 35.7116 147.358 35.1373C147.358 34.1564 148.069 33.1509 149.413 33.1509C150.423 33.1509 151.206 33.8212 151.206 34.8638C151.206 35.714 150.713 36.3844 149.426 37.0178V37.0548C150.112 37.8459 150.882 38.7307 151.396 39.3049C151.77 38.743 152.023 37.9642 152.179 36.9463H153.142C152.925 38.2156 152.578 39.2211 151.977 39.926C152.409 40.3819 152.83 40.8354 153.311 41.3505H152.06V41.353ZM150.785 39.9654C150.304 39.438 149.401 38.4571 148.499 37.4269C148.066 37.7029 147.451 38.218 147.451 39.0658C147.451 39.9876 148.138 40.6949 149.111 40.6949C149.812 40.6949 150.401 40.3844 150.785 39.9654ZM148.321 35.0437C148.321 35.6179 148.586 36.0615 148.935 36.4928C149.752 36.027 150.282 35.5957 150.282 34.913C150.282 34.4226 150.005 33.8705 149.344 33.8705C148.668 33.873 148.321 34.4226 148.321 35.0437Z" fill="black"/>
<path d="M156.812 33.3801C157.316 33.2963 157.977 33.2249 158.82 33.2249C159.855 33.2249 160.613 33.4639 161.092 33.8952C161.538 34.2772 161.803 34.8638 161.803 35.5834C161.803 36.313 161.586 36.8872 161.177 37.3062C160.625 37.8928 159.721 38.191 158.7 38.191C158.388 38.191 158.099 38.1786 157.859 38.1195V41.3505H156.814V33.3801H156.812ZM157.859 37.2717C158.086 37.3308 158.376 37.3555 158.725 37.3555C159.988 37.3555 160.758 36.7443 160.758 35.6327C160.758 34.568 160 34.0529 158.847 34.0529C158.388 34.0529 158.042 34.0899 157.861 34.1367V37.2717H157.859Z" fill="black"/>
<path d="M163.21 33.3924C163.739 33.284 164.497 33.2249 165.218 33.2249C166.337 33.2249 167.058 33.4294 167.563 33.8829C167.971 34.2427 168.2 34.7923 168.2 35.4159C168.2 36.4806 167.526 37.1879 166.671 37.4738V37.5107C167.298 37.7252 167.669 38.3019 167.863 39.1398C168.128 40.2661 168.32 41.0425 168.489 41.3555H167.407C167.275 41.1287 167.095 40.4337 166.865 39.4282C166.624 38.3142 166.191 37.8952 165.24 37.8607H164.255V41.3555H163.21V33.3924ZM164.255 37.0671H165.324C166.444 37.0671 167.152 36.4559 167.152 35.5342C167.152 34.4916 166.394 34.0382 165.287 34.0258C164.782 34.0258 164.421 34.0727 164.252 34.122V37.0671H164.255Z" fill="black"/>
</svg>
