<svg width="176" height="48" viewBox="0 0 176 48" fill="none" xmlns="http://www.w3.org/2000/svg">
<path d="M24.0788 0.559165C22.753 -0.186388 21.1188 -0.186388 19.793 0.559165L18.9664 1.0232L2.14288 10.4725C0.817092 11.2181 0 12.5947 0 14.0843V33.9157C0 35.4068 0.817092 36.7834 2.14447 37.5275L2.92977 37.9683L19.7946 47.4408C21.1204 48.1864 22.7546 48.1864 24.0804 47.4408L40.9739 37.9528H40.9787L41.7337 37.529C43.0595 36.7834 43.875 35.4068 43.875 33.9172V14.0843C43.875 12.5947 43.0579 11.2165 41.7321 10.4725L24.9054 1.0232L24.0788 0.559165ZM38.0727 34.5623L23.2665 42.8778C22.4431 43.3403 21.4288 43.3403 20.6054 42.8778L5.79913 34.5623C4.97568 34.0998 4.46857 33.2444 4.46857 32.3194V15.6821C4.46857 14.7572 4.97568 13.9018 5.79913 13.4393L20.6054 5.12374C21.4288 4.66125 22.4431 4.66125 23.2665 5.12374L38.0727 13.4393C38.8962 13.9018 39.4032 14.7572 39.4032 15.6821V32.321C39.4048 33.2459 38.8978 34.0998 38.0727 34.5623Z" fill="white"/>
<path d="M7.19824 18.132V29.8706C7.19824 31.3602 8.01533 32.7384 9.34112 33.4824L11.6668 34.7879V29.7345C11.6668 28.8234 12.166 27.982 12.9782 27.5257L20.6263 23.2302C21.4369 22.7755 21.9377 21.9325 21.9377 21.0214V17.4746L11.6684 23.2411V19.7283C11.6684 18.8033 12.1755 17.9479 12.999 17.4855L20.6071 13.2101C21.4306 12.7476 22.4448 12.7476 23.2682 13.2101L32.207 18.2326V14.6858C32.207 13.7747 31.7078 12.9333 30.8971 12.477L24.0806 8.64705C22.7548 7.9015 21.1206 7.9015 19.7932 8.64705L9.34112 14.5203C8.01533 15.2643 7.19824 16.6409 7.19824 18.132Z" fill="white"/>
<path d="M21.9282 36.9955V38.5809C21.9282 39.4533 22.898 39.9978 23.6752 39.5616L34.9206 33.243C35.6964 32.8068 35.6964 31.7163 34.9206 31.2816L33.509 30.4881C32.6982 30.0318 31.6984 30.0334 30.8876 30.4881L23.2381 34.7867C22.4274 35.243 21.9282 36.0844 21.9282 36.9955Z" fill="white"/>
<path d="M33.5081 27.9773L34.9198 28.7708C35.6955 29.207 36.6652 28.661 36.6652 27.7901V25.7514C36.6652 24.8404 36.166 23.9989 35.3554 23.5426L33.9437 22.7491C33.168 22.3129 32.1982 22.8589 32.1982 23.7298V25.7685C32.1967 26.6811 32.6974 27.5225 33.5081 27.9773Z" fill="white"/>
<path d="M55.8408 4.36914H68.1386V6.83124H58.7877V14.3851H67.4278V16.8127H58.7877V27.0974H55.8408V4.36914Z" fill="white"/>
<path d="M72.3389 4.36914H75.2858V24.6328H85.0428V27.0949H72.3389V4.36914Z" fill="white"/>
<path d="M100.153 16.4406H91.2775V24.6328H101.17V27.0949H88.3306V4.36914H100.663V6.83125H91.2775V14.013H100.153V16.4406Z" fill="white"/>
<path d="M117.5 27.0949L114.586 22.0721C113.4 20.1498 112.654 18.9027 111.943 17.5866H111.876C111.233 18.9027 110.589 20.1153 109.403 22.1042L106.659 27.0949H103.271L110.25 15.5977L103.541 4.36914H106.963L109.98 9.69754C110.826 11.1812 111.471 12.3272 112.08 13.5423H112.182C112.825 12.1941 113.4 11.1492 114.249 9.69754L117.365 4.36914H120.752L113.806 15.4277L120.921 27.0949H117.5Z" fill="white"/>
<path d="M136.167 16.4406H127.292V24.6328H137.185V27.0949H124.345V4.36914H136.677V6.83125H127.292V14.013H136.167V16.4406Z" fill="white"/>
<path d="M140.063 25.3432C140.063 24.0961 140.91 23.2188 142.096 23.2188C143.282 23.2188 144.095 24.0961 144.095 25.3432C144.095 26.5558 143.315 27.4676 142.061 27.4676C140.875 27.4676 140.063 26.5582 140.063 25.3432Z" fill="white"/>
<path d="M150.835 4.36914V27.0949H147.888V4.36914H150.835Z" fill="white"/>
<path d="M175.5 15.4972C175.5 23.3198 170.724 27.4676 164.896 27.4676C158.866 27.4676 154.629 22.8145 154.629 15.9359C154.629 8.71965 159.137 4 165.233 4C171.468 4 175.5 8.75416 175.5 15.4972ZM157.781 15.8694C157.781 20.7246 160.424 25.0745 165.065 25.0745C169.74 25.0745 172.382 20.7936 172.382 15.6328C172.382 11.1152 170.01 6.3931 165.1 6.3931C160.22 6.3931 157.781 10.8786 157.781 15.8694Z" fill="white"/>
<path d="M61.9872 41.0892C61.6034 41.2815 60.8332 41.4712 59.8451 41.4712C57.5619 41.4737 55.8408 40.0369 55.8408 37.3899C55.8408 34.8637 57.5619 33.1533 60.0755 33.1533C61.0858 33.1533 61.7223 33.3677 61.9996 33.5131L61.747 34.3634C61.3508 34.1712 60.7837 34.0282 60.1102 34.0282C58.2108 34.0282 56.9478 35.2383 56.9478 37.3554C56.9478 39.3295 58.0894 40.5988 60.0631 40.5988C60.6995 40.5988 61.3508 40.4682 61.7717 40.2636L61.9872 41.0892Z" fill="white"/>
<path d="M63.2253 37.3673C63.2253 36.6847 63.2129 36.0981 63.1782 35.5608H64.1044L64.1416 36.697H64.1885C64.4536 35.9182 65.09 35.4277 65.8008 35.4277C65.9221 35.4277 66.0063 35.44 66.1004 35.4647V36.4579C65.9914 36.4333 65.8849 36.4209 65.7388 36.4209C64.9935 36.4209 64.4635 36.9829 64.3199 37.774C64.295 37.9169 64.2728 38.0845 64.2728 38.2644V41.3526H63.2253V37.3673Z" fill="white"/>
<path d="M67.8434 35.5586L69.1188 38.9819C69.25 39.3639 69.3961 39.8199 69.4927 40.1674H69.5174C69.6264 39.8199 69.7453 39.3763 69.8914 38.9573L71.0454 35.5586H72.1647L70.5773 39.6893C69.8196 41.6757 69.302 42.6936 68.5814 43.3171C68.0638 43.7731 67.5463 43.9505 67.2812 43.9998L67.0163 43.115C67.2812 43.0312 67.6304 42.8636 67.9424 42.5999C68.2322 42.3732 68.5913 41.9665 68.8315 41.4268C68.8786 41.3183 68.9157 41.2345 68.9157 41.1754C68.9157 41.1162 68.8909 41.0324 68.8439 40.8994L66.6919 35.5611H67.8434V35.5586Z" fill="white"/>
<path d="M73.1241 37.4511C73.1241 36.7093 73.0994 36.1104 73.0771 35.5608H74.028L74.0751 36.554H74.0998C74.5332 35.8467 75.2192 35.4277 76.1676 35.4277C77.5742 35.4277 78.6341 36.6132 78.6341 38.3729C78.6341 40.4554 77.3588 41.4856 75.9869 41.4856C75.2167 41.4856 74.5431 41.1505 74.194 40.5762H74.1692V43.7235H73.1217V37.4511H73.1241ZM74.1692 38.994C74.1692 39.1492 74.194 39.2922 74.2162 39.4253C74.4094 40.1548 75.0458 40.6575 75.8036 40.6575C76.9229 40.6575 77.5717 39.7481 77.5717 38.4197C77.5717 37.2589 76.9576 36.2657 75.8408 36.2657C75.1201 36.2657 74.4466 36.7808 74.241 37.5694C74.2038 37.7001 74.1692 37.8578 74.1692 38.0007V38.994Z" fill="white"/>
<path d="M81.2383 33.8955V35.559H82.7539V36.36H81.2383V39.4851C81.2383 40.2023 81.4439 40.6114 82.0333 40.6114C82.3106 40.6114 82.5137 40.5744 82.6474 40.5399L82.6945 41.3311C82.4914 41.4149 82.1645 41.474 81.7559 41.474C81.2631 41.474 80.8669 41.3187 80.6118 41.0304C80.3122 40.7199 80.2032 40.2048 80.2032 39.5221V36.3625H79.3018V35.5615H80.2032V34.174L81.2383 33.8955Z" fill="white"/>
<path d="M89.1405 38.4074C89.1405 40.5491 87.6496 41.4832 86.2407 41.4832C84.6656 41.4832 83.4497 40.3347 83.4497 38.5035C83.4497 36.5639 84.7251 35.4277 86.3372 35.4277C88.0112 35.4277 89.1405 36.6354 89.1405 38.4074ZM84.5221 38.469C84.5221 39.7383 85.2551 40.6945 86.2901 40.6945C87.3005 40.6945 88.0583 39.7481 88.0583 38.4444C88.0583 37.4635 87.5655 36.2188 86.3149 36.2188C85.0643 36.2164 84.5221 37.3673 84.5221 38.469Z" fill="white"/>
<path d="M99.893 37.8082C99.8332 36.6819 99.7614 35.3313 99.7743 34.3257H99.7374C99.4596 35.2721 99.1229 36.2777 98.7143 37.3892L97.2829 41.3029H96.488L95.178 37.4607C94.7941 36.3245 94.4672 35.282 94.2394 34.3257H94.2147C94.1899 35.3313 94.1305 36.6843 94.0586 37.892L93.8407 41.3522H92.8428L93.4074 33.2832H94.7422L96.1264 37.1846C96.4633 38.1779 96.7406 39.0651 96.9436 39.9031H96.9783C97.1838 39.0898 97.4711 38.2025 97.8327 37.1846L99.2763 33.2832H100.611L101.117 41.3522H100.093L99.893 37.8082Z" fill="white"/>
<path d="M105.99 41.3526L105.906 40.623H105.871C105.547 41.079 104.92 41.4856 104.09 41.4856C102.912 41.4856 102.311 40.66 102.311 39.8221C102.311 38.4222 103.561 37.6557 105.81 37.668V37.5473C105.81 37.0691 105.678 36.2065 104.487 36.2065C103.945 36.2065 103.381 36.3741 102.972 36.6378L102.731 35.9428C103.212 35.6323 103.91 35.4277 104.643 35.4277C106.424 35.4277 106.857 36.6378 106.857 37.7986V39.965C106.857 40.4678 106.882 40.9582 106.953 41.3526H105.99ZM105.835 38.3951C104.681 38.3704 103.368 38.575 103.368 39.6988C103.368 40.3815 103.826 40.7044 104.366 40.7044C105.124 40.7044 105.604 40.2262 105.773 39.7358C105.807 39.6274 105.832 39.5091 105.832 39.4006V38.3951H105.835Z" fill="white"/>
<path d="M108.564 37.3673C108.564 36.6847 108.552 36.0981 108.515 35.5608H109.441L109.475 36.697H109.525C109.79 35.9182 110.426 35.4277 111.137 35.4277C111.258 35.4277 111.343 35.44 111.436 35.4647V36.4579C111.328 36.4333 111.219 36.4209 111.075 36.4209C110.329 36.4209 109.8 36.9829 109.656 37.774C109.631 37.9169 109.609 38.0845 109.609 38.2644V41.3526H108.564V37.3673Z" fill="white"/>
<path d="M113.591 38.216H113.616C113.759 38.0114 113.965 37.76 114.133 37.5579L115.842 35.5592H117.117L114.868 37.9424L117.432 41.3534H116.144L114.135 38.5758L113.593 39.1747V41.3534H112.546V32.8555H113.593V38.216H113.591Z" fill="white"/>
<path d="M118.773 38.6465C118.798 40.071 119.712 40.6575 120.769 40.6575C121.526 40.6575 121.985 40.5269 122.381 40.3593L122.562 41.1135C122.188 41.2811 121.551 41.4733 120.625 41.4733C118.832 41.4733 117.762 40.3002 117.762 38.5528C117.762 36.8054 118.798 35.4277 120.494 35.4277C122.393 35.4277 122.899 37.0913 122.899 38.156C122.899 38.3704 122.874 38.538 122.864 38.6465H118.773ZM121.875 37.8923C121.888 37.2219 121.598 36.1794 120.408 36.1794C119.338 36.1794 118.867 37.1603 118.783 37.8923H121.875Z" fill="white"/>
<path d="M125.484 33.8955V35.559H127V36.36H125.484V39.4851C125.484 40.2023 125.69 40.6114 126.279 40.6114C126.556 40.6114 126.76 40.5744 126.893 40.5399L126.94 41.3311C126.737 41.4149 126.411 41.474 126.002 41.474C125.509 41.474 125.112 41.3187 124.858 41.0304C124.558 40.7199 124.449 40.2048 124.449 39.5221V36.3625H123.548V35.5615H124.449V34.174L125.484 33.8955Z" fill="white"/>
<path d="M129.367 33.9324C129.379 34.2922 129.114 34.5781 128.693 34.5781C128.319 34.5781 128.057 34.2898 128.057 33.9324C128.057 33.5627 128.334 33.2744 128.718 33.2744C129.114 33.2744 129.367 33.5603 129.367 33.9324ZM128.189 41.3532V35.559H129.246V41.3532H128.189Z" fill="white"/>
<path d="M131.004 37.1288C131.004 36.5299 130.991 36.0394 130.955 35.5613H131.893L131.953 36.52H131.978C132.267 35.9704 132.938 35.4307 133.901 35.4307C134.706 35.4307 135.956 35.9088 135.956 37.8977V41.358H134.899V38.0185C134.899 37.0844 134.55 36.3056 133.552 36.3056C132.854 36.3056 132.314 36.796 132.133 37.3826C132.086 37.5132 132.061 37.6931 132.061 37.8731V41.3555H131.004V37.1288Z" fill="white"/>
<path d="M142.692 35.5588C142.667 35.9778 142.643 36.4436 142.643 37.1509V40.5151C142.643 41.8435 142.378 42.6568 141.814 43.1596C141.248 43.687 140.432 43.8546 139.696 43.8546C138.998 43.8546 138.228 43.687 137.759 43.3764L138.025 42.5755C138.409 42.8145 139.01 43.0314 139.734 43.0314C140.816 43.0314 141.61 42.4695 141.61 41.008V40.3623H141.586C141.261 40.902 140.635 41.3308 139.734 41.3308C138.29 41.3308 137.257 40.1109 137.257 38.5064C137.257 36.5446 138.545 35.4307 139.879 35.4307C140.889 35.4307 141.442 35.9581 141.694 36.4362H141.719L141.769 35.5613H142.692V35.5588ZM141.598 37.8459C141.598 37.666 141.586 37.5108 141.539 37.3678C141.345 36.7566 140.828 36.2538 140.06 36.2538C139.05 36.2538 138.329 37.1041 138.329 38.4448C138.329 39.581 138.906 40.5274 140.05 40.5274C140.699 40.5274 141.288 40.1207 141.519 39.4504C141.579 39.2705 141.603 39.0684 141.603 38.8885V37.8459H141.598Z" fill="white"/>
<path d="M152.06 41.3525C151.833 41.1257 151.615 40.8965 151.302 40.5613C150.604 41.2071 149.824 41.4831 148.932 41.4831C147.358 41.4831 146.444 40.4307 146.444 39.2206C146.444 38.119 147.105 37.3648 148.031 36.862V36.8251C147.61 36.2976 147.358 35.7111 147.358 35.1368C147.358 34.1559 148.069 33.1504 149.413 33.1504C150.423 33.1504 151.206 33.8207 151.206 34.8633C151.206 35.7135 150.713 36.3839 149.426 37.0173V37.0543C150.112 37.8454 150.882 38.7302 151.396 39.3044C151.77 38.7425 152.023 37.9637 152.179 36.9458H153.142C152.925 38.2151 152.578 39.2206 151.977 39.9255C152.409 40.3814 152.83 40.8349 153.311 41.35H152.06V41.3525ZM150.785 39.9649C150.304 39.4375 149.401 38.4566 148.499 37.4264C148.066 37.7024 147.451 38.2175 147.451 39.0653C147.451 39.9871 148.138 40.6944 149.111 40.6944C149.812 40.6944 150.401 40.3839 150.785 39.9649ZM148.321 35.0432C148.321 35.6174 148.586 36.061 148.935 36.4923C149.752 36.0265 150.282 35.5952 150.282 34.9125C150.282 34.4221 150.005 33.87 149.344 33.87C148.668 33.8725 148.321 34.4221 148.321 35.0432Z" fill="white"/>
<path d="M156.812 33.3798C157.316 33.296 157.977 33.2246 158.82 33.2246C159.855 33.2246 160.613 33.4636 161.092 33.8949C161.538 34.2769 161.803 34.8635 161.803 35.5831C161.803 36.3127 161.586 36.8869 161.177 37.3059C160.625 37.8925 159.721 38.1907 158.7 38.1907C158.388 38.1907 158.099 38.1783 157.859 38.1192V41.3502H156.814V33.3798H156.812ZM157.859 37.2714C158.086 37.3305 158.376 37.3552 158.725 37.3552C159.988 37.3552 160.758 36.744 160.758 35.6324C160.758 34.5677 160 34.0526 158.847 34.0526C158.388 34.0526 158.042 34.0896 157.861 34.1364V37.2714H157.859Z" fill="white"/>
<path d="M163.21 33.3921C163.739 33.2837 164.497 33.2246 165.218 33.2246C166.337 33.2246 167.058 33.4291 167.563 33.8826C167.971 34.2424 168.2 34.792 168.2 35.4156C168.2 36.4803 167.526 37.1876 166.671 37.4735V37.5104C167.298 37.7249 167.669 38.3016 167.863 39.1395C168.128 40.2658 168.32 41.0422 168.489 41.3552H167.407C167.275 41.1284 167.095 40.4334 166.865 39.4279C166.624 38.3139 166.191 37.8949 165.24 37.8604H164.255V41.3552H163.21V33.3921ZM164.255 37.0668H165.324C166.444 37.0668 167.152 36.4556 167.152 35.5339C167.152 34.4913 166.394 34.0379 165.287 34.0255C164.782 34.0255 164.421 34.0724 164.252 34.1217V37.0668H164.255Z" fill="white"/>
</svg>
