<svg width="32" height="32" viewBox="0 0 32 32" fill="none" xmlns="http://www.w3.org/2000/svg">
<path opacity="0.3" fill-rule="evenodd" clip-rule="evenodd" d="M1.6 0C2.48366 0 3.2 0.716344 3.2 1.6V27.2C3.2 28.0837 3.91634 28.8 4.8 28.8H30.4C31.2837 28.8 32 29.5163 32 30.4C32 31.2837 31.2837 32 30.4 32H4.8C2.14903 32 0 29.851 0 27.2V1.6C0 0.716344 0.716344 0 1.6 0Z" fill="#1C56FF"/>
<path fill-rule="evenodd" clip-rule="evenodd" d="M8.00088 9.6002C8.88453 9.6002 9.60088 10.3165 9.60088 11.2002V24.0002C9.60088 24.8839 8.88453 25.6002 8.00088 25.6002C7.11722 25.6002 6.40088 24.8839 6.40088 24.0002V11.2002C6.40088 10.3165 7.11722 9.6002 8.00088 9.6002Z" fill="url(#paint0_linear_79_9091)"/>
<path fill-rule="evenodd" clip-rule="evenodd" d="M14.4009 19.2002C15.2845 19.2002 16.0009 19.9165 16.0009 20.8002V24.0002C16.0009 24.8839 15.2845 25.6002 14.4009 25.6002C13.5172 25.6002 12.8009 24.8839 12.8009 24.0002V20.8002C12.8009 19.9165 13.5172 19.2002 14.4009 19.2002Z" fill="url(#paint1_linear_79_9091)"/>
<path fill-rule="evenodd" clip-rule="evenodd" d="M20.8009 3.2002C21.6845 3.2002 22.4009 3.91654 22.4009 4.8002V24.0002C22.4009 24.8839 21.6845 25.6002 20.8009 25.6002C19.9172 25.6002 19.2009 24.8839 19.2009 24.0002V4.8002C19.2009 3.91654 19.9172 3.2002 20.8009 3.2002Z" fill="url(#paint2_linear_79_9091)"/>
<path fill-rule="evenodd" clip-rule="evenodd" d="M27.2009 12.8002C28.0845 12.8002 28.8009 13.5165 28.8009 14.4002V24.0002C28.8009 24.8839 28.0845 25.6002 27.2009 25.6002C26.3172 25.6002 25.6009 24.8839 25.6009 24.0002V14.4002C25.6009 13.5165 26.3172 12.8002 27.2009 12.8002Z" fill="url(#paint3_linear_79_9091)"/>
<defs>
<linearGradient id="paint0_linear_79_9091" x1="6.40088" y1="3.2002" x2="31.0387" y2="6.01539" gradientUnits="userSpaceOnUse">
<stop stop-color="#1C4EFF"/>
<stop offset="1" stop-color="#1C92FF"/>
</linearGradient>
<linearGradient id="paint1_linear_79_9091" x1="6.40088" y1="3.2002" x2="31.0387" y2="6.01539" gradientUnits="userSpaceOnUse">
<stop stop-color="#1C4EFF"/>
<stop offset="1" stop-color="#1C92FF"/>
</linearGradient>
<linearGradient id="paint2_linear_79_9091" x1="6.40088" y1="3.2002" x2="31.0387" y2="6.01539" gradientUnits="userSpaceOnUse">
<stop stop-color="#1C4EFF"/>
<stop offset="1" stop-color="#1C92FF"/>
</linearGradient>
<linearGradient id="paint3_linear_79_9091" x1="6.40088" y1="3.2002" x2="31.0387" y2="6.01539" gradientUnits="userSpaceOnUse">
<stop stop-color="#1C4EFF"/>
<stop offset="1" stop-color="#1C92FF"/>
</linearGradient>
</defs>
</svg>
