<?xml version="1.0" encoding="utf-8"?>
<!-- Generator: Adobe Illustrator 23.0.5, SVG Export Plug-In . SVG Version: 6.00 Build 0)  -->
<svg version="1.1" id="Слой_1" xmlns="http://www.w3.org/2000/svg" xmlns:xlink="http://www.w3.org/1999/xlink" x="0px" y="0px"
	 viewBox="0 0 20 20" enable-background="new 0 0 20 20" xml:space="preserve">
<path fill="#788393" d="M12.5,19h-5C3,19,1,17,1,12.5v-5C1,3,3,1,7.5,1h5C17,1,19,3,19,7.5v5C19,17,17,19,12.5,19z M7.5,2.3
	c-3.8,0-5.2,1.4-5.2,5.2v5c0,3.8,1.4,5.2,5.2,5.2h5c3.8,0,5.2-1.4,5.2-5.2v-5c0-3.8-1.4-5.2-5.2-5.2H7.5z"/>
<path fill="#788393" d="M10,12.4c-0.2,0-0.3-0.1-0.4-0.2L6.6,9.3c-0.2-0.2-0.2-0.6,0-0.9c0.2-0.2,0.6-0.2,0.9,0l2.5,2.5l2.5-2.5
	c0.2-0.2,0.6-0.2,0.9,0c0.2,0.2,0.2,0.6,0,0.9l-2.9,2.9C10.3,12.4,10.2,12.4,10,12.4z"/>
</svg>
