<svg width="22" height="24" viewBox="0 0 22 24" fill="none" xmlns="http://www.w3.org/2000/svg">
<path d="M0 8.40072C0 6.41253 1.64162 4.80078 3.66666 4.80078H11.9256C12.8981 4.80078 13.8307 5.18006 14.5184 5.85518L16.0371 7.34632C16.7248 8.02144 17.1111 8.9371 17.1111 9.89186V20.4005C17.1111 22.3887 15.4695 24.0004 13.4444 24.0004H3.66666C1.64162 24.0004 0 22.3887 0 20.4005V8.40072Z" fill="#BBCDFF"/>
<path d="M4.88867 3.59994C4.88867 1.61175 6.53029 0 8.55533 0H15.5921C16.5646 0 17.4972 0.379278 18.1848 1.0544L20.9258 3.74552C21.6135 4.42064 21.9998 5.33629 21.9998 6.29106V15.5997C21.9998 17.5879 20.3581 19.1997 18.3331 19.1997H8.55533C6.53029 19.1997 4.88867 17.5879 4.88867 15.5997V3.59994Z" fill="url(#paint0_linear_79_9194)"/>
<path d="M15.8887 3.99989V0C16.672 0 17.4241 0.307471 17.983 0.856269L21.1435 3.95923C21.6912 4.49698 21.9998 5.23233 21.9998 5.99989H17.8887C16.7841 5.99989 15.8887 5.10446 15.8887 3.99989Z" fill="#BBCDFF"/>
<defs>
<linearGradient id="paint0_linear_79_9194" x1="4.88867" y1="0" x2="23.7592" y2="1.92165" gradientUnits="userSpaceOnUse">
<stop stop-color="#1C4EFF"/>
<stop offset="1" stop-color="#1C92FF"/>
</linearGradient>
</defs>
</svg>
