<?xml version="1.0" encoding="utf-8"?>
<!-- Generator: Adobe Illustrator 23.0.5, SVG Export Plug-In . SVG Version: 6.00 Build 0)  -->
<svg version="1.1" id="Слой_1" xmlns="http://www.w3.org/2000/svg" xmlns:xlink="http://www.w3.org/1999/xlink" x="0px" y="0px"
	 viewBox="0 0 310 310" enable-background="new 0 0 310 310" xml:space="preserve">
<linearGradient id="SVGID_1_" gradientUnits="userSpaceOnUse" x1="76.703" y1="155" x2="233.298" y2="155">
	<stop  offset="0" style="stop-color:#1C4EFF"/>
	<stop  offset="1" style="stop-color:#1C92FF"/>
</linearGradient>
<path fill="url(#SVGID_1_)" d="M81.7,165.1h34V305c0,2.8,2.2,5,5,5h57.6c2.8,0,5-2.2,5-5V165.8h39.1c2.5,0,4.7-1.9,5-4.4l5.9-51.5
	c0.2-1.4-0.3-2.8-1.2-3.9c-0.9-1.1-2.3-1.7-3.7-1.7h-45V72c0-9.7,5.2-14.7,15.6-14.7c1.5,0,29.4,0,29.4,0c2.8,0,5-2.2,5-5V5
	c0-2.8-2.2-5-5-5h-40.5c-0.3,0-0.9,0-1.9,0c-7,0-31.5,1.4-50.8,19.2c-21.4,19.7-18.4,43.3-17.7,47.4v37.8H81.7c-2.8,0-5,2.2-5,5
	v50.8C76.7,162.9,78.9,165.1,81.7,165.1z"/>
</svg>
