<svg width="32" height="32" viewBox="0 0 32 32" fill="none" xmlns="http://www.w3.org/2000/svg">
<path opacity="0.3" fill-rule="evenodd" clip-rule="evenodd" d="M1.6 0C2.48366 0 3.2 0.716344 3.2 1.6V27.2C3.2 28.0837 3.91634 28.8 4.8 28.8H30.4C31.2837 28.8 32 29.5163 32 30.4C32 31.2837 31.2837 32 30.4 32H4.8C2.14903 32 0 29.851 0 27.2V1.6C0 0.716344 0.716344 0 1.6 0Z" fill="#1C56FF"/>
<path fill-rule="evenodd" clip-rule="evenodd" d="M8.00088 9.60044C8.88453 9.60044 9.60088 10.3168 9.60088 11.2004V24.0004C9.60088 24.8841 8.88453 25.6004 8.00088 25.6004C7.11722 25.6004 6.40088 24.8841 6.40088 24.0004V11.2004C6.40088 10.3168 7.11722 9.60044 8.00088 9.60044Z" fill="url(#paint0_linear_79_9392)"/>
<path fill-rule="evenodd" clip-rule="evenodd" d="M14.4009 19.2004C15.2845 19.2004 16.0009 19.9168 16.0009 20.8004V24.0004C16.0009 24.8841 15.2845 25.6004 14.4009 25.6004C13.5172 25.6004 12.8009 24.8841 12.8009 24.0004V20.8004C12.8009 19.9168 13.5172 19.2004 14.4009 19.2004Z" fill="url(#paint1_linear_79_9392)"/>
<path fill-rule="evenodd" clip-rule="evenodd" d="M20.8009 3.20044C21.6845 3.20044 22.4009 3.91678 22.4009 4.80044V24.0004C22.4009 24.8841 21.6845 25.6004 20.8009 25.6004C19.9172 25.6004 19.2009 24.8841 19.2009 24.0004V4.80044C19.2009 3.91678 19.9172 3.20044 20.8009 3.20044Z" fill="url(#paint2_linear_79_9392)"/>
<path fill-rule="evenodd" clip-rule="evenodd" d="M27.2009 12.8004C28.0845 12.8004 28.8009 13.5168 28.8009 14.4004V24.0004C28.8009 24.8841 28.0845 25.6004 27.2009 25.6004C26.3172 25.6004 25.6009 24.8841 25.6009 24.0004V14.4004C25.6009 13.5168 26.3172 12.8004 27.2009 12.8004Z" fill="url(#paint3_linear_79_9392)"/>
<defs>
<linearGradient id="paint0_linear_79_9392" x1="6.40088" y1="3.20044" x2="31.0387" y2="6.01563" gradientUnits="userSpaceOnUse">
<stop stop-color="#1C4EFF"/>
<stop offset="1" stop-color="#1C92FF"/>
</linearGradient>
<linearGradient id="paint1_linear_79_9392" x1="6.40088" y1="3.20044" x2="31.0387" y2="6.01563" gradientUnits="userSpaceOnUse">
<stop stop-color="#1C4EFF"/>
<stop offset="1" stop-color="#1C92FF"/>
</linearGradient>
<linearGradient id="paint2_linear_79_9392" x1="6.40088" y1="3.20044" x2="31.0387" y2="6.01563" gradientUnits="userSpaceOnUse">
<stop stop-color="#1C4EFF"/>
<stop offset="1" stop-color="#1C92FF"/>
</linearGradient>
<linearGradient id="paint3_linear_79_9392" x1="6.40088" y1="3.20044" x2="31.0387" y2="6.01563" gradientUnits="userSpaceOnUse">
<stop stop-color="#1C4EFF"/>
<stop offset="1" stop-color="#1C92FF"/>
</linearGradient>
</defs>
</svg>
