<?xml version="1.0" encoding="utf-8"?>
<!-- Generator: Adobe Illustrator 23.0.5, SVG Export Plug-In . SVG Version: 6.00 Build 0)  -->
<svg version="1.1" id="Слой_1" xmlns="http://www.w3.org/2000/svg" xmlns:xlink="http://www.w3.org/1999/xlink" x="0px" y="0px"
	 viewBox="0 0 310 310" enable-background="new 0 0 310 310" xml:space="preserve">
<g>
	<linearGradient id="SVGID_1_" gradientUnits="userSpaceOnUse" x1="4.927" y1="204.694" x2="77.16" y2="204.694">
		<stop  offset="0" style="stop-color:#1C4EFF"/>
		<stop  offset="1" style="stop-color:#1C92FF"/>
	</linearGradient>
	<path fill="url(#SVGID_1_)" d="M72.2,99.7H9.9c-2.8,0-5,2.2-5,5v199.9c0,2.8,2.2,5,5,5h62.2c2.8,0,5-2.2,5-5V104.7
		C77.2,102,74.9,99.7,72.2,99.7z"/>
	<linearGradient id="SVGID_2_" gradientUnits="userSpaceOnUse" x1="0" y1="41.3705" x2="82.099" y2="41.3705">
		<stop  offset="0" style="stop-color:#1C4EFF"/>
		<stop  offset="1" style="stop-color:#1C92FF"/>
	</linearGradient>
	<path fill="url(#SVGID_2_)" d="M41.1,0.3C18.4,0.3,0,18.7,0,41.4c0,22.6,18.4,41,41.1,41c22.6,0,41-18.4,41-41
		C82.1,18.7,63.7,0.3,41.1,0.3z"/>
	<linearGradient id="SVGID_3_" gradientUnits="userSpaceOnUse" x1="106.176" y1="202.21" x2="310" y2="202.21">
		<stop  offset="0" style="stop-color:#1C4EFF"/>
		<stop  offset="1" style="stop-color:#1C92FF"/>
	</linearGradient>
	<path fill="url(#SVGID_3_)" d="M230.5,94.8c-25,0-43.5,10.7-54.7,23v-13c0-2.8-2.2-5-5-5h-59.6c-2.8,0-5,2.2-5,5v199.9
		c0,2.8,2.2,5,5,5h62.1c2.8,0,5-2.2,5-5v-98.9c0-33.3,9.1-46.3,32.3-46.3c25.3,0,27.3,20.8,27.3,48v97.2c0,2.8,2.2,5,5,5H305
		c2.8,0,5-2.2,5-5V195C310,145.4,300.5,94.8,230.5,94.8z"/>
</g>
</svg>
