<svg width="31" height="26" viewBox="0 0 31 26" fill="none" xmlns="http://www.w3.org/2000/svg">
<path fill-rule="evenodd" clip-rule="evenodd" d="M28.3954 0.873477C28.1375 0.937372 25.0433 2.19938 21.5192 3.67794C17.9952 5.15665 12.0221 7.64588 8.24586 9.20974C1.37156 12.0565 0.5 12.5054 0.5 13.1977C0.5 13.9237 0.780048 14.0826 3.74649 15.0388C5.35599 15.5577 6.95423 16.0231 7.29804 16.0728C8.6017 16.2616 9.2018 15.9404 15.4487 11.7095C21.8971 7.34215 22.1631 7.17753 22.7723 7.17753C23.1239 7.17753 23.1662 7.22726 23.0743 7.53163C23.0156 7.7263 22.8049 8.10448 22.6063 8.37186C22.2361 8.86996 17.1364 13.8368 15.0337 15.7472C13.1606 17.4491 13.095 18.0696 14.6535 19.3478C16.3163 20.7118 23.0254 25.15 23.8834 25.4536C25.4966 26.0247 26.5662 25.7682 27.0075 24.7046C27.3593 23.8568 30.5083 3.72594 30.5 2.37753C30.4947 1.49512 30.2882 1.12843 29.6617 0.888585C29.1876 0.707129 29.0726 0.705713 28.3954 0.873477Z" fill="url(#paint0_linear_79_8352)"/>
<defs>
<linearGradient id="paint0_linear_79_8352" x1="0.5" y1="0.75" x2="33.311" y2="5.2489" gradientUnits="userSpaceOnUse">
<stop stop-color="#1C4EFF"/>
<stop offset="1" stop-color="#1C92FF"/>
</linearGradient>
</defs>
</svg>
