<svg width="20" height="16" viewBox="0 0 20 16" fill="none" xmlns="http://www.w3.org/2000/svg">
<path fill-rule="evenodd" clip-rule="evenodd" d="M18.5969 0.079025C18.425 0.119918 16.3622 0.927602 14.0128 1.87388C11.6635 2.82026 7.68142 4.41337 5.16391 5.41423C0.581037 7.23618 0 7.52344 0 7.96651C0 8.43114 0.186698 8.53287 2.16433 9.14485C3.23733 9.47693 4.30282 9.77476 4.53203 9.80659C5.40113 9.92745 5.8012 9.72188 9.96577 7.01409C14.2647 4.21897 14.4421 4.11362 14.8482 4.11362C15.0826 4.11362 15.1108 4.14545 15.0496 4.34024C15.0104 4.46483 14.8699 4.70687 14.7375 4.87799C14.4907 5.19678 11.091 8.37554 9.68916 9.5982C8.4404 10.6874 8.39665 11.0845 9.43568 11.9026C10.5442 12.7756 15.0169 15.616 15.5889 15.8103C16.6644 16.1758 17.3775 16.0116 17.6717 15.331C17.9062 14.7884 20.0055 1.9046 20 1.04162C19.9964 0.476874 19.8588 0.242194 19.4411 0.0886943C19.125 -0.0274374 19.0484 -0.0283439 18.5969 0.079025Z" fill="#1C56FF"/>
</svg>
