<svg width="20" height="20" viewBox="0 0 20 20" fill="none" xmlns="http://www.w3.org/2000/svg">
<path fill-rule="evenodd" clip-rule="evenodd" d="M9.05608 0.0420142C8.10668 0.149229 6.8673 0.498625 6.00169 0.90317C3.18543 2.21928 1.12625 4.8322 0.524865 7.85275C0.24227 9.27201 0.301479 10.9643 0.680641 12.305C0.905189 13.0989 1.23426 13.9037 1.56547 14.4689C1.65462 14.621 1.72755 14.7647 1.72755 14.7881C1.72755 14.8115 1.33511 15.99 0.855498 17.4069C0.375881 18.8238 -0.00900046 19.9907 0.000160198 19.9998C0.00932086 20.009 1.228 19.6317 2.70836 19.1614L5.39986 18.3063L5.83255 18.5099C6.80264 18.9662 7.79494 19.268 8.81254 19.416C9.52716 19.52 10.8092 19.5197 11.5339 19.4153C15.7971 18.8011 19.1216 15.6019 19.8746 11.3889C20.0649 10.3246 20.0365 8.87386 19.8037 7.75617C19.3585 5.61939 18.1838 3.67917 16.4658 2.24319C15.0411 1.05244 13.126 0.2467 11.2234 0.0375451C10.7504 -0.0144755 9.53404 -0.0119282 9.05608 0.0420142ZM7.70553 5.0991C7.82524 5.22656 7.89522 5.38745 8.32242 6.51751C8.51292 7.0214 8.66945 7.49728 8.6703 7.575C8.67209 7.74795 8.45335 8.08072 8.07575 8.47941C7.73069 8.84369 7.72756 8.91368 8.03343 9.42244C8.52923 10.247 9.31651 11.0908 10.0409 11.574C10.5211 11.8943 11.2964 12.2827 11.4556 12.2827C11.5865 12.2827 11.8361 12.0424 12.3731 11.3992C12.67 11.0436 12.7826 10.988 13.0287 11.0753C13.2513 11.1542 14.9441 12.0469 15.1222 12.1793C15.2418 12.2682 15.2675 12.3173 15.2675 12.4576C15.2675 12.6985 15.2002 13.0239 15.0862 13.3344C14.9616 13.6735 14.6086 14.0298 14.1726 14.2566C13.7443 14.4793 13.4428 14.5611 12.9438 14.59C12.5711 14.6116 12.4701 14.6002 12.1171 14.4961C11.6364 14.3544 10.6304 13.963 10.1173 13.7181C8.76463 13.0724 7.4779 11.8484 6.34649 10.1312C5.85682 9.38799 5.64956 8.99595 5.48351 8.49894C5.08151 7.2959 5.3099 6.19135 6.13038 5.37078C6.45802 5.0431 6.57005 5.00185 7.13797 4.99975C7.57223 4.99814 7.61826 5.00619 7.70553 5.0991Z" fill="#1C56FF"/>
</svg>
