<svg width="26" height="26" viewBox="0 0 26 26" fill="none" xmlns="http://www.w3.org/2000/svg">
<path fill-rule="evenodd" clip-rule="evenodd" d="M11.698 0.621327C10.5066 0.755871 8.95129 1.19433 7.86503 1.70199C4.3309 3.35359 1.74683 6.63254 0.99215 10.423C0.637521 12.2041 0.711822 14.3277 1.18763 16.0102C1.46942 17.0065 1.88237 18.0164 2.29801 18.7257C2.40988 18.9165 2.5014 19.0968 2.5014 19.1262C2.5014 19.1556 2.00893 20.6344 1.40706 22.4125C0.80519 24.1907 0.322201 25.6549 0.333697 25.6664C0.345193 25.678 1.87452 25.2045 3.73223 24.6143L7.10979 23.5412L7.65278 23.7967C8.87015 24.3693 10.1154 24.748 11.3924 24.9338C12.2891 25.0643 13.898 25.0639 14.8074 24.9329C20.1573 24.1621 24.3293 20.1474 25.2742 14.8605C25.5129 13.525 25.4774 11.7044 25.1852 10.3018C24.6265 7.62039 23.1523 5.1856 20.9964 3.38359C19.2086 1.88931 16.8053 0.878188 14.4177 0.615719C13.8241 0.550438 12.2978 0.553635 11.698 0.621327ZM10.0032 6.96747C10.1534 7.12742 10.2412 7.32932 10.7773 8.74744C11.0164 9.37978 11.2128 9.97695 11.2139 10.0745C11.2161 10.2915 10.9416 10.7091 10.4678 11.2094C10.0347 11.6666 10.0308 11.7544 10.4147 12.3928C11.0368 13.4276 12.0248 14.4865 12.9339 15.0929C13.5365 15.4948 14.5094 15.9822 14.7091 15.9822C14.8734 15.9822 15.1866 15.6806 15.8606 14.8735C16.2331 14.4273 16.3744 14.3574 16.6833 14.467C16.9625 14.5661 19.0869 15.6863 19.3104 15.8524C19.4605 15.9639 19.4927 16.0256 19.4927 16.2017C19.4927 16.504 19.4082 16.9124 19.2651 17.302C19.1089 17.7275 18.6659 18.1747 18.1188 18.4592C17.5813 18.7387 17.2029 18.8414 16.5767 18.8777C16.109 18.9048 15.9823 18.8904 15.5392 18.7598C14.936 18.582 13.6736 18.0908 13.0298 17.7835C11.3323 16.9732 9.71752 15.4372 8.29772 13.2822C7.68323 12.3496 7.42314 11.8576 7.21476 11.2339C6.7103 9.72424 6.9969 8.33814 8.02653 7.3084C8.43768 6.8972 8.57827 6.84544 9.29095 6.8428C9.8359 6.84078 9.89366 6.85087 10.0032 6.96747Z" fill="url(#paint0_linear_79_8356)"/>
<defs>
<linearGradient id="paint0_linear_79_8356" x1="0.333496" y1="0.568604" x2="27.9389" y2="3.72288" gradientUnits="userSpaceOnUse">
<stop stop-color="#1C4EFF"/>
<stop offset="1" stop-color="#1C92FF"/>
</linearGradient>
</defs>
</svg>
